<svg width="50" height="52" viewBox="0 0 50 52" fill="none" xmlns="http://www.w3.org/2000/svg">
<path d="M25.0533 34.0106L0 43.0476V9.0582L25.0533 0V34.0106Z" fill="#49C5B6"/>
<path d="M25.0533 13.6296L6.2047 20.4233V13.6085L25.0533 6.81482V13.6296Z" fill="#04493F"/>
<path d="M25.0533 27.2381L6.2047 34.0529V27.2381L25.0533 20.4233V27.2381Z" fill="#04493F"/>
<path d="M49.9147 15.7884V8.99471L25.0533 0V34.0106L49.9147 43.0053V22.6032L31.0874 15.8095V8.99471L49.9147 15.7884Z" fill="#068970"/>
<path d="M49.9147 15.7884L31.0874 8.99471V15.8095L40.4904 19.1958L49.9147 15.7884Z" fill="#04493F"/>
<path d="M43.8806 34.0529L25.0533 27.2381V20.4233L43.8806 27.2381V34.0529Z" fill="#04493F"/>
<path d="M50 43.0053L25.0533 52L0.106613 43.0053L25.0533 34.0106L50 43.0053Z" fill="#04493F"/>
<path d="M43.8806 27.2381L34.4563 30.6455L43.8806 34.0317V27.2381Z" fill="#057260"/>
<path d="M6.22601 27.2381L15.6503 30.6455L6.22601 34.0317V27.2381Z" fill="#057260"/>
<path d="M6.2047 13.6296L15.629 17.037L6.2047 20.4233V13.6296Z" fill="#057260"/>
</svg>
