<svg width="107" height="30" viewBox="0 0 107 30" fill="none" xmlns="http://www.w3.org/2000/svg">
<g clip-path="url(#clip0)">
<path d="M25.6403 11.0317V12.2723H2.48332V15.2621C2.47253 16.3277 2.88443 17.3542 3.62897 18.1173C4.37352 18.8804 5.39015 19.3179 6.45663 19.3342L12.8015 19.3869C12.3887 19.3869 14.5026 19.3869 19.1992 19.3342C20.2656 19.3179 21.2823 18.8804 22.0268 18.1173C22.7714 17.3542 23.1833 16.3277 23.1725 15.2621V15.1969H25.5968C25.5968 15.2497 25.5968 15.6094 25.544 16.2793C25.4913 17.6719 24.8735 18.8566 23.7902 19.939C22.8339 20.9697 21.5236 21.6021 20.1211 21.7099C18.212 21.865 15.8405 21.9146 12.8977 21.9146H12.845C9.90534 21.9146 7.481 21.8619 5.57195 21.7099C4.15961 21.6026 2.83758 20.9747 1.86249 19.9483C0.835119 18.9687 0.209845 17.6419 0.108645 16.2266C0.0527705 14.8434 0 13.2461 0 11.3388V11.0814C0 8.24666 0 6.69906 0.0527705 6.39202C0.165057 4.90797 0.742935 3.49711 1.70418 2.36018C2.18145 1.7887 2.77089 1.32102 3.43613 0.986031C4.10136 0.65104 4.82826 0.455842 5.57195 0.412488C7.58344 0.257417 9.95811 0.204693 12.7425 0.204693H12.845C15.7846 0.204693 18.212 0.257417 20.118 0.412488C21.5402 0.533707 22.8671 1.17671 23.843 2.21751C24.8758 3.18769 25.4866 4.52397 25.544 5.93921C25.6475 7.33071 25.6992 9.03132 25.6992 11.041L25.6403 11.0317ZM23.1569 9.79117V6.80451C23.1678 5.74048 22.7571 4.71532 22.0146 3.95252C21.2721 3.18971 20.2578 2.75112 19.193 2.73235L12.7953 2.67962C12.1248 2.67962 10.0016 2.67962 6.45042 2.73235C5.38502 2.75031 4.36998 3.18855 3.62677 3.95144C2.88356 4.71433 2.47251 5.73995 2.48332 6.80451V9.79427L23.1569 9.79117Z" fill="black"/>
<path d="M53.1896 15.7738C53.1896 18.9186 50.9205 21.5455 47.7728 21.7533C45.2461 21.9084 42.8062 22.0107 40.4998 22.0107H40.3539C38.4449 22.0107 36.3185 21.9084 33.9066 21.7533C32.5656 21.651 31.3271 21.0307 30.1413 19.9483C29.0052 18.8659 28.4402 17.6284 28.4402 16.3414V15.9785H30.8149C31.175 17.9882 32.7767 19.4831 34.7882 19.4831L40.5154 19.5358H42.0674C43.4612 19.4831 45.0598 19.4831 46.8664 19.4831C49.1356 19.4831 50.6845 17.8331 50.6845 15.566C50.6845 13.0415 48.9835 11.3388 46.4536 11.3388L34.9496 11.1837C33.143 11.131 31.6468 10.7185 30.5138 9.89352C29.879 9.4263 29.3682 8.8109 29.0263 8.10107C28.6843 7.39124 28.5215 6.60855 28.552 5.82136V5.71901C28.5302 2.48113 30.5945 0.412488 33.8352 0.204693C35.856 0.0527241 37.8706 0 39.879 0C42.6138 0 45.0381 0.0527241 47.152 0.204693C50.0916 0.412488 52.4663 3.03939 52.6215 5.97643H50.2469C50.0808 5.02991 49.5972 4.16808 48.8756 3.53278C48.154 2.89749 47.2374 2.52659 46.2767 2.48113C45.0909 2.42841 42.9738 2.42841 39.8293 2.42841C38.8484 2.42841 37.1474 2.42841 34.7727 2.48113C32.2459 2.53386 31.0073 3.61625 31.0073 5.72831C31.0073 7.79076 32.4011 8.82973 35.1855 8.87315L46.6895 9.02822C48.3876 9.05393 50.0102 9.73393 51.2185 10.9263C51.8447 11.481 52.3441 12.164 52.6826 12.9287C53.0211 13.6935 53.1909 14.5221 53.1803 15.3582L53.1896 15.7738Z" fill="black"/>
<path d="M64.3335 30H61.5397L65.6683 21.8557L54.8938 0.567558H57.6875L67.0775 19.1233L76.4583 0.567558H79.193L64.3335 30Z" fill="black"/>
<path d="M107 15.7738C107 18.9186 104.731 21.5455 101.583 21.7533C99.0565 21.9084 96.6166 22.0107 94.3103 22.0107H94.155C92.246 22.0107 90.1197 21.9084 87.7046 21.7533C86.3636 21.651 85.1251 21.0307 83.9393 19.9483C82.8032 18.8659 82.2382 17.6284 82.2382 16.3414V15.9785H84.6098C84.9699 17.9882 86.5716 19.4831 88.5831 19.4831L94.3103 19.5358H95.8623C97.2561 19.4831 98.8547 19.4831 100.661 19.4831C102.93 19.4831 104.479 17.8331 104.479 15.566C104.479 13.0415 102.778 11.3388 100.248 11.3388L88.7445 11.1837C86.9379 11.131 85.4417 10.7185 84.3087 9.89352C83.6739 9.4263 83.1631 8.8109 82.8212 8.10107C82.4792 7.39124 82.3164 6.60855 82.3469 5.82136V5.71901C82.3376 2.48113 84.4018 0.412488 87.6519 0.204693C89.6633 0.0496227 91.6872 0 93.6894 0C96.4242 0 98.8485 0.0527241 100.962 0.204693C103.902 0.412488 106.277 3.03939 106.432 5.97643H104.057C103.891 5.02991 103.408 4.16808 102.686 3.53278C101.964 2.89749 101.048 2.52659 100.087 2.48113C98.9013 2.42841 96.7843 2.42841 93.6366 2.42841C92.6557 2.42841 90.9547 2.42841 88.58 2.48113C86.0532 2.53386 84.8147 3.61625 84.8147 5.72831C84.8147 7.79076 86.2084 8.82973 88.9928 8.87315L100.497 9.02822C102.201 9.05322 103.828 9.73687 105.038 10.9356C105.664 11.4903 106.164 12.1733 106.502 12.938C106.841 13.7028 107.011 14.5314 107 15.3675V15.7738Z" fill="black"/>
</g>
<defs>
<clipPath id="clip0">
<rect width="107" height="30" fill="white"/>
</clipPath>
</defs>
</svg>
