<svg width="13" height="10" viewBox="0 0 13 10" fill="none" xmlns="http://www.w3.org/2000/svg">
<path fill-rule="evenodd" clip-rule="evenodd" d="M7.43376 9.79079C7.15172 9.51184 7.15172 9.05958 7.43376 8.78064L10.534 5.71446H0.722222C0.32335 5.71446 0 5.39466 0 5.00017C0 4.60569 0.32335 4.28589 0.722222 4.28589H10.5344L7.43376 1.21936C7.15172 0.940416 7.15172 0.488155 7.43376 0.209209C7.71581 -0.0697365 8.17309 -0.0697365 8.45514 0.209209L12.7885 4.49492C12.8782 4.58369 12.9394 4.69001 12.972 4.8027C12.9859 4.85039 12.9948 4.90012 12.9983 4.95133C12.9998 4.97271 13.0003 4.99415 12.9998 5.01557C12.9956 5.21138 12.9118 5.3878 12.779 5.51441L8.45514 9.79079C8.17309 10.0697 7.71581 10.0697 7.43376 9.79079Z" fill="#444444"/>
</svg>
