<svg width="22" height="22" viewBox="0 0 22 22" fill="none" xmlns="http://www.w3.org/2000/svg">
<path d="M19.0354 0H2.96457C1.32731 0 0 1.32725 0 2.96454V19.0353C0 20.6726 1.32726 21.9999 2.96457 21.9999H10.8906L10.9041 14.1383H8.86168C8.59625 14.1383 8.38081 13.9237 8.37979 13.6583L8.36999 11.1242C8.36897 10.8573 8.58505 10.6404 8.85194 10.6404H10.8907V8.1918C10.8907 5.35023 12.6261 3.80297 15.161 3.80297H17.2411C17.5072 3.80297 17.723 4.01872 17.723 4.28491V6.42168C17.723 6.68775 17.5074 6.90346 17.2414 6.90362L15.9648 6.90421C14.5863 6.90421 14.3194 7.55928 14.3194 8.52062V10.6404H17.3485C17.6371 10.6404 17.8611 10.8925 17.8271 11.1791L17.5267 13.7132C17.498 13.9557 17.2923 14.1384 17.0482 14.1384H14.3329L14.3194 22H19.0355C20.6727 22 22 20.6728 22 19.0355V2.96454C21.9999 1.32725 20.6727 0 19.0354 0Z" fill="white"/>
</svg>
