<svg width="138" height="213" viewBox="0 0 138 213" fill="none" xmlns="http://www.w3.org/2000/svg">
<g filter="url(#filter0_d)">
<path d="M4 0H134V144.296L66.4 205L4 144.296V0Z" fill="#2D2A2E"/>
<path d="M4 47.5L134 0V41L4 88.5V47.5Z" fill="white" fill-opacity="0.12"/>
<path d="M10.2 5.97574H127.8V139.725L66.6355 195.659L10.2 139.749V5.97574Z" stroke="white" stroke-width="2"/>
<path d="M87.2144 36.5525L71.0295 45.6171C70.2095 46.0764 69.2216 46.1248 68.3605 45.7479L63.17 43.4757L63.0042 43.4091C62.576 43.2371 62.0938 43.2614 61.6851 43.4757L36.6034 56.6244C34.5857 58.1665 35.1656 59.5001 35.7627 60.6994C36.4353 62.0503 38.6211 62.1065 39.2937 61.8814L61.9516 50.0166C62.5071 49.7257 63.1666 49.7119 63.7335 49.9801C65.0543 50.6048 67.0155 51.5345 68.4535 52.2274C69.357 52.6628 70.4193 52.6339 71.291 52.1378L90.0728 41.4494C90.4652 42.0123 91.5125 43.3649 92.2587 44.4889C92.9313 45.502 93.5175 44.8929 93.772 44.4889C96.182 40.6614 101.476 32.6507 102.515 30.9801C103.356 29.6292 102.179 29.7981 101.002 29.9669L101.002 29.9669L86.3737 31.8244C84.6923 31.9933 84.6923 32.4998 85.0285 33.1753L87.2144 36.5525Z" fill="white"/>
<path d="M41.6477 65.7652C41.1433 66.2717 40.6388 66.9472 40.807 67.4538C40.807 67.4538 40.807 67.7915 41.8158 67.6226L45.8513 67.116C47.7007 66.7783 49.1803 66.4069 49.7185 66.2718L49.7186 66.2717C50.2566 66.1367 50.3911 65.6526 50.3911 65.4274C50.3911 65.0897 50.3911 63.4011 49.7186 62.7257C49.4391 62.445 49.1581 62.3317 48.8778 62.388C48.4855 62.388 47.1628 62.6581 45.0106 63.7388C42.3203 65.0897 42.5051 64.9041 41.6477 65.7652Z" fill="white"/>
<path d="M54.7628 64.9209V60.1928C54.7628 58.8419 58.7983 56.1402 61.4886 56.309C63.6408 56.4441 64.403 58.1665 64.5151 59.0108V64.2454C64.5151 64.7858 63.7305 65.0334 63.3381 65.0897L56.108 66.1029C55.0319 66.1029 54.7628 65.2586 54.7628 64.9209Z" fill="white"/>
<path d="M87.2144 36.5525L71.0295 45.6171C70.2095 46.0764 69.2216 46.1248 68.3605 45.7479L63.17 43.4757L63.0042 43.4091C62.576 43.2371 62.0938 43.2614 61.6851 43.4757L36.6034 56.6244C34.5857 58.1665 35.1656 59.5001 35.7627 60.6994C36.4353 62.0503 38.6211 62.1065 39.2937 61.8814L61.9516 50.0166C62.5071 49.7257 63.1666 49.7119 63.7335 49.9801C65.0543 50.6048 67.0155 51.5345 68.4535 52.2274C69.357 52.6628 70.4193 52.6339 71.291 52.1378L90.0728 41.4494C90.4652 42.0123 91.5125 43.3649 92.2587 44.4889C92.9313 45.502 93.5175 44.8929 93.772 44.4889C96.182 40.6614 101.476 32.6507 102.515 30.9801C103.356 29.6292 102.179 29.7981 101.002 29.9669L101.002 29.9669L86.3737 31.8244C84.6923 31.9933 84.6923 32.4998 85.0285 33.1753L87.2144 36.5525Z" stroke="white"/>
<path d="M41.6477 65.7652C41.1433 66.2717 40.6388 66.9472 40.807 67.4538C40.807 67.4538 40.807 67.7915 41.8158 67.6226L45.8513 67.116C47.7007 66.7783 49.1803 66.4069 49.7185 66.2718L49.7186 66.2717C50.2566 66.1367 50.3911 65.6526 50.3911 65.4274C50.3911 65.0897 50.3911 63.4011 49.7186 62.7257C49.4391 62.445 49.1581 62.3317 48.8778 62.388C48.4855 62.388 47.1628 62.6581 45.0106 63.7388C42.3203 65.0897 42.5051 64.9041 41.6477 65.7652Z" stroke="white"/>
<path d="M54.7628 64.9209V60.1928C54.7628 58.8419 58.7983 56.1402 61.4886 56.309C63.6408 56.4441 64.403 58.1665 64.5151 59.0108V64.2454C64.5151 64.7858 63.7305 65.0334 63.3381 65.0897L56.108 66.1029C55.0319 66.1029 54.7628 65.2586 54.7628 64.9209Z" stroke="white"/>
<path d="M83.1207 63.6263V51.2995C83.1207 50.6241 83.6252 50.2864 83.7933 50.1175C84.1296 49.7798 83.9614 49.8473 86.6517 48.0912C89.342 46.3351 90.8553 47.5846 91.3597 48.4289L92.0323 49.4421L92.42 50.0651C92.7161 50.5408 92.873 51.0899 92.873 51.6502V63.6263C92.873 64.4706 92.2565 64.752 91.8642 64.8083H84.3027C83.6499 64.8083 83.1207 64.2791 83.1207 63.6263Z" fill="white" stroke="white"/>
<path d="M68.8868 63.4011V60.5305C69.1558 59.0445 70.4001 57.491 71.2408 57.1533C71.2969 57.2096 72.0815 56.6467 75.1081 54.7893C78.1643 52.9136 78.8072 54.3953 78.8072 55.4647V62.7257C78.8072 64.0561 77.1982 63.964 76.2269 63.964C73.7047 63.964 73.5366 63.9077 71.2408 64.0765C69.2875 64.2202 68.8868 63.8514 68.8868 63.4011Z" fill="white" stroke="white"/>
<path d="M20.366 111H23.698V86.384H20.366V111ZM29.7125 105.05C29.7125 110.422 33.9965 111.272 38.8585 111.272H48.1065C53.0365 111.272 58.0005 110.83 58.0005 104.778V103.18C58.0005 98.998 55.2805 97.128 48.7865 97.128H38.9265C33.7245 97.128 32.8065 96.142 32.8065 93.218C32.8065 89.172 35.0845 88.832 41.5105 88.832H45.0465C53.7845 88.832 54.1925 89.546 54.2605 93.456H57.3885V92.606C57.3885 88.22 55.3145 86.112 47.0525 86.112H39.8785C33.0105 86.112 29.6785 87.37 29.6785 92.98C29.6785 99.508 33.0105 100.12 43.1765 100.12H49.5005C53.6485 100.12 54.8725 100.902 54.8725 103.996C54.8725 107.532 53.4445 108.552 48.6165 108.552H38.2805C34.1325 108.552 32.8405 107.396 32.8405 104.982V103.248H29.7125V105.05ZM63.8929 111H67.2249V99.678H86.5709V96.958H67.2249V89.104H87.3529V86.384H63.8929V111ZM102.172 111H105.504V89.104H117.948V86.384H89.7284V89.104H102.172V111Z" fill="white"/>
<line x1="26.32" y1="130.489" x2="111.32" y2="130.489" stroke="white" stroke-width="2"/>
<line x1="33.32" y1="123.489" x2="103.32" y2="123.489" stroke="white" stroke-width="2"/>
</g>
<defs>
<filter id="filter0_d" x="0" y="0" width="138" height="213" filterUnits="userSpaceOnUse" color-interpolation-filters="sRGB">
<feFlood flood-opacity="0" result="BackgroundImageFix"/>
<feColorMatrix in="SourceAlpha" type="matrix" values="0 0 0 0 0 0 0 0 0 0 0 0 0 0 0 0 0 0 127 0"/>
<feOffset dy="4"/>
<feGaussianBlur stdDeviation="2"/>
<feColorMatrix type="matrix" values="0 0 0 0 0 0 0 0 0 0 0 0 0 0 0 0 0 0 0.25 0"/>
<feBlend mode="normal" in2="BackgroundImageFix" result="effect1_dropShadow"/>
<feBlend mode="normal" in="SourceGraphic" in2="effect1_dropShadow" result="shape"/>
</filter>
</defs>
</svg>
