<svg width="19" height="12" viewBox="0 0 19 12" fill="none" xmlns="http://www.w3.org/2000/svg">
<path d="M6.58005 7.23782H9.51015C8.99582 8.69194 7.60284 9.73451 5.97204 9.72247C3.99328 9.70786 2.35711 8.1249 2.28029 6.14757C2.19795 4.02802 3.89841 2.27743 5.99999 2.27743C6.96091 2.27743 7.8378 2.64356 8.49889 3.2435C8.65548 3.38564 8.89383 3.38654 9.04784 3.24158L10.124 2.22869C10.2923 2.07026 10.293 1.80272 10.1252 1.64376C9.07673 0.650513 7.67033 0.0314157 6.11942 0.00113C2.81148 -0.0634522 0.023191 2.64871 0.000149257 5.95722C-0.0230971 9.29058 2.67204 12 5.99999 12C9.20042 12 11.8149 9.4941 11.99 6.33747C11.9947 6.2979 11.9978 4.96037 11.9978 4.96037H6.58005C6.35798 4.96037 6.17798 5.14037 6.17798 5.36244V6.83575C6.17798 7.05782 6.35802 7.23782 6.58005 7.23782Z" fill="#F01529"/>
<path d="M16.962 5.09434V3.65483C16.962 3.46022 16.8043 3.30249 16.6097 3.30249H15.3981C15.2035 3.30249 15.0458 3.46022 15.0458 3.65483V5.09434H13.6062C13.4116 5.09434 13.2539 5.25207 13.2539 5.44668V6.65827C13.2539 6.85288 13.4116 7.01061 13.6062 7.01061H15.0458V8.45012C15.0458 8.64472 15.2035 8.80246 15.3981 8.80246H16.6097C16.8043 8.80246 16.962 8.64472 16.962 8.45012V7.01061H18.4015C18.5961 7.01061 18.7539 6.85288 18.7539 6.65827V5.44668C18.7539 5.25207 18.5961 5.09434 18.4015 5.09434H16.962Z" fill="#F01529"/>
</svg>
