<svg width="22" height="22" viewBox="0 0 22 22" fill="none" xmlns="http://www.w3.org/2000/svg">
<path d="M15.4461 0H6.55392C2.94007 0 0 2.94007 0 6.55392V15.4461C0 19.0599 2.94007 22 6.55392 22H15.4461C19.0599 22 22 19.0599 22 15.4461V6.55392C22 2.94007 19.0599 0 15.4461 0ZM19.7868 15.4461C19.7868 17.8434 17.8434 19.7868 15.4461 19.7868H6.55392C4.15663 19.7868 2.2132 17.8434 2.2132 15.4461V6.55392C2.2132 4.15659 4.15663 2.2132 6.55392 2.2132H15.4461C17.8434 2.2132 19.7868 4.15659 19.7868 6.55392V15.4461Z" fill="white"/>
<path d="M11 5.31006C7.86252 5.31006 5.31 7.86258 5.31 11C5.31 14.1374 7.86252 16.69 11 16.69C14.1374 16.69 16.69 14.1375 16.69 11C16.69 7.86254 14.1374 5.31006 11 5.31006ZM11 14.4768C9.07979 14.4768 7.5232 12.9202 7.5232 11C7.5232 9.07985 9.07983 7.52326 11 7.52326C12.9202 7.52326 14.4768 9.07985 14.4768 11C14.4768 12.9202 12.9201 14.4768 11 14.4768Z" fill="white"/>
<path d="M16.701 6.71613C17.454 6.71613 18.0645 6.1057 18.0645 5.35269C18.0645 4.59969 17.454 3.98926 16.701 3.98926C15.948 3.98926 15.3376 4.59969 15.3376 5.35269C15.3376 6.1057 15.948 6.71613 16.701 6.71613Z" fill="white"/>
</svg>
