<svg width="30" height="30" viewBox="0 0 30 30" fill="none" xmlns="http://www.w3.org/2000/svg">
<path d="M19.8132 0H4.26568C3.83283 0 3.48193 0.350893 3.48193 1.03179V29.4643C3.48193 29.6491 3.83283 30 4.26568 30H25.7339C26.1668 30 26.5177 29.6491 26.5177 29.4643V6.9525C26.5177 6.57964 26.4678 6.45964 26.38 6.37125L20.1464 0.137679C20.058 0.0498214 19.938 0 19.8132 0Z" fill="#E9E9E0"/>
<path d="M20.0889 0.0809326V6.42861H26.4365L20.0889 0.0809326Z" fill="#D9D7CA"/>
<path d="M10.1415 10.1786C11.4933 10.1786 12.5892 9.0827 12.5892 7.73088C12.5892 6.37907 11.4933 5.2832 10.1415 5.2832C8.78971 5.2832 7.69385 6.37907 7.69385 7.73088C7.69385 9.0827 8.78971 10.1786 10.1415 10.1786Z" fill="#F3D55B"/>
<path d="M3.48193 20.8929H9.37479H26.5177V15.0001L21.1605 9.91077L15.5355 16.0715L12.5982 13.1342L3.48193 20.8929Z" fill="#26B99A"/>
<path d="M25.7339 30H4.26568C3.83283 30 3.48193 29.6491 3.48193 29.2162V20.8928H26.5177V29.2162C26.5177 29.6491 26.1668 30 25.7339 30Z" fill="#14A085"/>
<path d="M11.478 22.8481V27.0524C11.478 27.3064 11.4314 27.5201 11.3387 27.6931C11.2461 27.8662 11.1212 28.0055 10.9653 28.1105C10.8089 28.2155 10.6294 28.2889 10.4269 28.3301C10.2239 28.3719 10.0155 28.3928 9.8007 28.3928C9.69302 28.3928 9.56713 28.3815 9.42355 28.3596C9.27945 28.3376 9.13052 28.3039 8.97677 28.2572C8.82302 28.2106 8.67516 28.1581 8.53373 28.0997C8.39177 28.0414 8.2723 27.9755 8.1748 27.9021L8.5482 27.309C8.59695 27.3428 8.66659 27.3787 8.75713 27.4151C8.84713 27.4515 8.94623 27.4858 9.05391 27.5174C9.16105 27.5496 9.27355 27.5769 9.39088 27.6015C9.5082 27.6262 9.61802 27.638 9.72034 27.638C9.97909 27.638 10.1853 27.5876 10.3391 27.488C10.4928 27.3883 10.5743 27.218 10.5844 26.979V22.8481H11.478Z" fill="white"/>
<path d="M13.6682 28.3564H12.7891V22.958H14.3416C14.5708 22.958 14.798 22.9944 15.0225 23.0678C15.2469 23.1412 15.4484 23.251 15.6267 23.3973C15.8051 23.5435 15.9492 23.7209 16.0591 23.9282C16.1689 24.1355 16.2241 24.3685 16.2241 24.6278C16.2241 24.9016 16.1775 25.1491 16.0848 25.3714C15.9921 25.5937 15.8625 25.7807 15.6964 25.9318C15.5303 26.0828 15.33 26.2002 15.0959 26.2832C14.8617 26.3662 14.6025 26.4075 14.3196 26.4075H13.6676V28.3564H13.6682ZM13.6682 23.625V25.7635H14.4739C14.581 25.7635 14.6871 25.7453 14.7926 25.7084C14.8976 25.6719 14.9941 25.6119 15.0819 25.5289C15.1698 25.4459 15.2405 25.3302 15.2941 25.1812C15.3476 25.0323 15.3744 24.848 15.3744 24.6284C15.3744 24.5405 15.3621 24.4387 15.338 24.3246C15.3134 24.21 15.2635 24.1002 15.188 23.9952C15.1119 23.8902 15.0059 23.8023 14.8692 23.7316C14.7321 23.6603 14.5516 23.625 14.3271 23.625H13.6682Z" fill="white"/>
<path d="M21.1604 25.5727V27.6599C21.0479 27.8019 20.9225 27.917 20.7832 28.0076C20.6439 28.0981 20.4977 28.1726 20.3439 28.231C20.1902 28.2894 20.0316 28.3311 19.8677 28.3552C19.7038 28.381 19.542 28.3927 19.3807 28.3927C19.0582 28.3927 18.762 28.3344 18.4909 28.217C18.2198 28.0997 17.983 27.9267 17.7805 27.6969C17.578 27.467 17.4189 27.1794 17.3043 26.8327C17.1896 26.4861 17.1323 26.0854 17.1323 25.6317C17.1323 25.1779 17.1896 24.7783 17.3043 24.4344C17.4189 24.0899 17.5775 23.8033 17.7805 23.574C17.983 23.3442 18.2209 23.1701 18.4946 23.0501C18.7679 22.9301 19.0636 22.8706 19.3807 22.8706C19.6738 22.8706 19.947 22.9194 20.2009 23.0169C20.4548 23.1149 20.6814 23.2611 20.8818 23.4561L20.2738 23.9983C20.1564 23.8563 20.022 23.754 19.8709 23.6908C19.7193 23.6276 19.5634 23.5954 19.4021 23.5954C19.2216 23.5954 19.0491 23.6292 18.8857 23.6977C18.7218 23.7663 18.5755 23.882 18.4464 24.0454C18.3168 24.2094 18.2155 24.4199 18.1427 24.6792C18.0698 24.9385 18.0302 25.2551 18.0254 25.6311C18.0302 25.9976 18.0682 26.3147 18.1389 26.5831C18.2096 26.8515 18.3071 27.0711 18.432 27.242C18.5568 27.4129 18.6982 27.5399 18.8568 27.6229C19.0154 27.706 19.1825 27.7472 19.3588 27.7472C19.4123 27.7472 19.4841 27.7435 19.5746 27.736C19.6646 27.7285 19.7552 27.7167 19.8457 27.6995C19.9357 27.6824 20.0225 27.6594 20.1055 27.6299C20.1886 27.6004 20.2496 27.5592 20.2888 27.5056V26.1727H19.3732V25.5722H21.1604V25.5727Z" fill="white"/>
</svg>
