<svg width="521" height="128" viewBox="0 0 521 128" fill="none" xmlns="http://www.w3.org/2000/svg">
<path d="M70.0398 30.3639L49.7814 41.9236C48.9514 42.3973 47.9454 42.4471 47.0726 42.0578L40.3689 39.068L40.1656 38.9848C39.6372 38.7686 39.0401 38.7991 38.5365 39.068L7.58571 55.599C5.09585 57.5377 5.81146 59.2144 6.54827 60.7222C7.37822 62.4205 10.0756 62.4913 10.9055 62.2082L39.0589 47.1882C39.6215 46.8881 40.292 46.8734 40.8665 47.1502C42.5884 47.9798 45.3428 49.3095 47.206 50.227C48.1207 50.6773 49.2014 50.6476 50.0834 50.1362L73.5671 36.5205C74.0512 37.2281 75.3437 38.9287 76.2645 40.3418C77.0944 41.6156 77.8179 40.8498 78.1319 40.3418C81.1059 35.5298 87.6383 25.4585 88.9213 23.3582C89.9587 21.6598 88.5063 21.8721 87.0539 22.0844L87.0539 22.0844L69.0023 24.4196C66.9275 24.6319 66.9275 25.2688 67.3424 26.118L70.0398 30.3639Z" fill="white"/>
<path d="M13.8104 67.091C13.1879 67.7279 12.5654 68.5771 12.7729 69.214C12.7729 69.214 12.7729 69.6386 14.0179 69.4263L18.9976 68.7894C21.28 68.3648 23.1059 67.8978 23.7698 67.7279C24.4338 67.5581 24.5998 66.9495 24.5998 66.6664C24.5998 66.2419 24.5998 64.1189 23.7698 63.2697C23.425 62.9169 23.0782 62.7744 22.7324 62.8451C22.2482 62.8451 20.616 63.1848 17.9601 64.5435C14.6403 66.2419 14.8684 66.0085 13.8104 67.091Z" fill="white"/>
<path d="M29.9945 66.0296V60.0853C29.9945 58.3869 34.9742 54.9902 38.294 55.2025C40.9499 55.3723 41.8905 57.5377 42.0288 58.5992V65.1804C42.0288 65.8597 41.0605 66.1711 40.5764 66.2419L31.6544 67.5156C30.3265 67.5156 29.9945 66.4542 29.9945 66.0296Z" fill="white"/>
<path d="M70.0398 30.3639L49.7814 41.9236C48.9514 42.3973 47.9454 42.4471 47.0726 42.0578L40.3689 39.068L40.1656 38.9848C39.6372 38.7686 39.0401 38.7991 38.5365 39.068L7.58571 55.599C5.09585 57.5377 5.81146 59.2144 6.54827 60.7222C7.37822 62.4205 10.0756 62.4913 10.9055 62.2082L39.0589 47.1882C39.6215 46.8881 40.292 46.8734 40.8665 47.1502C42.5884 47.9798 45.3428 49.3095 47.206 50.227C48.1207 50.6773 49.2014 50.6476 50.0834 50.1362L73.5671 36.5205C74.0512 37.2281 75.3437 38.9287 76.2645 40.3418C77.0944 41.6156 77.8179 40.8498 78.1319 40.3418C81.1059 35.5298 87.6383 25.4585 88.9213 23.3582C89.9587 21.6598 88.5063 21.8721 87.0539 22.0844L87.0539 22.0844L69.0023 24.4196C66.9275 24.6319 66.9275 25.2688 67.3424 26.118L70.0398 30.3639Z" stroke="white"/>
<path d="M13.8104 67.091C13.1879 67.7279 12.5654 68.5771 12.7729 69.214C12.7729 69.214 12.7729 69.6386 14.0179 69.4263L18.9976 68.7894C21.28 68.3648 23.1059 67.8978 23.7698 67.7279C24.4338 67.5581 24.5998 66.9495 24.5998 66.6664C24.5998 66.2419 24.5998 64.1189 23.7698 63.2697C23.425 62.9169 23.0782 62.7744 22.7324 62.8451C22.2482 62.8451 20.616 63.1848 17.9601 64.5435C14.6403 66.2419 14.8684 66.0085 13.8104 67.091Z" stroke="white"/>
<path d="M29.9945 66.0296V60.0853C29.9945 58.3869 34.9742 54.9902 38.294 55.2025C40.9499 55.3723 41.8905 57.5377 42.0288 58.5992V65.1804C42.0288 65.8597 41.0605 66.1711 40.5764 66.2419L31.6544 67.5156C30.3265 67.5156 29.9945 66.4542 29.9945 66.0296Z" stroke="white"/>
<path d="M64.9881 64.4019V48.9044C64.9881 48.0552 65.6106 47.6306 65.818 47.4183C66.233 46.9937 66.0255 47.0786 69.3453 44.8707C72.6652 42.6629 74.5326 44.2338 75.155 45.2953L75.985 46.5691L76.5826 47.5474C76.8702 48.0183 77.0224 48.5594 77.0224 49.1113V64.4019C77.0224 65.4634 76.2616 65.8172 75.7775 65.888H66.4742C65.6534 65.888 64.9881 65.2227 64.9881 64.4019Z" fill="white" stroke="white"/>
<path d="M47.4235 64.1189V60.5099C47.7555 58.6417 49.2909 56.6886 50.3283 56.2639C50.3975 56.3347 51.3658 55.6271 55.1006 53.2918C58.8719 50.9337 59.6653 52.7965 59.6653 54.141V63.2697C59.6653 64.9424 57.6797 64.8266 56.4811 64.8266C53.3688 64.8266 53.1613 64.7558 50.3283 64.9681C47.9179 65.1487 47.4235 64.685 47.4235 64.1189Z" fill="white" stroke="white"/>
<path d="M4.67508 97H7.61508V75.28H4.67508V97ZM12.922 91.75C12.922 96.49 16.702 97.24 20.992 97.24H29.152C33.502 97.24 37.882 96.85 37.882 91.51V90.1C37.882 86.41 35.482 84.76 29.752 84.76H21.052C16.462 84.76 15.652 83.89 15.652 81.31C15.652 77.74 17.662 77.44 23.332 77.44H26.452C34.162 77.44 34.522 78.07 34.582 81.52H37.342V80.77C37.342 76.9 35.512 75.04 28.222 75.04H21.892C15.832 75.04 12.892 76.15 12.892 81.1C12.892 86.86 15.832 87.4 24.802 87.4H30.382C34.042 87.4 35.122 88.09 35.122 90.82C35.122 93.94 33.862 94.84 29.602 94.84H20.482C16.822 94.84 15.682 93.82 15.682 91.69V90.16H12.922V91.75ZM43.0812 97H46.0212V87.01H63.0912V84.61H46.0212V77.68H63.7812V75.28H43.0812V97ZM76.8572 97H79.7972V77.68H90.7772V75.28H65.8772V77.68H76.8572V97Z" fill="white"/>
<line x1="2.92697" y1="103.574" x2="89.2725" y2="103.574" stroke="white" stroke-width="2"/>
</svg>
