<svg width="70" height="71" viewBox="0 0 70 71" fill="none" xmlns="http://www.w3.org/2000/svg">
<path d="M27.4646 49.3674C28.7724 49.3674 30.198 49.8818 30.198 51.3873C30.198 53.0023 28.9425 53.3102 27.5823 53.3102C27.0374 53.3102 26.1568 53.4451 26.1568 54.1536V54.6975H30.2329V55.8108H24.923V54.124C24.923 52.665 26.2919 52.2306 27.5823 52.2306C28.0793 52.2306 28.9904 52.1505 28.9904 51.4168C28.9904 50.683 28.3452 50.4005 27.4995 50.4005C26.8499 50.4005 26.1916 50.7168 26.1916 51.2903H24.9536C24.9623 49.9451 26.2701 49.3674 27.4646 49.3674Z" fill="white"/>
<path d="M30.9522 52.1588C30.9522 48.3636 36.7067 48.3636 36.7067 52.1588V53.0739C36.7067 56.8691 30.9522 56.8691 30.9522 53.0739V52.1588ZM32.1816 53.0739C32.1651 53.293 32.1955 53.513 32.2708 53.7202C32.3462 53.9274 32.4649 54.1174 32.6195 54.2782C32.7741 54.4391 32.9614 54.5674 33.1696 54.6551C33.3777 54.7429 33.6024 54.7881 33.8295 54.7881C34.0565 54.7881 34.2812 54.7429 34.4894 54.6551C34.6975 54.5674 34.8848 54.4391 35.0394 54.2782C35.1941 54.1174 35.3128 53.9274 35.3881 53.7202C35.4634 53.513 35.4938 53.293 35.4773 53.0739V52.1588C35.4938 51.9398 35.4634 51.7198 35.3881 51.5125C35.3128 51.3053 35.1941 51.1154 35.0394 50.9545C34.8848 50.7937 34.6975 50.6654 34.4894 50.5776C34.2812 50.4899 34.0565 50.4446 33.8295 50.4446C33.6024 50.4446 33.3777 50.4899 33.1696 50.5776C32.9614 50.6654 32.7741 50.7937 32.6195 50.9545C32.4649 51.1154 32.3462 51.3053 32.2708 51.5125C32.1955 51.7198 32.1651 51.9398 32.1816 52.1588V53.0739Z" fill="white"/>
<path d="M37.4914 54.8197H38.4766V50.5733H37.4304V49.4854H39.6711V54.8197H40.5823V55.836H37.4914V54.8197Z" fill="white"/>
<path d="M42.5353 52.3486C42.7207 52.1348 42.9531 51.9636 43.2156 51.8476C43.478 51.7316 43.7639 51.6738 44.0524 51.6782C45.3603 51.6782 46.7597 52.2137 46.7597 53.7866C46.7597 55.1908 45.3646 55.8951 44.0437 55.8951C42.7228 55.8951 41.306 55.1951 41.306 53.7866V51.4041C41.306 49.9914 42.6574 49.3293 44.0045 49.3293C45.43 49.3293 46.6943 49.8733 46.6943 51.2059H45.4605C45.4605 50.645 44.7282 50.3625 44.0263 50.3625C43.3244 50.3625 42.5353 50.742 42.5353 51.4336V52.3486ZM45.5347 53.7908C45.5347 53.0908 44.8807 52.7197 44.0524 52.7197C43.2241 52.7197 42.5266 53.0824 42.5353 53.7908C42.5441 54.4993 43.2372 54.8198 44.0306 54.8198C44.8241 54.8198 45.5347 54.4866 45.5347 53.7908Z" fill="white"/>
<path d="M49.1573 17.6098L52.5621 14.3206V8.07541H46.1057L42.7053 11.3646H49.1573V17.6098Z" fill="white"/>
<path d="M52.5621 21.2996L70 4.43197L67.5718 2.10845L52.5621 16.6441L49.1617 19.9333L8.87588 58.9017L4.57308 56.8186L43.1805 19.4737L40.7741 17.1459L3.40039 53.3017V47.0564L40.2989 11.3856L43.6993 8.09645L49.6456 2.32773L47.2392 0L38.8908 8.07537H0V58.2903L26.2789 71L52.5578 58.2903L52.5621 21.2996ZM35.4904 11.3856L3.40039 42.4052V11.3856H35.4904ZM26.2789 67.3229L12.0801 60.4535L49.1574 24.5888V56.2577L26.2789 67.3229Z" fill="white"/>
</svg>
