<svg width="156" height="156" viewBox="0 0 156 156" fill="none" xmlns="http://www.w3.org/2000/svg">
<path d="M71.3621 73.0729L66.162 70.473C64.875 69.8334 63.3174 70.3532 62.6727 71.6378C62.0304 72.9221 62.5529 74.4821 63.8375 75.1243L69.0376 77.727C69.4093 77.9116 69.8072 78 70.1972 78C71.1515 78 72.0692 77.4747 72.5269 76.5622C73.1691 75.2779 72.6466 73.7152 71.3621 73.0729Z" fill="white"/>
<path d="M80.5999 109.2C79.1648 109.2 78 110.365 78 111.8V153.4C78 154.835 79.1648 156 80.5999 156C82.035 156 83.1998 154.835 83.1998 153.4V111.8C83.2001 110.365 82.0353 109.2 80.5999 109.2Z" fill="white"/>
<path d="M45.4039 70.6055L31.2676 79.599C30.0559 80.3686 29.6973 81.9752 30.4693 83.187C30.9632 83.967 31.8057 84.3908 32.6664 84.3908C33.1424 84.3908 33.6259 84.2607 34.0573 83.9853L48.1961 74.9946C49.4078 74.2225 49.764 72.6156 48.9943 71.4038C48.2223 70.1921 46.6153 69.8359 45.4039 70.6055Z" fill="white"/>
<path d="M28.6 41.5999H70.1999C71.635 41.5999 72.7998 40.4351 72.7998 39C72.7998 37.565 71.635 36.4001 70.1999 36.4001H28.6C24.2997 36.4001 20.8 39.8998 20.8 44.2001V85.8C20.8 90.1004 24.2997 93.6 28.6 93.6H70.1999C71.635 93.6 72.7998 92.4352 72.7998 91.0001C72.7998 89.5651 71.635 88.4002 70.1999 88.4002H28.6C27.1674 88.4002 26.0002 87.233 26.0002 85.8003V49.3999L53.0402 69.6799C53.5003 70.0258 54.0515 70.2 54.6003 70.2C55.1021 70.2 55.6039 70.0544 56.0433 69.7631L71.6432 59.3632C72.8367 58.5677 73.1591 56.9531 72.3635 55.7569C71.5653 54.5635 69.9507 54.2359 68.7573 55.0367L54.6886 64.4149L26.2655 43.1002C26.6839 42.2188 27.565 41.5999 28.6 41.5999Z" fill="white"/>
<path d="M91 109.2C89.565 109.2 88.4001 110.365 88.4001 111.8V153.4C88.4001 154.835 89.565 156 91 156C92.4351 156 93.5999 154.835 93.5999 153.4V111.8C93.5999 110.365 92.4351 109.2 91 109.2Z" fill="white"/>
<path d="M114.4 0H41.5999C18.6627 0 0 18.6627 0 41.5999V101.4C0 102.835 1.16482 104 2.5999 104H70.2C71.6351 104 72.7999 102.835 72.7999 101.4C72.7999 99.9649 71.6351 98.8001 70.2 98.8001H5.2001V41.5999C5.2001 21.528 21.528 5.1998 41.6002 5.1998C61.3315 5.2001 78 20.6779 78 39V101.4C78 102.835 79.1648 104 80.5999 104H153.4C154.835 104 156 102.835 156 101.4V41.5999C156 18.6627 137.337 0 114.4 0ZM150.8 98.8001H83.2001V39C83.2001 24.7571 74.5552 12.0068 62.0204 5.2001H114.4C134.472 5.2001 150.8 21.528 150.8 41.6002V98.8001H150.8Z" fill="white"/>
<path d="M130 52.4784V18.1999C130 16.7648 128.835 15.6 127.4 15.6H91C89.565 15.6 88.4001 16.7648 88.4001 18.1999V33.7999C88.4001 35.235 89.565 36.3998 91 36.3998H117C118.435 36.3998 119.6 35.235 119.6 33.7999C119.6 32.3648 118.435 31.2 117 31.2H93.5999V20.8001H124.8V52.4784C121.779 53.5573 119.6 56.4147 119.6 59.8001C119.6 64.1004 123.099 67.6001 127.4 67.6001C131.7 67.6001 135.2 64.1004 135.2 59.8001C135.2 56.4147 133.021 53.5573 130 52.4784ZM127.4 62.4C125.967 62.4 124.8 61.2327 124.8 59.8001C124.8 58.3674 125.967 57.2002 127.4 57.2002C128.832 57.2002 130 58.3674 130 59.8001C130 61.2327 128.832 62.4 127.4 62.4Z" fill="white"/>
</svg>
