<svg width="30" height="30" viewBox="0 0 30 30" fill="none" xmlns="http://www.w3.org/2000/svg">
<path d="M7.5 0C6.46875 0 5.625 0.84375 5.625 1.875V28.125C5.625 29.1562 6.46875 30 7.5 30H26.25C27.2812 30 28.125 29.1562 28.125 28.125V7.5L20.625 0H7.5Z" fill="#E2E5E7"/>
<path d="M22.5 7.5H28.125L20.625 0V5.625C20.625 6.65625 21.4688 7.5 22.5 7.5Z" fill="#B0B7BD"/>
<path d="M28.125 13.125L22.5 7.5H28.125V13.125Z" fill="#CAD1D8"/>
<path d="M24.375 24.375C24.375 24.8906 23.9531 25.3125 23.4375 25.3125H2.8125C2.29688 25.3125 1.875 24.8906 1.875 24.375V15C1.875 14.4844 2.29688 14.0625 2.8125 14.0625H23.4375C23.9531 14.0625 24.375 14.4844 24.375 15V24.375Z" fill="#F01529"/>
<path d="M5.96143 17.7629C5.96143 17.5154 6.15643 17.2454 6.47049 17.2454H8.20205C9.17705 17.2454 10.0546 17.8979 10.0546 19.1485C10.0546 20.3335 9.17705 20.9935 8.20205 20.9935H6.95049V21.9835C6.95049 22.3135 6.74049 22.5 6.47049 22.5C6.22299 22.5 5.96143 22.3135 5.96143 21.9835V17.7629ZM6.95049 18.1894V20.0569H8.20205C8.70455 20.0569 9.10205 19.6135 9.10205 19.1485C9.10205 18.6244 8.70455 18.1894 8.20205 18.1894H6.95049Z" fill="white"/>
<path d="M11.5224 22.5001C11.2749 22.5001 11.0049 22.3651 11.0049 22.036V17.7779C11.0049 17.5088 11.2749 17.3129 11.5224 17.3129H13.2389C16.6646 17.3129 16.5896 22.5001 13.3064 22.5001H11.5224ZM11.9949 18.2279V21.586H13.2389C15.263 21.586 15.353 18.2279 13.2389 18.2279H11.9949Z" fill="white"/>
<path d="M17.8048 18.2879V19.4795H19.7164C19.9864 19.4795 20.2564 19.7495 20.2564 20.0111C20.2564 20.2586 19.9864 20.4611 19.7164 20.4611H17.8048V22.0351C17.8048 22.2976 17.6183 22.4992 17.3558 22.4992C17.0258 22.4992 16.8242 22.2976 16.8242 22.0351V17.777C16.8242 17.5079 17.0267 17.312 17.3558 17.312H19.9873C20.3173 17.312 20.5123 17.5079 20.5123 17.777C20.5123 18.017 20.3173 18.287 19.9873 18.287H17.8048V18.2879Z" fill="white"/>
<path d="M23.4375 25.3125H5.625V26.25H23.4375C23.9531 26.25 24.375 25.8281 24.375 25.3125V24.375C24.375 24.8906 23.9531 25.3125 23.4375 25.3125Z" fill="#CAD1D8"/>
</svg>
