<svg width="22" height="13" viewBox="0 0 22 13" fill="none" xmlns="http://www.w3.org/2000/svg">
<path d="M0.674283 7.63017H20.5396C20.912 7.63017 21.2139 7.17468 21.2139 6.61281C21.2139 6.05094 20.912 5.59546 20.5396 5.59546H0.674283C0.301887 5.59546 0 6.05094 0 6.61281C0 7.17468 0.301887 7.63017 0.674283 7.63017Z" fill="#444444"/>
<path d="M16.048 12.5199L21.5232 7.0058C21.7865 6.74061 21.6801 6.20355 21.2856 5.80625C20.8911 5.40894 20.3579 5.30185 20.0945 5.56704L14.6194 11.0811C14.356 11.3463 14.4624 11.8834 14.8569 12.2807C15.2514 12.678 15.7847 12.7851 16.048 12.5199Z" fill="#444444"/>
<path d="M14.6195 1.91893L20.0946 7.433C20.358 7.69819 20.8912 7.59109 21.2857 7.19379C21.6802 6.79649 21.7866 6.25943 21.5233 5.99424L16.0481 0.480176C15.7848 0.214982 15.2515 0.322077 14.857 0.719379C14.4625 1.11668 14.3561 1.65374 14.6195 1.91893Z" fill="#444444"/>
</svg>
