<svg width="22" height="13" viewBox="0 0 22 13" fill="none" xmlns="http://www.w3.org/2000/svg">
<path d="M21.3257 5.36983L1.46042 5.36983C1.08802 5.36983 0.786139 5.82531 0.786139 6.38718C0.786139 6.94905 1.08802 7.40454 1.46042 7.40454L21.3257 7.40454C21.6981 7.40454 22 6.94905 22 6.38718C22 5.82531 21.6981 5.36983 21.3257 5.36983Z" fill="#444444"/>
<path d="M5.95202 0.480139L0.476842 5.9942C0.213518 6.25939 0.319859 6.79645 0.71436 7.19375C1.10886 7.59105 1.64213 7.69815 1.90545 7.43296L7.38063 1.9189C7.64396 1.6537 7.53762 1.11664 7.14312 0.719342C6.74862 0.322039 6.21534 0.214945 5.95202 0.480139Z" fill="#444444"/>
<path d="M7.38053 11.0811L1.90536 5.567C1.64203 5.30181 1.10876 5.40891 0.714262 5.80621C0.319762 6.20351 0.21342 6.74057 0.476744 7.00576L5.95192 12.5198C6.21524 12.785 6.74852 12.6779 7.14302 12.2806C7.53752 11.8833 7.64386 11.3463 7.38053 11.0811Z" fill="#444444"/>
</svg>
