<svg width="26" height="22" viewBox="0 0 26 22" fill="none" xmlns="http://www.w3.org/2000/svg">
<path d="M0.446307 10.5489L6.26856 12.722L8.52213 19.9694C8.66632 20.4336 9.23393 20.6052 9.61067 20.2971L12.8561 17.6514C13.1963 17.3742 13.6808 17.3604 14.0364 17.6185L19.8899 21.8683C20.293 22.1612 20.8639 21.9404 20.965 21.4534L25.2531 0.82706C25.3634 0.295085 24.8407 -0.148705 24.3342 0.047206L0.439485 9.26505C-0.150186 9.49247 -0.145048 10.3273 0.446307 10.5489ZM8.15894 11.5652L19.5378 4.55695C19.7423 4.43137 19.9527 4.70789 19.7771 4.87078L10.3862 13.6C10.0561 13.9073 9.84322 14.3185 9.78292 14.7648L9.46302 17.1354C9.42066 17.452 8.97602 17.4834 8.88868 17.1771L7.65838 12.8541C7.51747 12.3611 7.72282 11.8344 8.15894 11.5652Z" fill="white"/>
</svg>
