<?xml version="1.0" standalone="no"?>
<!DOCTYPE svg PUBLIC "-//W3C//DTD SVG 1.1//EN" "http://www.w3.org/Graphics/SVG/1.1/DTD/svg11.dtd" >
<svg xmlns="http://www.w3.org/2000/svg" xmlns:xlink="http://www.w3.org/1999/xlink" version="1.1">
<metadata></metadata>
<defs>
<font id="bebas_neuebold" horiz-adv-x="293" >
<font-face units-per-em="1000" ascent="750" descent="-250" />
<missing-glyph horiz-adv-x="114" />
<glyph horiz-adv-x="0" />
<glyph horiz-adv-x="333" />
<glyph unicode=" "  horiz-adv-x="114" />
<glyph unicode="&#x09;" horiz-adv-x="114" />
<glyph unicode="&#xa0;" horiz-adv-x="114" />
<glyph unicode="!" horiz-adv-x="140" d="M40 115l-10 187v216h81v-216l-10 -187h-61zM110 78v-78h-79v78h79z" />
<glyph unicode="&#x22;" horiz-adv-x="240" d="M30 518h78l-12 -152h-55zM132 518h79l-12 -152h-55z" />
<glyph unicode="#" horiz-adv-x="303" d="M162 148h-48l-16 -148h-66l15 148h-36l6 58h36l14 135h-37l6 58h37l13 119h66l-12 -119h48l13 119h66l-12 -119h37l-6 -58h-37l-14 -135h37l-6 -58h-37l-16 -148h-66zM120 206h48l14 135h-48z" />
<glyph unicode="$" d="M27 386q0 108 86 127v38h67v-38q87 -18 87 -127v-16h-77v21q0 52 -40.5 52t-40.5 -52q0 -24 11.5 -45.5t29.5 -36t38.5 -32.5t38 -36t29.5 -46.5t12 -62.5q0 -53 -22.5 -86t-65.5 -42v-37h-67v37q-88 18 -88 128v35h77v-40q0 -51 42 -51t42 51q0 29 -16 53t-39.5 42.5 t-47 38.5t-40 52t-16.5 73z" />
<glyph unicode="%" horiz-adv-x="463" d="M25 439q0 40 20 61.5t58.5 21.5t58.5 -21.5t20 -61.5v-170q0 -40 -20 -61.5t-58.5 -21.5t-58.5 21.5t-20 61.5v170zM308 518h48l-204 -518h-48zM77 265q0 -33 26.5 -33t26.5 33v178q0 32 -26.5 32t-26.5 -32v-178zM282 249q0 27 9 45.5t26.5 28t43 9.5t43 -9.5t26.5 -28 t9 -45.5v-170q0 -40 -20 -61.5t-58.5 -21.5t-58.5 21.5t-20 61.5v170zM334 75q0 -32 26.5 -32t26.5 32v178q0 33 -26.5 33t-26.5 -33v-178z" />
<glyph unicode="&#x26;" horiz-adv-x="306" d="M30 165q0 84 57 109q-57 24 -57 106v10q0 128 122 128h93v-74h-92q-41 0 -41 -50v-32q0 -30 12 -42.5t37 -12.5h35v58h82v-58h21v-74h-21v-170q0 -42 8 -63h-82q-6 16 -8 41q-22 -47 -75 -47q-45 0 -68 30.5t-23 87.5v53zM112 119q0 -51 42 -51q40 0 42 45v120h-31 q-28 0 -40.5 -15t-12.5 -51v-48z" />
<glyph unicode="'" horiz-adv-x="133" d="M27 518h79l-12 -152h-56z" />
<glyph unicode="(" horiz-adv-x="185" d="M174 518v-67h-20q-20 0 -29 -9.5t-9 -36.5v-292q0 -27 9 -36.5t29 -9.5h20v-67h-25q-31 0 -52.5 6t-35.5 19.5t-20 35t-6 52.5v292q0 62 26 87.5t88 25.5h25z" />
<glyph unicode=")" horiz-adv-x="185" d="M37 518q61 0 87.5 -25.5t26.5 -87.5v-292q0 -62 -26.5 -87.5t-87.5 -25.5h-25v67h20q20 0 29 9.5t9 36.5v292q0 27 -9 36.5t-29 9.5h-20v67h25z" />
<glyph unicode="*" d="M132 396l-19 122h67l-19 -122l110 55l21 -63l-122 -20l87 -87l-53 -39l-57 110l-57 -110l-54 39l87 87l-122 20l21 63z" />
<glyph unicode="+" d="M175 288h100v-58h-100v-101h-57v101h-100v58h100v100h57v-100z" />
<glyph unicode="," horiz-adv-x="137" d="M30 0v78h78v-70l-35 -82h-34l22 74h-31z" />
<glyph unicode="-" horiz-adv-x="199" d="M26 296h148v-74h-148v74z" />
<glyph unicode="." horiz-adv-x="137" d="M108 78v-78h-78v78h78z" />
<glyph unicode="/" horiz-adv-x="281" d="M208 518h70l-204 -518h-70z" />
<glyph unicode="0" d="M23 394q0 62 32 96t91.5 34t91.5 -34t32 -96v-270q0 -62 -32 -96t-91.5 -34t-91.5 34t-32 96v270zM104 119q0 -51 42.5 -51t42.5 51v280q0 51 -42.5 51t-42.5 -51v-280z" />
<glyph unicode="1" d="M80 453q30 0 48.5 10t26 21.5t14.5 33.5h55v-518h-81v395h-63v58z" />
<glyph unicode="2" d="M191 391q0 33 -10.5 46t-31.5 13q-42 0 -42 -51v-56h-77v51q0 62 31 96t90 34t90 -34t31 -96q0 -45 -16.5 -86t-40.5 -69.5t-47.5 -54t-40.5 -51t-17 -48.5q0 -7 1 -11h154v-74h-235v64q0 42 16.5 77t40 61t47.5 52t40.5 61t16.5 76z" />
<glyph unicode="3" d="M186 391q0 33 -10.5 46t-31.5 13q-42 0 -42 -51v-33h-77v28q0 62 31 96t90.5 34t90.5 -34t31 -96v-14q0 -83 -57 -106q57 -25 57 -109v-41q0 -62 -31 -96t-90.5 -34t-90.5 34t-31 96v43h77v-48q0 -51 42 -51q14 0 23 5t14 18t5 36v40q0 36 -12.5 51t-40.5 15h-27v74h32 q24 0 36 12.5t12 42.5v29z" />
<glyph unicode="4" d="M10 168l148 350h89v-350h39v-74h-39v-94h-80v94h-157v74zM167 168v195l-82 -195h82z" />
<glyph unicode="5" d="M103 167v-48q0 -50 42 -50t42 50v114q0 51 -42 51t-42 -51v-15h-77l15 300h214v-74h-141l-7 -124q23 38 71 38q30 0 50.5 -13.5t30.5 -40t10 -64.5v-116q0 -62 -31 -96t-90.5 -34t-90.5 34t-31 96v43h77z" />
<glyph unicode="6" d="M24 389q0 135 125 135q59 0 90 -34t31 -96v-14h-77v19q0 51 -42 51q-15 0 -24.5 -5.5t-15 -20t-5.5 -38.5v-94q22 45 75 45q45 0 68 -30t23 -88v-95q0 -62 -32 -96t-92 -34t-92 34t-32 96v265zM148 263q-42 0 -42 -51v-93q0 -50 42 -50t42 50v93q0 51 -42 51z" />
<glyph unicode="7" d="M269 518v-71l-120 -447h-82l119 444h-162v74h245z" />
<glyph unicode="8" d="M274 124q0 -41 -14.5 -70t-43.5 -44.5t-69 -15.5q-62 0 -95 34t-33 96v41q0 80 51 108q-51 27 -51 104v17q0 62 33 96t94.5 34t94.5 -34t33 -96v-17q0 -76 -51 -104q51 -28 51 -108v-41zM101 362q0 -55 45.5 -55t45.5 55v29q0 59 -45.5 59t-45.5 -59v-29zM101 127 q0 -59 46 -59q44 0 45 59v48q0 58 -45.5 58t-45.5 -58v-48z" />
<glyph unicode="9" d="M269 129q0 -135 -125 -135q-39 0 -66.5 15.5t-41 44.5t-13.5 70v14h77v-19q0 -51 42 -51q23 0 34 14t11 50v94q-22 -45 -75 -45q-45 0 -68 30t-23 88v95q0 62 32 96t92 34t92 -34t32 -96v-265zM145 255q42 0 42 51v93q0 50 -42 50t-42 -50v-93q0 -51 42 -51z" />
<glyph unicode=":" horiz-adv-x="137" d="M108 360v-78h-78v78h78zM108 78v-78h-78v78h78z" />
<glyph unicode=";" horiz-adv-x="137" d="M108 360v-78h-78v78h78zM30 0v78h78v-70l-35 -82h-34l22 74h-31z" />
<glyph unicode="&#x3c;" d="M22 230v58l241 89v-59l-165 -59l165 -59v-59z" />
<glyph unicode="=" d="M267 348v-58h-241v58h241zM267 228v-58h-241v58h241z" />
<glyph unicode="&#x3e;" d="M30 141v59l165 59l-165 59v59l241 -89v-58z" />
<glyph unicode="?" horiz-adv-x="266" d="M89 115q-5 13 -5 32q0 31 9.5 56.5t22.5 44.5t26 38.5t22 48t9 64.5q0 51 -40.5 51t-40.5 -51v-56h-77v51q0 62 30.5 96t89.5 34t89.5 -34t30.5 -96q0 -38 -10 -68.5t-24.5 -51.5t-28.5 -40t-24 -42t-10 -48q0 -16 3 -29h-72zM164 78v-78h-79v78h79z" />
<glyph unicode="@" horiz-adv-x="509" d="M352 94q-61 0 -65 49q-23 -47 -72 -45q-78 3 -66 114l8 75q5 55 28.5 83t61.5 27q46 -1 61 -46l4 43h71l-22 -214q-2 -19 15 -19q29 0 44 51.5t15 116.5q0 47 -15 81.5t-48.5 54.5t-83.5 20q-97 0 -149 -72.5t-52 -201.5q0 -92 43.5 -142.5t129.5 -50.5q88 0 153 50 l-6 -71q-62 -41 -152 -41q-120 0 -178.5 69t-58.5 190q0 93 29.5 167t92.5 120t151 46q57 0 98 -17t64 -47.5t33.5 -68.5t10.5 -85q0 -65 -14.5 -113.5t-37 -73.5t-46 -37t-47.5 -12zM221 216q-6 -48 31 -49t42 47l7 70q2 21 -7 31.5t-25 10.5q-37 1 -42 -47z" />
<glyph unicode="A" horiz-adv-x="301" d="M293 0h-82l-14 94h-100l-14 -94h-75l83 518h119zM107 164h79l-39 262z" />
<glyph unicode="B" horiz-adv-x="300" d="M152 518q63 0 92 -29.5t29 -89.5v-19q0 -79 -52 -104q60 -24 60 -111v-42q0 -60 -31.5 -91.5t-91.5 -31.5h-128v518h122zM111 444v-137h32q16 0 26.5 5t16.5 17.5t6 32.5v29q0 27 -10 40t-32 13h-39zM111 233v-159h47q21 0 31.5 11.5t10.5 39.5v45q0 36 -12 49.5 t-41 13.5h-36z" />
<glyph unicode="C" horiz-adv-x="285" d="M266 193v-69q0 -62 -31 -96t-91 -34q-39 0 -66.5 15.5t-41 44.5t-13.5 70v270q0 62 31 96t90.5 34t90.5 -34t31 -96v-51h-77v56q0 51 -42.5 51t-42.5 -51v-280q0 -50 42.5 -50t42.5 50v74h77z" />
<glyph unicode="D" horiz-adv-x="301" d="M30 518h128q122 0 122 -128v-262q0 -128 -122 -128h-128v518zM111 444v-370h46q41 0 41 50v270q0 50 -41 50h-46z" />
<glyph unicode="E" horiz-adv-x="272" d="M111 300h112v-74h-112v-152h141v-74h-222v518h222v-74h-141v-144z" />
<glyph unicode="F" horiz-adv-x="254" d="M111 288h105v-74h-105v-214h-81v518h215v-74h-134v-156z" />
<glyph unicode="G" horiz-adv-x="288" d="M152 289h114v-165q0 -62 -31 -96t-91 -34q-39 0 -66.5 15.5t-41 44.5t-13.5 70v270q0 62 31 96t90.5 34t90.5 -34t31 -96v-51h-77v56q0 51 -42.5 51t-42.5 -51v-280q0 -50 42.5 -50t42.5 50v96h-37v74z" />
<glyph unicode="H" horiz-adv-x="315" d="M111 0h-81v518h81v-222h93v222h82v-518h-82v222h-93v-222z" />
<glyph unicode="I" horiz-adv-x="140" d="M30 518h81v-518h-81v518z" />
<glyph unicode="J" horiz-adv-x="189" d="M7 74q9 -1 29 -1q46 0 46 50v395h82v-389q0 -130 -117 -130q-26 0 -40 1v74z" />
<glyph unicode="K" horiz-adv-x="306" d="M136 206l-25 -47v-159h-81v518h81v-226l107 226h81l-113 -231l113 -287h-84z" />
<glyph unicode="L" horiz-adv-x="250" d="M30 518h81v-444h134v-74h-215v518z" />
<glyph unicode="M" horiz-adv-x="400" d="M202 150l56 368h113v-518h-77v371l-56 -371h-77l-61 366v-366h-71v518h113z" />
<glyph unicode="N" horiz-adv-x="315" d="M102 375v-375h-73v518h102l84 -310v310h72v-518h-83z" />
<glyph unicode="O" d="M23 394q0 62 32 96t91.5 34t91.5 -34t32 -96v-270q0 -62 -32 -96t-91.5 -34t-91.5 34t-32 96v270zM104 119q0 -51 42.5 -51t42.5 51v280q0 51 -42.5 51t-42.5 -51v-280z" />
<glyph unicode="P" horiz-adv-x="282" d="M149 518q122 0 122 -128v-67q0 -128 -122 -128h-38v-195h-81v518h119zM111 444v-175h38q21 0 30.5 11t9.5 37v78q0 14 -2.5 23.5t-7.5 15t-12 8t-18 2.5h-38z" />
<glyph unicode="Q" d="M23 394q0 62 32 96t91.5 34t91.5 -34t32 -96v-270q0 -43 -15 -72q4 -11 23 -11h7v-73h-11q-53 0 -70 36q-27 -10 -57 -10q-60 0 -92 34t-32 96v270zM104 119q0 -51 42.5 -51t42.5 51v280q0 51 -42.5 51t-42.5 -51v-280z" />
<glyph unicode="R" horiz-adv-x="297" d="M200 0q-8 22 -8 64v81q0 36 -12.5 51t-40.5 15h-28v-211h-81v518h122q63 0 92 -29.5t29 -89.5v-41q0 -80 -53 -105q54 -23 54 -110v-80q0 -42 9 -63h-83zM111 444v-159h32q24 0 36.5 12.5t12.5 42.5v51q0 27 -10 40t-32 13h-39z" />
<glyph unicode="S" horiz-adv-x="276" d="M19 394q0 62 30.5 96t89.5 34t89.5 -34t30.5 -96v-17h-77v22q0 51 -40.5 51t-40.5 -51q0 -29 16 -54.5t39.5 -46.5t47 -43.5t40 -56t16.5 -74.5q0 -62 -31 -96t-91 -34q-19 0 -36 4t-30.5 11.5t-23.5 18.5t-17 25.5t-10.5 32.5t-3.5 38v32h77v-37q0 -50 42 -50t42 50 q0 25 -11.5 47.5t-29.5 38.5t-38.5 36t-38 39.5t-29.5 49t-12 64.5z" />
<glyph unicode="T" horiz-adv-x="263" d="M6 518h252v-74h-86v-444h-81v444h-85v74z" />
<glyph unicode="U" horiz-adv-x="294" d="M107 518v-400q0 -50 42.5 -50t42.5 50v400h77v-394q0 -42 -14 -71t-41 -44.5t-67 -15.5q-59 0 -90 34t-31 97v394h81z" />
<glyph unicode="V" horiz-adv-x="297" d="M152 95l63 423h74l-80 -518h-121l-80 518h82z" />
<glyph unicode="W" horiz-adv-x="416" d="M210 276l-29 -276h-112l-58 518h79l44 -408l39 408h79l40 -411l42 411h72l-58 -518h-108z" />
<glyph unicode="X" horiz-adv-x="318" d="M301 518l-85 -252l91 -266h-86l-66 205l-68 -205h-76l91 266l-85 252h84l62 -191l63 191h75z" />
<glyph unicode="Y" d="M106 172l-103 346h85l62 -236l62 236h78l-103 -346v-172h-81v172z" />
<glyph unicode="Z" horiz-adv-x="273" d="M255 518v-73l-154 -371h154v-74h-238v73l155 371h-148v74h231z" />
<glyph unicode="[" horiz-adv-x="185" d="M35 518h134v-67h-53v-384h53v-67h-134v518z" />
<glyph unicode="\" horiz-adv-x="281" d="M278 0h-70l-204 518h70z" />
<glyph unicode="]" horiz-adv-x="185" d="M151 0h-135v67h54v384h-54v67h135v-518z" />
<glyph unicode="^" d="M118 518h57l103 -229h-65l-66 155l-67 -155h-65z" />
<glyph unicode="_" horiz-adv-x="370" d="M0 -7h370v-60h-370v60z" />
<glyph unicode="`" horiz-adv-x="185" d="M116 628l50 -83h-58l-75 83h83z" />
<glyph unicode="a" horiz-adv-x="301" d="M293 0h-82l-14 94h-100l-14 -94h-75l83 518h119zM107 164h79l-39 262z" />
<glyph unicode="b" horiz-adv-x="300" d="M152 518q63 0 92 -29.5t29 -89.5v-19q0 -79 -52 -104q60 -24 60 -111v-42q0 -60 -31.5 -91.5t-91.5 -31.5h-128v518h122zM111 444v-137h32q16 0 26.5 5t16.5 17.5t6 32.5v29q0 27 -10 40t-32 13h-39zM111 233v-159h47q21 0 31.5 11.5t10.5 39.5v45q0 36 -12 49.5 t-41 13.5h-36z" />
<glyph unicode="c" horiz-adv-x="285" d="M266 193v-69q0 -62 -31 -96t-91 -34q-39 0 -66.5 15.5t-41 44.5t-13.5 70v270q0 62 31 96t90.5 34t90.5 -34t31 -96v-51h-77v56q0 51 -42.5 51t-42.5 -51v-280q0 -50 42.5 -50t42.5 50v74h77z" />
<glyph unicode="d" horiz-adv-x="301" d="M30 518h128q122 0 122 -128v-262q0 -128 -122 -128h-128v518zM111 444v-370h46q41 0 41 50v270q0 50 -41 50h-46z" />
<glyph unicode="e" horiz-adv-x="272" d="M111 300h112v-74h-112v-152h141v-74h-222v518h222v-74h-141v-144z" />
<glyph unicode="f" horiz-adv-x="254" d="M111 288h105v-74h-105v-214h-81v518h215v-74h-134v-156z" />
<glyph unicode="g" horiz-adv-x="288" d="M152 289h114v-165q0 -62 -31 -96t-91 -34q-39 0 -66.5 15.5t-41 44.5t-13.5 70v270q0 62 31 96t90.5 34t90.5 -34t31 -96v-51h-77v56q0 51 -42.5 51t-42.5 -51v-280q0 -50 42.5 -50t42.5 50v96h-37v74z" />
<glyph unicode="h" horiz-adv-x="315" d="M111 0h-81v518h81v-222h93v222h82v-518h-82v222h-93v-222z" />
<glyph unicode="i" horiz-adv-x="140" d="M30 518h81v-518h-81v518z" />
<glyph unicode="j" horiz-adv-x="189" d="M7 74q9 -1 29 -1q46 0 46 50v395h82v-389q0 -130 -117 -130q-26 0 -40 1v74z" />
<glyph unicode="k" horiz-adv-x="306" d="M136 206l-25 -47v-159h-81v518h81v-226l107 226h81l-113 -231l113 -287h-84z" />
<glyph unicode="l" horiz-adv-x="250" d="M30 518h81v-444h134v-74h-215v518z" />
<glyph unicode="m" horiz-adv-x="400" d="M202 150l56 368h113v-518h-77v371l-56 -371h-77l-61 366v-366h-71v518h113z" />
<glyph unicode="n" horiz-adv-x="315" d="M102 375v-375h-73v518h102l84 -310v310h72v-518h-83z" />
<glyph unicode="o" d="M23 394q0 62 32 96t91.5 34t91.5 -34t32 -96v-270q0 -62 -32 -96t-91.5 -34t-91.5 34t-32 96v270zM104 119q0 -51 42.5 -51t42.5 51v280q0 51 -42.5 51t-42.5 -51v-280z" />
<glyph unicode="p" horiz-adv-x="278" d="M149 518q122 0 122 -128v-67q0 -128 -122 -128h-38v-195h-81v518h119zM111 444v-175h38q21 0 30.5 11t9.5 37v78q0 14 -2.5 23.5t-7.5 15t-12 8t-18 2.5h-38z" />
<glyph unicode="q" d="M23 394q0 62 32 96t91.5 34t91.5 -34t32 -96v-270q0 -43 -15 -72q4 -11 23 -11h7v-73h-11q-53 0 -70 36q-27 -10 -57 -10q-60 0 -92 34t-32 96v270zM104 119q0 -51 42.5 -51t42.5 51v280q0 51 -42.5 51t-42.5 -51v-280z" />
<glyph unicode="r" horiz-adv-x="297" d="M200 0q-8 22 -8 64v81q0 36 -12.5 51t-40.5 15h-28v-211h-81v518h122q63 0 92 -29.5t29 -89.5v-41q0 -80 -53 -105q54 -23 54 -110v-80q0 -42 9 -63h-83zM111 444v-159h32q24 0 36.5 12.5t12.5 42.5v51q0 27 -10 40t-32 13h-39z" />
<glyph unicode="s" horiz-adv-x="276" d="M19 394q0 62 30.5 96t89.5 34t89.5 -34t30.5 -96v-17h-77v22q0 51 -40.5 51t-40.5 -51q0 -29 16 -54.5t39.5 -46.5t47 -43.5t40 -56t16.5 -74.5q0 -62 -31 -96t-91 -34q-19 0 -36 4t-30.5 11.5t-23.5 18.5t-17 25.5t-10.5 32.5t-3.5 38v32h77v-37q0 -50 42 -50t42 50 q0 25 -11.5 47.5t-29.5 38.5t-38.5 36t-38 39.5t-29.5 49t-12 64.5z" />
<glyph unicode="t" horiz-adv-x="263" d="M6 518h252v-74h-86v-444h-81v444h-85v74z" />
<glyph unicode="u" horiz-adv-x="294" d="M107 518v-400q0 -50 42.5 -50t42.5 50v400h77v-394q0 -42 -14 -71t-41 -44.5t-67 -15.5q-59 0 -90 34t-31 97v394h81z" />
<glyph unicode="v" horiz-adv-x="297" d="M152 95l63 423h74l-80 -518h-121l-80 518h82z" />
<glyph unicode="w" horiz-adv-x="416" d="M210 276l-29 -276h-112l-58 518h79l44 -408l39 408h79l40 -411l42 411h72l-58 -518h-108z" />
<glyph unicode="x" horiz-adv-x="318" d="M301 518l-85 -252l91 -266h-86l-66 205l-68 -205h-76l91 266l-85 252h84l62 -191l63 191h75z" />
<glyph unicode="y" d="M106 172l-103 346h85l62 -236l62 236h78l-103 -346v-172h-81v172z" />
<glyph unicode="z" horiz-adv-x="273" d="M255 518v-73l-154 -371h154v-74h-238v73l155 371h-148v74h231z" />
<glyph unicode="{" horiz-adv-x="190" d="M75 259q46 -12 49 -66l3 -74q2 -30 11 -41t28 -11h12v-67h-41q-23 0 -40.5 8.5t-28.5 27.5t-13 46l-6 99q-2 26 -10 35.5t-31 9.5v66q23 0 31 9.5t10 35.5l6 99q2 41 24 61.5t58 20.5h41v-67h-12q-19 0 -28 -11t-11 -41l-3 -74q-3 -54 -49 -66z" />
<glyph unicode="|" horiz-adv-x="370" d="M155 566h67v-614h-67v614z" />
<glyph unicode="}" horiz-adv-x="190" d="M115 259q-45 12 -48 66l-4 74q-2 30 -10.5 41t-28.5 11h-12v67h41q36 0 58 -20.5t24 -61.5l6 -99q2 -26 10 -35.5t31 -9.5v-66q-23 0 -31 -9.5t-10 -35.5l-6 -99q-2 -41 -24 -61.5t-58 -20.5h-41v67h12q20 0 28.5 11t10.5 41l4 74q3 54 48 66z" />
<glyph unicode="~" d="M6 246q25 37 45.5 51.5t42.5 14.5q21 0 56 -22.5t50 -22.5q5 0 9.5 1.5t8.5 4t9 8.5t9.5 12t12.5 16l38 -40q-25 -37 -45 -50t-43 -13q-21 0 -56 22.5t-50 22.5q-12 0 -21.5 -8.5t-27.5 -33.5z" />
<glyph unicode="&#xa2;" d="M113 27q-86 18 -86 127v210q0 108 86 127v38h67v-38q89 -18 89 -127v-35h-77v40q0 51 -42 51t-42 -51v-220q0 -51 42 -51t42 51v59h77v-54q0 -54 -22.5 -86.5t-66.5 -40.5v-38h-67v38z" />
<glyph unicode="&#xa3;" d="M33 218h49q-4 11 -10 24.5t-11.5 24t-11.5 25t-10 28t-6.5 33t-2.5 41.5q0 62 30.5 96t89 34t89 -34t30.5 -96v-51h-77v56q0 51 -40.5 51t-40.5 -51q0 -41 9 -72.5t22.5 -60.5t18.5 -48h89v-63h-84q-5 -52 -42 -81h140v-74h-242v71q30 0 49.5 22.5t20.5 61.5h-59v63z" />
<glyph unicode="&#xa5;" d="M288 518l-95 -317h62v-41h-68v-33h68v-41h-68v-86h-81v86h-68v41h68v33h-68v41h61l-94 317h85l60 -229l60 229h78z" />
<glyph unicode="&#xa8;" horiz-adv-x="185" d="M72 616v-71h-71v71h71zM184 616v-71h-71v71h71z" />
<glyph unicode="&#xa9;" horiz-adv-x="544" d="M15 259q0 115 73.5 190t184 75t184 -75t73.5 -190t-73.5 -190t-184 -75t-184 75t-73.5 190zM68 259q0 -61 26.5 -110t73.5 -76t104.5 -27t104 27t73.5 76t27 110q0 92 -58.5 152.5t-146.5 60.5t-146 -60.5t-58 -152.5zM353 228v-42q0 -43 -21 -66.5t-62.5 -23.5 t-62.5 23.5t-21 66.5v144q0 92 83.5 92t83.5 -92v-27h-53v31q0 36 -29 36t-29 -36v-150q0 -35 29 -35t29 35v44h53z" />
<glyph unicode="&#xab;" horiz-adv-x="262" d="M131 450l-45 -190l45 -202h-73l-46 202l46 190h73zM251 450l-45 -190l45 -202h-73l-46 202l46 190h73z" />
<glyph unicode="&#xad;" horiz-adv-x="199" d="M26 296h148v-74h-148v74z" />
<glyph unicode="&#xae;" horiz-adv-x="544" d="M15 259q0 115 73.5 190t184 75t184 -75t73.5 -190t-73.5 -190t-184 -75t-184 75t-73.5 190zM68 259q0 -61 26.5 -110t73.5 -76t104.5 -27t104 27t73.5 76t27 110q0 92 -58.5 152.5t-146.5 60.5t-146 -60.5t-58 -152.5zM309 101q-5 13 -5 44v34q0 25 -9 35.5t-29 10.5h-19 v-124h-56v316h86q83 0 83 -83v-6q0 -56 -38 -73q38 -16 38 -77v-34q0 -28 7 -43h-58zM247 366v-89h23q34 0 34 37v14q0 38 -30 38h-27z" />
<glyph unicode="&#xb4;" horiz-adv-x="185" d="M150 628l-75 -83h-55l50 83h80z" />
<glyph unicode="&#xb8;" horiz-adv-x="185" d="M19 -58h55v-6q0 -15 16 -15q19 0 19 18q0 19 -27 19h-7v52h35v-39q28 0 41.5 -8t13.5 -27q0 -27 -18.5 -36t-56.5 -9q-71 0 -71 43v8z" />
<glyph unicode="&#xbb;" horiz-adv-x="262" d="M85 450l46 -190l-46 -202h-73l45 202l-45 190h73zM205 450l46 -190l-46 -202h-73l45 202l-45 190h73z" />
<glyph unicode="&#x2c6;" horiz-adv-x="185" d="M-10 545l66 83h74l65 -83h-69l-34 41l-32 -41h-70z" />
<glyph unicode="&#x2da;" horiz-adv-x="185" d="M33 602q0 25 17.5 42.5t41.5 17.5q13 0 24 -5t18.5 -12.5t12.5 -18.5t5 -24q0 -25 -17.5 -42t-42 -17t-42 17t-17.5 42zM70 602.5q0 -9.5 6.5 -16t16 -6.5t16 6.5t6.5 15.5q0 7 -3 12t-8 8t-12 3q-9 0 -15.5 -6.5t-6.5 -16z" />
<glyph unicode="&#x2dc;" horiz-adv-x="185" d="M122 602q22 0 32 21l39 -27q-19 -51 -63 -51q-16 0 -36 9.5t-30 9.5q-22 0 -32 -22l-39 28q18 50 63 50q16 0 36 -9t30 -9z" />
<glyph unicode="&#x401;" horiz-adv-x="272" d="M119 616v-71h-71v71h71zM232 616v-71h-71v71h71zM111 300h112v-74h-112v-152h141v-74h-222v518h222v-74h-141v-144z" />
<glyph unicode="&#x410;" horiz-adv-x="301" d="M293 0h-82l-14 94h-100l-14 -94h-75l83 518h119zM107 164h79l-39 262z" />
<glyph unicode="&#x411;" horiz-adv-x="307" d="M30 0v518h228v-74h-146v-132h47q61 0 92 -33t31 -95v-56q0 -63 -31 -95.5t-92 -32.5h-129zM159 74q21 0 31.5 11t10.5 38v66q0 26 -10.5 37.5t-31.5 11.5h-47v-164h47z" />
<glyph unicode="&#x412;" horiz-adv-x="300" d="M152 518q63 0 92 -29.5t29 -89.5v-19q0 -79 -52 -104q60 -24 60 -111v-42q0 -60 -31.5 -91.5t-91.5 -31.5h-128v518h122zM111 444v-137h32q16 0 26.5 5t16.5 17.5t6 32.5v29q0 27 -10 40t-32 13h-39zM111 233v-159h47q21 0 31.5 11.5t10.5 39.5v45q0 36 -12 49.5 t-41 13.5h-36z" />
<glyph unicode="&#x413;" horiz-adv-x="270" d="M30 0v518h215v-74h-133v-444h-82z" />
<glyph unicode="&#x414;" horiz-adv-x="361" d="M265 -70v70h-174v-70h-79v143h32q17 22 20 67l18 378h228v-445h36v-143h-81zM144 141q-3 -49 -23 -68h106v371h-69z" />
<glyph unicode="&#x415;" horiz-adv-x="272" d="M111 300h112v-74h-112v-152h141v-74h-222v518h222v-74h-141v-144z" />
<glyph unicode="&#x416;" horiz-adv-x="446" d="M264 309l96 209h82l-100 -210l100 -308h-84l-74 229l-20 -39v-190h-80v190l-20 40l-74 -230h-84l101 306l-101 212h81l97 -209v209h80v-209z" />
<glyph unicode="&#x417;" d="M186 391q0 33 -10.5 46t-31.5 13q-43 0 -43 -51v-42h-74v38q0 63 30 96t89.5 33t90.5 -34t31 -96v-14q0 -83 -57 -106q57 -25 57 -109v-41q0 -62 -31 -96t-90.5 -34t-90.5 34t-31 96v57h77v-62q0 -51 42 -51q14 0 23 5t14 18t5 36v40q0 36 -12.5 51t-40.5 15h-20v74h25 q24 0 36 12.5t12 42.5v29z" />
<glyph unicode="&#x418;" horiz-adv-x="315" d="M113 0h-83v518h72v-328l30 114l66 214h90v-518h-73v365l-34 -127z" />
<glyph unicode="&#x419;" horiz-adv-x="317" d="M197 633h49q0 -25 -9.5 -43t-29 -28.5t-47.5 -10.5q-42 0 -63 22t-22 60h50q2 -19 10 -26.5t25 -7.5q18 0 26.5 7.5t10.5 26.5zM181 238l34 127v-365h73v518h-90l-66 -214l-30 -114v328h-72v-518h83z" />
<glyph unicode="&#x41a;" horiz-adv-x="306" d="M136 206l-25 -47v-159h-81v518h81v-226l107 226h81l-113 -231l113 -287h-84z" />
<glyph unicode="&#x41b;" horiz-adv-x="333" d="M7 73q29 0 39 9.5t11 44.5l13 391h230v-518h-82v444h-71l-9 -313q-3 -71 -30.5 -101.5t-88.5 -30.5h-12v74z" />
<glyph unicode="&#x41c;" horiz-adv-x="400" d="M202 150l56 368h113v-518h-77v371l-56 -371h-77l-61 366v-366h-71v518h113z" />
<glyph unicode="&#x41d;" horiz-adv-x="315" d="M111 0h-81v518h81v-222h93v222h82v-518h-82v222h-93v-222z" />
<glyph unicode="&#x41e;" d="M23 394q0 62 32 96t91.5 34t91.5 -34t32 -96v-270q0 -62 -32 -96t-91.5 -34t-91.5 34t-32 96v270zM104 119q0 -51 42.5 -51t42.5 51v280q0 51 -42.5 51t-42.5 -51v-280z" />
<glyph unicode="&#x41f;" horiz-adv-x="315" d="M111 0h-81v518h256v-518h-82v444h-93v-444z" />
<glyph unicode="&#x420;" horiz-adv-x="278" d="M149 518q122 0 122 -128v-67q0 -128 -122 -128h-38v-195h-81v518h119zM111 444v-175h38q21 0 30.5 11t9.5 37v78q0 14 -2.5 23.5t-7.5 15t-12 8t-18 2.5h-38z" />
<glyph unicode="&#x421;" horiz-adv-x="285" d="M266 193v-69q0 -62 -31 -96t-91 -34q-39 0 -66.5 15.5t-41 44.5t-13.5 70v270q0 62 31 96t90.5 34t90.5 -34t31 -96v-51h-77v56q0 51 -42.5 51t-42.5 -51v-280q0 -50 42.5 -50t42.5 50v74h77z" />
<glyph unicode="&#x422;" horiz-adv-x="263" d="M6 518h252v-74h-86v-444h-81v444h-85v74z" />
<glyph unicode="&#x423;" horiz-adv-x="301" d="M210 132q-10 -51 -26 -79t-49.5 -42.5t-88.5 -11.5v73q33 -3 50 6t22 36v4l-112 400h81l44 -177l25 -121l19 120l37 178h85z" />
<glyph unicode="&#x424;" horiz-adv-x="431" d="M175 58h-31q-121 0 -121 128v142q0 128 121 128h31v62h80v-62h30q121 0 121 -128v-142q0 -128 -121 -128h-30v-58h-80v58zM175 384h-31q-40 0 -40 -51v-152q0 -51 40 -51h31v254zM255 384v-254h30q41 0 41 51v152q0 51 -41 51h-30z" />
<glyph unicode="&#x425;" horiz-adv-x="318" d="M301 518l-85 -252l91 -266h-86l-66 205l-68 -205h-76l91 266l-85 252h84l62 -191l63 191h75z" />
<glyph unicode="&#x426;" horiz-adv-x="336" d="M30 518h81v-444h93v444h82v-445h36v-143h-79v70h-213v518z" />
<glyph unicode="&#x427;" horiz-adv-x="307" d="M277 518v-518h-82v209q-26 -29 -69 -29q-49 0 -75.5 32t-26.5 87v219h82v-212q0 -25 13.5 -38t33.5 -13t31 13.5t11 39.5v210h82z" />
<glyph unicode="&#x428;" horiz-adv-x="444" d="M30 0v518h81v-444h70v444h82v-444h70v444h81v-518h-384z" />
<glyph unicode="&#x429;" horiz-adv-x="465" d="M414 73h37v-143h-80v70h-341v518h81v-444h70v444h82v-444h70v444h81v-445z" />
<glyph unicode="&#x42a;" horiz-adv-x="324" d="M6 518h140v-195h38q122 0 122 -128v-67q0 -128 -122 -128h-120v444h-58v74zM184 74q21 0 30.5 11t9.5 38v78q0 26 -9.5 37t-30.5 11h-38v-175h38z" />
<glyph unicode="&#x42b;" horiz-adv-x="428" d="M30 0v518h81v-195h38q122 0 122 -128v-67q0 -128 -122 -128h-119zM317 0v518h82v-518h-82zM149 74q21 0 30.5 11t9.5 38v78q0 26 -9.5 37t-30.5 11h-38v-175h38z" />
<glyph unicode="&#x42c;" horiz-adv-x="290" d="M30 0v518h81v-195h38q122 0 122 -128v-67q0 -128 -122 -128h-119zM149 74q21 0 30.5 11t9.5 38v78q0 26 -9.5 37t-30.5 11h-38v-175h38z" />
<glyph unicode="&#x42d;" horiz-adv-x="285" d="M96 186v-67q0 -50 42.5 -50t42.5 50v112h-75v74h75v94q0 51 -42.5 51t-42.5 -51v-49h-75v44q0 63 30 96.5t89.5 33.5t90.5 -34t31 -96v-270q0 -62 -31 -96t-90.5 -34t-90.5 34t-31 96v62h77z" />
<glyph unicode="&#x42e;" horiz-adv-x="443" d="M172 222h-61v-222h-81v518h81v-222h61v98q0 62 32 96t91.5 34t91.5 -34t32 -96v-270q0 -62 -32 -96t-91.5 -34t-91.5 34t-32 96v98zM253 119q0 -51 42 -51t42 51v280q0 51 -42 51t-42 -51v-280z" />
<glyph unicode="&#x42f;" horiz-adv-x="297" d="M15 0q9 21 9 63v80q0 87 54 110q-54 25 -54 105v41q0 60 29 89.5t92 29.5h123v-518h-82v211h-28q-28 0 -40.5 -15t-12.5 -51v-81q0 -42 -7 -64h-83zM147 444q-21 0 -31 -13t-10 -40v-51q0 -16 3 -26.5t9.5 -17t15.5 -9t21 -2.5h31v159h-39z" />
<glyph unicode="&#x430;" horiz-adv-x="301" d="M293 0h-82l-14 94h-100l-14 -94h-75l83 518h119zM107 164h79l-39 262z" />
<glyph unicode="&#x431;" horiz-adv-x="307" d="M30 0v518h228v-74h-146v-132h47q61 0 92 -33t31 -95v-56q0 -63 -31 -95.5t-92 -32.5h-129zM159 74q21 0 31.5 11t10.5 38v66q0 26 -10.5 37.5t-31.5 11.5h-47v-164h47z" />
<glyph unicode="&#x432;" horiz-adv-x="300" d="M152 518q63 0 92 -29.5t29 -89.5v-19q0 -79 -52 -104q60 -24 60 -111v-42q0 -60 -31.5 -91.5t-91.5 -31.5h-128v518h122zM111 444v-137h32q16 0 26.5 5t16.5 17.5t6 32.5v29q0 27 -10 40t-32 13h-39zM111 233v-159h47q21 0 31.5 11.5t10.5 39.5v45q0 36 -12 49.5 t-41 13.5h-36z" />
<glyph unicode="&#x433;" horiz-adv-x="270" d="M30 0v518h215v-74h-133v-444h-82z" />
<glyph unicode="&#x434;" horiz-adv-x="361" d="M265 -70v70h-174v-70h-79v143h32q17 22 20 67l18 378h228v-445h36v-143h-81zM144 141q-3 -49 -23 -68h106v371h-69z" />
<glyph unicode="&#x435;" horiz-adv-x="272" d="M111 300h112v-74h-112v-152h141v-74h-222v518h222v-74h-141v-144z" />
<glyph unicode="&#x436;" horiz-adv-x="446" d="M264 309l96 209h82l-100 -210l100 -308h-84l-74 229l-20 -39v-190h-80v190l-20 40l-74 -230h-84l101 306l-101 212h81l97 -209v209h80v-209z" />
<glyph unicode="&#x437;" d="M186 391q0 33 -10.5 46t-31.5 13q-43 0 -43 -51v-42h-74v38q0 63 30 96t89.5 33t90.5 -34t31 -96v-14q0 -83 -57 -106q57 -25 57 -109v-41q0 -62 -31 -96t-90.5 -34t-90.5 34t-31 96v57h77v-62q0 -51 42 -51q14 0 23 5t14 18t5 36v40q0 36 -12.5 51t-40.5 15h-20v74h25 q24 0 36 12.5t12 42.5v29z" />
<glyph unicode="&#x438;" horiz-adv-x="315" d="M113 0h-83v518h72v-328l30 114l66 214h90v-518h-73v365l-34 -127z" />
<glyph unicode="&#x439;" horiz-adv-x="317" d="M197 633h49q0 -25 -9.5 -43t-29 -28.5t-47.5 -10.5q-42 0 -63 22t-22 60h50q2 -19 10 -26.5t25 -7.5q18 0 26.5 7.5t10.5 26.5zM181 238l34 127v-365h73v518h-90l-66 -214l-30 -114v328h-72v-518h83z" />
<glyph unicode="&#x43a;" horiz-adv-x="306" d="M136 206l-25 -47v-159h-81v518h81v-226l107 226h81l-113 -231l113 -287h-84z" />
<glyph unicode="&#x43b;" horiz-adv-x="333" d="M7 73q29 0 39 9.5t11 44.5l13 391h230v-518h-82v444h-71l-9 -313q-3 -71 -30.5 -101.5t-88.5 -30.5h-12v74z" />
<glyph unicode="&#x43c;" horiz-adv-x="400" d="M202 150l56 368h113v-518h-77v371l-56 -371h-77l-61 366v-366h-71v518h113z" />
<glyph unicode="&#x43d;" horiz-adv-x="315" d="M111 0h-81v518h81v-222h93v222h82v-518h-82v222h-93v-222z" />
<glyph unicode="&#x43e;" d="M23 394q0 62 32 96t91.5 34t91.5 -34t32 -96v-270q0 -62 -32 -96t-91.5 -34t-91.5 34t-32 96v270zM104 119q0 -51 42.5 -51t42.5 51v280q0 51 -42.5 51t-42.5 -51v-280z" />
<glyph unicode="&#x43f;" horiz-adv-x="315" d="M111 0h-81v518h256v-518h-82v444h-93v-444z" />
<glyph unicode="&#x440;" horiz-adv-x="278" d="M149 518q122 0 122 -128v-67q0 -128 -122 -128h-38v-195h-81v518h119zM111 444v-175h38q21 0 30.5 11t9.5 37v78q0 14 -2.5 23.5t-7.5 15t-12 8t-18 2.5h-38z" />
<glyph unicode="&#x441;" horiz-adv-x="285" d="M266 193v-69q0 -62 -31 -96t-91 -34q-39 0 -66.5 15.5t-41 44.5t-13.5 70v270q0 62 31 96t90.5 34t90.5 -34t31 -96v-51h-77v56q0 51 -42.5 51t-42.5 -51v-280q0 -50 42.5 -50t42.5 50v74h77z" />
<glyph unicode="&#x442;" horiz-adv-x="263" d="M6 518h252v-74h-86v-444h-81v444h-85v74z" />
<glyph unicode="&#x443;" horiz-adv-x="301" d="M210 132q-10 -51 -26 -79t-49.5 -42.5t-88.5 -11.5v73q33 -3 50 6t22 36v4l-112 400h81l44 -177l25 -121l19 120l37 178h85z" />
<glyph unicode="&#x444;" horiz-adv-x="431" d="M175 58h-31q-121 0 -121 128v142q0 128 121 128h31v62h80v-62h30q121 0 121 -128v-142q0 -128 -121 -128h-30v-58h-80v58zM175 384h-31q-40 0 -40 -51v-152q0 -51 40 -51h31v254zM255 384v-254h30q41 0 41 51v152q0 51 -41 51h-30z" />
<glyph unicode="&#x445;" horiz-adv-x="318" d="M301 518l-85 -252l91 -266h-86l-66 205l-68 -205h-76l91 266l-85 252h84l62 -191l63 191h75z" />
<glyph unicode="&#x446;" horiz-adv-x="336" d="M30 518h81v-444h93v444h82v-445h36v-143h-79v70h-213v518z" />
<glyph unicode="&#x447;" horiz-adv-x="307" d="M277 518v-518h-82v209q-26 -29 -69 -29q-49 0 -75.5 32t-26.5 87v219h82v-212q0 -25 13.5 -38t33.5 -13t31 13.5t11 39.5v210h82z" />
<glyph unicode="&#x448;" horiz-adv-x="444" d="M30 0v518h81v-444h70v444h82v-444h70v444h81v-518h-384z" />
<glyph unicode="&#x449;" horiz-adv-x="465" d="M414 73h37v-143h-80v70h-341v518h81v-444h70v444h82v-444h70v444h81v-445z" />
<glyph unicode="&#x44a;" horiz-adv-x="324" d="M6 518h140v-195h38q122 0 122 -128v-67q0 -128 -122 -128h-120v444h-58v74zM184 74q21 0 30.5 11t9.5 38v78q0 26 -9.5 37t-30.5 11h-38v-175h38z" />
<glyph unicode="&#x44b;" horiz-adv-x="428" d="M30 0v518h81v-195h38q122 0 122 -128v-67q0 -128 -122 -128h-119zM317 0v518h82v-518h-82zM149 74q21 0 30.5 11t9.5 38v78q0 26 -9.5 37t-30.5 11h-38v-175h38z" />
<glyph unicode="&#x44c;" horiz-adv-x="290" d="M30 0v518h81v-195h38q122 0 122 -128v-67q0 -128 -122 -128h-119zM149 74q21 0 30.5 11t9.5 38v78q0 26 -9.5 37t-30.5 11h-38v-175h38z" />
<glyph unicode="&#x44d;" horiz-adv-x="285" d="M96 186v-67q0 -50 42.5 -50t42.5 50v112h-75v74h75v94q0 51 -42.5 51t-42.5 -51v-49h-75v44q0 63 30 96.5t89.5 33.5t90.5 -34t31 -96v-270q0 -62 -31 -96t-90.5 -34t-90.5 34t-31 96v62h77z" />
<glyph unicode="&#x44e;" horiz-adv-x="443" d="M172 222h-61v-222h-81v518h81v-222h61v98q0 62 32 96t91.5 34t91.5 -34t32 -96v-270q0 -62 -32 -96t-91.5 -34t-91.5 34t-32 96v98zM253 119q0 -51 42 -51t42 51v280q0 51 -42 51t-42 -51v-280z" />
<glyph unicode="&#x44f;" horiz-adv-x="297" d="M15 0q9 21 9 63v80q0 87 54 110q-54 25 -54 105v41q0 60 29 89.5t92 29.5h123v-518h-82v211h-28q-28 0 -40.5 -15t-12.5 -51v-81q0 -42 -7 -64h-83zM147 444q-21 0 -31 -13t-10 -40v-51q0 -16 3 -26.5t9.5 -17t15.5 -9t21 -2.5h31v159h-39z" />
<glyph unicode="&#x451;" horiz-adv-x="272" d="M119 616v-71h-71v71h71zM232 616v-71h-71v71h71zM111 300h112v-74h-112v-152h141v-74h-222v518h222v-74h-141v-144z" />
<glyph unicode="&#x2000;" horiz-adv-x="333" />
<glyph unicode="&#x2001;" horiz-adv-x="666" />
<glyph unicode="&#x2002;" horiz-adv-x="333" />
<glyph unicode="&#x2003;" horiz-adv-x="666" />
<glyph unicode="&#x2004;" horiz-adv-x="222" />
<glyph unicode="&#x2005;" horiz-adv-x="166" />
<glyph unicode="&#x2006;" horiz-adv-x="111" />
<glyph unicode="&#x2007;" horiz-adv-x="111" />
<glyph unicode="&#x2008;" horiz-adv-x="83" />
<glyph unicode="&#x2009;" horiz-adv-x="133" />
<glyph unicode="&#x200a;" horiz-adv-x="37" />
<glyph unicode="&#x2010;" horiz-adv-x="199" d="M26 296h148v-74h-148v74z" />
<glyph unicode="&#x2011;" horiz-adv-x="199" d="M26 296h148v-74h-148v74z" />
<glyph unicode="&#x2012;" horiz-adv-x="199" d="M26 296h148v-74h-148v74z" />
<glyph unicode="&#x2013;" horiz-adv-x="370" d="M0 292h370v-66h-370v66z" />
<glyph unicode="&#x2014;" horiz-adv-x="740" d="M0 292h740v-66h-740v66z" />
<glyph unicode="&#x2018;" horiz-adv-x="137" d="M108 444v-78h-78v70l35 82h33l-21 -74h31z" />
<glyph unicode="&#x2019;" horiz-adv-x="137" d="M30 440v78h78v-70l-35 -82h-34l22 74h-31z" />
<glyph unicode="&#x201a;" horiz-adv-x="137" d="M30 0v78h78v-70l-35 -82h-34l22 74h-31z" />
<glyph unicode="&#x201c;" horiz-adv-x="245" d="M108 444v-78h-78v70l35 82h33l-21 -74h31zM216 444v-78h-78v70l35 82h33l-21 -74h31z" />
<glyph unicode="&#x201d;" horiz-adv-x="245" d="M30 440v78h78v-70l-35 -82h-34l22 74h-31zM138 440v78h78v-70l-35 -82h-34l22 74h-31z" />
<glyph unicode="&#x201e;" horiz-adv-x="245" d="M30 0v78h78v-70l-35 -82h-34l22 74h-31zM138 0v78h78v-70l-35 -82h-34l22 74h-31z" />
<glyph unicode="&#x2022;" d="M44 259q0 43 30 73t72.5 30t72.5 -30t30 -73t-30 -73t-72.5 -30t-72.5 30t-30 73z" />
<glyph unicode="&#x2026;" horiz-adv-x="353" d="M108 78v-78h-78v78h78zM216 78v-78h-78v78h78zM324 78v-78h-78v78h78z" />
<glyph unicode="&#x202f;" horiz-adv-x="133" />
<glyph unicode="&#x2039;" horiz-adv-x="145" d="M133 457l-43 -197l43 -209h-77l-44 209l44 197h77z" />
<glyph unicode="&#x203a;" horiz-adv-x="145" d="M89 457l44 -197l-44 -209h-77l44 209l-44 197h77z" />
<glyph unicode="&#x205f;" horiz-adv-x="166" />
<glyph unicode="&#x20ac;" d="M14 322h21v72q0 63 30 96.5t89 33.5t89 -33.5t30 -96.5v-38h-77v43q0 51 -40 51t-40 -51v-77h114v-41h-114v-41h114v-40h-114v-81q0 -50 40 -50t40 50v47h77v-42q0 -63 -30 -96.5t-89 -33.5t-89 33.5t-30 96.5v76h-21v40h21v41h-21v41z" />
<glyph unicode="&#x2122;" horiz-adv-x="433" d="M7 518h160v-47h-54v-216h-52v216h-54v47zM309 333l34 185h72v-263h-49v187l-34 -187h-49l-40 185v-185h-45v263h72z" />
<glyph unicode="&#x25fc;" horiz-adv-x="518" d="M0 518h518v-518h-518v518z" />
</font>
</defs>
</svg>
