<?xml version="1.0" standalone="no"?>
<!DOCTYPE svg PUBLIC "-//W3C//DTD SVG 1.1//EN" "http://www.w3.org/Graphics/SVG/1.1/DTD/svg11.dtd" >
<svg xmlns="http://www.w3.org/2000/svg" xmlns:xlink="http://www.w3.org/1999/xlink" version="1.1">
<metadata></metadata>
<defs>
<font id="museo_sans_cyrl700" horiz-adv-x="624" >
<font-face units-per-em="1000" ascent="750" descent="-250" />
<missing-glyph horiz-adv-x="255" />
<glyph horiz-adv-x="0" />
<glyph horiz-adv-x="333" />
<glyph unicode=" "  horiz-adv-x="255" />
<glyph unicode="&#x09;" horiz-adv-x="255" />
<glyph unicode="&#xa0;" horiz-adv-x="255" />
<glyph unicode="!" horiz-adv-x="293" d="M90 209l-10 515h133l-10 -515h-113zM84 0v121h125v-121h-125z" />
<glyph unicode="&#x22;" horiz-adv-x="400" d="M235 524v213h95v-213h-95zM70 524v213h97v-213h-97z" />
<glyph unicode="#" horiz-adv-x="729" d="M129 0l32 191h-121l16 93h121l26 142h-120l15 94h120l36 204h104l-36 -204h139l36 204h104l-36 -204h123l-16 -94h-122l-26 -142h122l-16 -93h-121l-34 -191h-104l34 191h-140l-32 -191h-104zM282 284h138l26 142h-140z" />
<glyph unicode="$" horiz-adv-x="597" d="M54 87l70 99q35 -33 84.5 -55t96.5 -22q44 0 75 23t31 65q0 24 -19 44.5t-49.5 36t-67 31t-73.5 35t-67.5 43t-49.5 59.5t-19 80q0 79 53.5 135t138.5 70v96h87v-94q106 -8 179 -74l-57 -107q-31 27 -74.5 45t-84.5 18q-46 0 -78 -24.5t-32 -62.5q0 -24 19 -44 t49.5 -34.5t67 -29t73.5 -33.5t67.5 -43t49.5 -61t19 -83q0 -80 -53 -138.5t-145 -70.5v-94h-87v94q-57 6 -111.5 31t-92.5 65z" />
<glyph unicode="%" horiz-adv-x="816" d="M210 414q-69 0 -117.5 47t-48.5 114q0 66 48.5 113.5t117.5 47.5q45 0 83.5 -21.5t61 -59t22.5 -80.5q0 -67 -49 -114t-118 -47zM69 0l556 724h120l-556 -724h-120zM210.5 508q28.5 0 48 19.5t19.5 47.5t-20 48t-48 20t-47.5 -20t-19.5 -48t19.5 -47.5t48 -19.5zM440 148 q0 43 22 80t60 59t84 22q69 0 117.5 -47.5t48.5 -113.5q0 -67 -48.5 -113.5t-117.5 -46.5q-70 0 -118 46.5t-48 113.5zM539 149q0 -28 19.5 -47.5t47.5 -19.5t48 19.5t20 47.5t-20 47.5t-48 19.5t-47.5 -19.5t-19.5 -47.5z" />
<glyph unicode="&#x26;" horiz-adv-x="697" d="M52 205q0 60 33.5 110.5t88.5 70.5v2q-41 19 -66 60.5t-25 97.5q0 92 65 141t164 49q41 0 95 -12l-32 -104q-21 6 -48 6q-31 0 -56 -10.5t-40 -33t-15 -53.5q0 -38 25.5 -66.5t83.5 -28.5h117v93h129v-93h94v-115h-94v-85q0 -113 -69.5 -179.5t-191.5 -66.5 q-115 0 -186.5 62t-71.5 155zM187 213q0 -29 15 -53t43.5 -38t64.5 -14q63 0 97.5 34t34.5 99v78h-123q-62 0 -97 -27t-35 -79z" />
<glyph unicode="'" horiz-adv-x="239" d="M70 524v213h98v-213h-98z" />
<glyph unicode="(" horiz-adv-x="314" d="M170 -97q-121 199 -121 447q0 214 121 406h109q-115 -194 -115 -407q0 -231 115 -446h-109z" />
<glyph unicode=")" horiz-adv-x="314" d="M35 -97q115 215 115 446q0 213 -115 407h109q121 -192 121 -406q0 -248 -121 -447h-109z" />
<glyph unicode="*" horiz-adv-x="504" d="M182 327l-94 68l85 102v2l-128 31l35 111l123 -50l-9 133h117l-10 -133l124 50l36 -110l-129 -32v-2l85 -101l-94 -69l-70 113h-2z" />
<glyph unicode="+" horiz-adv-x="597" d="M26 241v101h221v241h105v-241h220v-101h-220v-241h-105v241h-221z" />
<glyph unicode="," horiz-adv-x="287" d="M26 -107l69 239h128l-99 -239h-98z" />
<glyph unicode="-" horiz-adv-x="440" d="M67 235v113h306v-113h-306z" />
<glyph unicode="." horiz-adv-x="264" d="M67 0v131h130v-131h-130z" />
<glyph unicode="/" horiz-adv-x="438" d="M34 -43l260 804h111l-260 -804h-111z" />
<glyph unicode="0" horiz-adv-x="640" d="M320 -12q-58 0 -103 19t-75 52.5t-49 81.5t-27.5 102.5t-8.5 119.5t8.5 119t27.5 102t49 81t75 52t103 19q49 0 88.5 -13t68 -37.5t49 -57.5t33 -75.5t18 -89t5.5 -100.5q0 -65 -8 -119t-27 -102.5t-48.5 -82t-75 -52.5t-103.5 -19zM320.5 108q127.5 0 127.5 255 q0 252 -127.5 252t-127.5 -252q0 -255 127.5 -255z" />
<glyph unicode="1" horiz-adv-x="527" d="M57 0v113h158v402l1 49h-2q-9 -17 -32 -41l-59 -55l-77 82l181 174h116v-611h157v-113h-443z" />
<glyph unicode="2" horiz-adv-x="594" d="M59 0q-6 35 -6 64q0 53 18.5 99t48.5 79t66 62t72.5 53.5t66 47.5t48.5 50t19 56q0 31 -15 54t-40 35t-55 12q-27 0 -52.5 -12t-45 -31t-33.5 -43l-98 66q22 40 54.5 71.5t81 52t104.5 20.5q99 0 167 -57.5t68 -156.5q0 -47 -17.5 -88t-46.5 -71t-63.5 -56t-70 -49 t-64.5 -44.5t-48 -47t-20 -53.5h342v-113h-481z" />
<glyph unicode="3" horiz-adv-x="584" d="M39 85l67 101q31 -32 75 -53t90 -21q56 0 93 31t37 77q0 55 -43.5 84t-111.5 29h-50l-29 67l133 157q12 15 25 28.5t20 20.5l7 6v2q-23 -3 -64 -3h-217v113h442v-82l-176 -205q81 -12 138.5 -67.5t57.5 -144.5q0 -97 -69 -167t-186 -70q-66 0 -129.5 25t-109.5 72z" />
<glyph unicode="4" horiz-adv-x="631" d="M31 187v80l313 457h155v-428h94v-109h-94v-187h-130v187h-338zM169 296h200v224q0 16 1.5 35t2.5 30l1 11h-2q-16 -39 -35 -67l-168 -231v-2z" />
<glyph unicode="5" horiz-adv-x="581" d="M45 86l68 99q28 -31 68 -52t86 -21q56 0 96 34t40 90t-41 90.5t-104 34.5q-61 0 -112 -31l-74 27l34 367h382v-113h-268l-11 -119l-5 -34h2q11 6 35 11t43 5q116 0 185.5 -68t69.5 -169q0 -107 -74.5 -178t-187.5 -71q-66 0 -127.5 25t-104.5 73z" />
<glyph unicode="6" horiz-adv-x="616" d="M53 330q0 49 9.5 97t27 93.5t46 84.5t64.5 68.5t84 46t103 16.5q84 0 149 -30l-39 -113q-10 5 -28 10.5t-38 8.5t-37 3q-80 0 -129 -56t-63 -138h2q9 11 24 20.5t33.5 16.5t38.5 10.5t40 3.5q104 0 167.5 -70.5t63.5 -171.5q0 -67 -29 -122t-84 -87.5t-124 -32.5 q-57 0 -108 23t-89.5 66t-61 108.5t-22.5 144.5zM335 108q48 0 77.5 35t29.5 87q0 58 -35 96t-98 38q-49 0 -84 -21.5t-35 -59.5q0 -64 42.5 -119.5t102.5 -55.5z" />
<glyph unicode="7" horiz-adv-x="557" d="M83 0l271 545q10 20 20.5 36.5t16.5 22.5l5 7v2q-12 -2 -48 -2h-309v113h498v-92l-318 -632h-136z" />
<glyph unicode="8" horiz-adv-x="622" d="M51 209q0 24 6 47.5t16.5 42t21.5 34.5t25 29t23 20.5t18 14.5q-75 58 -75 141t60 140.5t172 57.5q103 0 169 -54t66 -145q0 -38 -17.5 -79.5t-32.5 -63t-31 -38.5q93 -59 93 -153q0 -88 -69.5 -151.5t-186.5 -63.5q-76 0 -135.5 29.5t-91 80t-31.5 111.5zM374 405 q50 61 50 121q0 43 -30 68t-79 25q-47 0 -73.5 -23.5t-26.5 -59.5q0 -12 2.5 -22t9 -19t11.5 -16t17.5 -15t19 -12.5t23.5 -12.5t23.5 -11t27 -12t25.5 -11zM186 219q0 -32 17 -59t45 -41.5t61 -14.5q52 0 87 29t35 75q0 16 -7.5 30.5t-18 24.5t-31 21.5t-35.5 18.5 t-42.5 19.5t-42.5 19.5q-68 -58 -68 -123z" />
<glyph unicode="9" horiz-adv-x="616" d="M81 18l38 114q49 -24 102 -24q80 0 129 55.5t64 138.5h-2q-9 -11 -24 -20.5t-33 -16t-38.5 -10.5t-40.5 -4q-104 0 -168 70.5t-64 172.5t66.5 172t172.5 70q56 0 106.5 -23t89 -66t61 -109t22.5 -145q0 -58 -13 -115t-40 -109.5t-65.5 -92.5t-94 -64t-121.5 -24 q-85 0 -147 30zM307 359q32 0 59.5 10.5t43.5 28.5t16 40q0 68 -43 122.5t-99 54.5q-34 0 -59 -16t-38 -43.5t-13 -61.5q0 -38 15 -68t45.5 -48.5t72.5 -18.5z" />
<glyph unicode=":" horiz-adv-x="263" d="M67 391v129h129v-129h-129zM67 0v130h129v-130h-129z" />
<glyph unicode=";" horiz-adv-x="300" d="M102 391v129h125v-129h-125zM40 -107l59 239h128l-88 -239h-99z" />
<glyph unicode="&#x3c;" horiz-adv-x="597" d="M40 250v84l490 218v-113l-354 -146v-2l354 -146v-113z" />
<glyph unicode="=" horiz-adv-x="597" d="M50 346v100h498v-100h-498zM50 137v100h498v-100h-498z" />
<glyph unicode="&#x3e;" horiz-adv-x="597" d="M66 32v113l354 146v2l-354 146v113l491 -218v-84z" />
<glyph unicode="?" horiz-adv-x="492" d="M148 209v49q0 41 17 74.5t42 56t49.5 43.5t41.5 47t17 55q0 36 -28.5 60.5t-70.5 24.5q-56 0 -108 -43l-72 89q33 32 83 52.5t108 20.5q91 0 157.5 -52.5t66.5 -138.5q0 -40 -13.5 -73t-33 -54.5t-43 -43.5t-43 -38.5t-33 -40t-13.5 -48.5v-40h-124zM147 0v121h125v-121 h-125z" />
<glyph unicode="@" horiz-adv-x="831" d="M53 245q0 104 50.5 191.5t138.5 138t195 50.5q75 0 131 -18t87.5 -49.5t46.5 -70t15 -84.5v-255h75v-93h-283q-99 0 -159 56t-60 134q0 36 14.5 69.5t42 59.5t69.5 41.5t93 15.5h87q-1 40 -44.5 65t-110.5 25q-72 0 -132.5 -38.5t-94 -102t-33.5 -135.5q0 -115 76 -194.5 t201 -79.5v-101q-90 0 -166 29.5t-128 79.5t-81.5 119t-29.5 147zM419 248q0 -21 7 -39t19.5 -31.5t31 -21.5t40.5 -8h79v200h-77q-44 0 -72 -29t-28 -71z" />
<glyph unicode="A" horiz-adv-x="663" d="M8 0l254 724h139l254 -724h-135l-62 186h-254l-61 -186h-135zM237 293h188l-64 194l-28 112h-3q-16 -72 -28 -112z" />
<glyph unicode="B" horiz-adv-x="645" d="M88 0v724h258q101 0 162.5 -49.5t61.5 -136.5q0 -51 -23 -92t-65 -64v-2q57 -16 87.5 -63.5t30.5 -106.5q0 -69 -35.5 -118t-90.5 -70.5t-124 -21.5h-262zM219 428h128q41 0 65.5 26.5t24.5 67t-24 65t-68 24.5h-126v-183zM219 113h141q49 0 77 29t28 76q0 46 -28 75 t-77 29h-141v-209z" />
<glyph unicode="C" horiz-adv-x="730" d="M46 365q0 104 47 189t132.5 133.5t192.5 48.5q75 0 146 -24.5t121 -73.5l-63 -98q-39 34 -92.5 55t-105.5 21q-114 0 -178 -71.5t-64 -177.5q0 -69 27.5 -127t84 -95t131.5 -37q38 0 76.5 12t72.5 32.5t61 47.5l70 -95q-116 -117 -285 -117q-111 0 -197 50t-131.5 135.5 t-45.5 191.5z" />
<glyph unicode="D" horiz-adv-x="751" d="M88 0v724h247q169 0 269 -95.5t100 -265.5t-100 -266.5t-269 -96.5h-247zM219 113h108q112 0 176.5 65t64.5 185q0 119 -65 183.5t-176 64.5h-108v-498z" />
<glyph unicode="E" horiz-adv-x="579" d="M88 0v724h433v-113h-302v-190h244v-113h-244v-195h319v-113h-450z" />
<glyph unicode="F" horiz-adv-x="533" d="M88 0v724h416v-113h-285v-205h240v-113h-240v-293h-131z" />
<glyph unicode="G" horiz-adv-x="781" d="M46 363q0 78 28.5 147t77.5 119t118.5 78.5t148.5 28.5q75 0 145.5 -22.5t123.5 -68.5l-65 -98q-34 30 -88 49.5t-105 19.5q-116 0 -182 -71.5t-66 -177.5q0 -76 32 -135.5t87.5 -91.5t122.5 -32q33 0 66.5 9.5t62.5 26t53 40.5v84h-111v113h229v-381h-112v35l1 30h-2 q-36 -35 -92.5 -56t-117.5 -21q-71 0 -136 27t-113.5 75t-77 119t-28.5 154z" />
<glyph unicode="H" horiz-adv-x="769" d="M88 0v724h131v-307h332v307h130v-724h-130v304h-332v-304h-131z" />
<glyph unicode="I" horiz-adv-x="307" d="M88 0v724h131v-724h-131z" />
<glyph unicode="J" horiz-adv-x="556" d="M24 214v42h131v-34q0 -49 23.5 -81.5t71.5 -32.5q41 0 68 26.5t27 81.5v395h-188v113h318v-510q0 -57 -19 -101.5t-51.5 -71t-72 -40t-82.5 -13.5t-82.5 13.5t-72 40.5t-52 71.5t-19.5 100.5z" />
<glyph unicode="K" horiz-adv-x="650" d="M88 0v724h131v-295h94l170 295h143l-205 -345v-2l218 -377h-149l-177 316h-94v-316h-131z" />
<glyph unicode="L" horiz-adv-x="546" d="M88 0v724h131v-611h313v-113h-444z" />
<glyph unicode="M" horiz-adv-x="877" d="M60 0l59 724h140l143 -358l36 -106h2q19 63 35 106l143 358h140l59 -724h-132l-29 405q-2 21 -2 49v46l1 17h-2q-24 -70 -40 -112l-117 -281h-115l-117 281l-40 113h-2q3 -65 -1 -113l-29 -405h-132z" />
<glyph unicode="N" horiz-adv-x="768" d="M88 0v724h131l275 -418q7 -12 16 -28t16.5 -30t14 -26.5t9.5 -20.5l4 -7h2q-7 69 -7 112v418h130v-724h-130l-275 417q-12 19 -27 47t-24 47l-9 18h-2q7 -69 7 -112v-417h-131z" />
<glyph unicode="O" horiz-adv-x="838" d="M45 367q0 103 47.5 187t133.5 133t193.5 49t193.5 -49t133.5 -133t47.5 -187q0 -106 -47.5 -192.5t-133.5 -136.5t-193.5 -50t-193.5 50t-133.5 136.5t-47.5 192.5zM181 367q0 -111 67.5 -185t170.5 -74q41 0 78 13t66 36.5t50.5 55t33 71.5t11.5 83q0 106 -67.5 177.5 t-171 71.5t-171 -71.5t-67.5 -177.5z" />
<glyph unicode="P" horiz-adv-x="627" d="M88 0v724h279q102 0 166.5 -65t64.5 -170q0 -106 -64.5 -172.5t-166.5 -66.5h-148v-250h-131zM219 364h124q57 0 89 33.5t32 91.5q0 56 -32 89t-87 33h-126v-247z" />
<glyph unicode="Q" horiz-adv-x="838" d="M45 366q0 103 47.5 187.5t133.5 133.5t193 49q108 0 194 -49t133.5 -133.5t47.5 -187.5q0 -127 -80 -229l82 -74l-76 -83l-79 79q-96 -71 -222 -71q-107 0 -193 50.5t-133.5 136.5t-47.5 191zM181 366q0 -110 68 -184t170 -74q74 0 127 39l-81 75l75 83l78 -79 q40 62 40 140q0 107 -68.5 178.5t-170.5 71.5t-170 -71.5t-68 -178.5z" />
<glyph unicode="R" horiz-adv-x="652" d="M88 0v724h238q92 0 137 -19q57 -24 89.5 -75t32.5 -123q0 -66 -32.5 -120.5t-88.5 -77.5v-2q9 -11 24 -38l148 -269h-147l-143 270h-127v-270h-131zM219 385h119q52 0 83 30.5t31 84.5q0 75 -57 99q-28 12 -80 12h-96v-226z" />
<glyph unicode="S" horiz-adv-x="568" d="M36 87l71 99q36 -32 84 -54.5t96 -22.5t77 23t29 60q0 24 -14.5 44.5t-38.5 34t-54 28t-62 27.5t-62 32t-54 40.5t-38.5 54.5t-14.5 73q0 95 70 152.5t177 57.5q58 0 114 -19.5t98 -57.5l-58 -107q-31 28 -74.5 45.5t-84.5 17.5q-50 0 -80 -22.5t-30 -60.5 q0 -23 14.5 -43t38 -33t54 -27t62 -26t62 -30.5t54 -40.5t38 -55.5t14.5 -74.5q0 -92 -64 -153t-176 -61q-69 0 -134.5 25.5t-113.5 73.5z" />
<glyph unicode="T" horiz-adv-x="634" d="M252 0v611h-238v113h606v-113h-238v-611h-130z" />
<glyph unicode="U" horiz-adv-x="742" d="M80 260v464h131v-463q0 -72 43.5 -112.5t117 -40.5t116.5 40.5t43 112.5v463h132v-464q0 -122 -80 -197t-211 -75t-211.5 75t-80.5 197z" />
<glyph unicode="V" horiz-adv-x="669" d="M266 0l-261 724h142l159 -472q6 -19 13 -45.5t11 -43.5l4 -17h2q14 64 27 106l161 472h140l-261 -724h-137z" />
<glyph unicode="W" horiz-adv-x="975" d="M204 0l-181 724h138l112 -501q4 -18 7.5 -37t4.5 -29l1 -10h2q4 35 15 76l129 501h111l128 -501q3 -11 6 -23.5t4.5 -21.5t2.5 -16t2 -11v-4h2q3 36 12 76l120 501h136l-188 -724h-148l-113 428l-18 95h-3q-8 -48 -20 -95l-112 -428h-150z" />
<glyph unicode="X" horiz-adv-x="634" d="M13 0l225 367l-217 357h150l100 -177l45 -89h2q21 46 45 89l101 177h150l-217 -357l225 -367h-147l-113 195l-45 85h-2q-20 -43 -44 -85l-112 -195h-146z" />
<glyph unicode="Y" horiz-adv-x="618" d="M244 0v303l-242 421h149l113 -213l44 -97h2q22 52 44 97l112 213h149l-241 -421v-303h-130z" />
<glyph unicode="Z" horiz-adv-x="622" d="M37 0v85l321 461q6 8 12 16.5t11 14.5l10 12t8.5 9.5t6 6.5t4.5 5l1 1v2q-20 -2 -54 -2h-304v113h523v-83l-321 -463q-13 -18 -26 -34.5t-20 -23.5l-7 -7v-2q20 2 54 2h325v-113h-544z" />
<glyph unicode="[" horiz-adv-x="327" d="M82 -97v853h201v-94h-91v-665h91v-94h-201z" />
<glyph unicode="\" horiz-adv-x="438" d="M294 -43l-260 804h111l260 -804h-111z" />
<glyph unicode="]" horiz-adv-x="327" d="M45 -3h91v665h-91v94h201v-853h-201v94z" />
<glyph unicode="^" horiz-adv-x="631" d="M66 250l205 474h82l205 -474h-112l-134 338l-134 -338h-112z" />
<glyph unicode="_" horiz-adv-x="617" d="M22 0h573v-100h-573v100z" />
<glyph unicode="`" horiz-adv-x="502" d="M252 772l-106 139h133l78 -139h-105z" />
<glyph unicode="a" horiz-adv-x="547" d="M30 144q0 32 10.5 59t28.5 45.5t43.5 32.5t52 22.5t57.5 14t57 7t54 1.5h22v8q0 48 -27 69.5t-71 21.5q-72 0 -145 -50l-48 93q34 27 91 45.5t113 18.5q102 0 159 -54t57 -153v-325h-120v44l3 38h-2q-24 -43 -68 -68.5t-96 -25.5q-72 0 -121.5 43t-49.5 113zM158 155 q0 -28 21 -48t58 -20q51 0 85 42.5t34 93.5v15h-22q-176 0 -176 -83z" />
<glyph unicode="b" horiz-adv-x="626" d="M69 0v724h130v-225l-3 -44h2q23 35 66 56t91 21q105 0 167.5 -75t62.5 -197t-67 -197t-171 -75q-47 0 -90 21t-67 59h-2q2 -14 2 -34v-34h-121zM195 257q0 -65 34 -112.5t95 -47.5q56 0 93.5 43t37.5 118q0 49 -16.5 86t-45.5 57t-67 20q-55 0 -93 -41.5t-38 -122.5z" />
<glyph unicode="c" horiz-adv-x="558" d="M38 260q0 114 78 193t204 79q57 0 111 -19.5t89 -57.5l-58 -89q-25 25 -61 40.5t-74 15.5q-46 0 -82.5 -21.5t-56 -58t-19.5 -81.5q0 -44 19.5 -81t57 -59.5t86.5 -22.5q40 0 81 18.5t71 47.5l50 -92q-36 -39 -93.5 -61.5t-120.5 -22.5q-84 0 -149 36.5t-99 98t-34 137.5 z" />
<glyph unicode="d" horiz-adv-x="626" d="M40 260q0 123 65.5 197.5t169.5 74.5q30 0 58 -7t53 -22.5t41 -38.5h2q-2 13 -2 31v229h129v-724h-121v45l2 33h-2q-24 -41 -67 -65.5t-98 -24.5q-104 0 -167 75.5t-63 196.5zM170 260q0 -74 36 -118.5t94 -44.5q55 0 92.5 41.5t37.5 122.5q0 66 -33.5 113t-95.5 47 q-55 0 -93 -43t-38 -118z" />
<glyph unicode="e" horiz-adv-x="572" d="M38 260q0 120 74 196t191 76q108 0 169 -69.5t61 -176.5q0 -18 -4 -50h-358q6 -66 50 -102t106 -36q78 0 149 57l51 -93q-39 -35 -95.5 -54.5t-113.5 -19.5q-126 0 -203 79t-77 193zM174 324h230q0 26 -8.5 47t-22.5 34.5t-32.5 21.5t-40.5 8q-33 0 -59.5 -14t-43 -39 t-23.5 -58z" />
<glyph unicode="f" horiz-adv-x="363" d="M99 0v410h-64v103h64v23q0 40 10.5 72.5t29 53t39.5 34.5t47 20.5t46 9t41 2.5q29 0 44 -3v-110q-8 2 -27 2q-101 0 -101 -85v-19h113v-103h-113v-410h-129z" />
<glyph unicode="g" horiz-adv-x="618" d="M129 -70q69 -34 143 -34q66 0 106.5 30.5t40.5 95.5v33l2 28h-2q-48 -73 -146 -73q-107 0 -169.5 76t-62.5 187.5t60.5 185t168.5 73.5q47 0 89 -17t66 -51h3q-2 6 -2 14v42h123v-488q0 -65 -23.5 -114t-63.5 -77t-87 -41.5t-101 -13.5q-99 0 -185 45zM171 277 q0 -70 34.5 -114t96.5 -44q52 0 86 36t34 117q0 150 -128 150q-29 0 -52.5 -10t-38.5 -29t-23.5 -46t-8.5 -60z" />
<glyph unicode="h" d="M69 0v724h130v-253l-3 -44h2q21 43 69.5 74t110.5 31q182 0 182 -197v-335h-130v308q0 52 -17.5 79t-63.5 27q-67 0 -108.5 -48.5t-41.5 -123.5v-242h-130z" />
<glyph unicode="i" horiz-adv-x="268" d="M69 609v115h130v-115h-130zM69 0v520h130v-520h-130z" />
<glyph unicode="j" horiz-adv-x="268" d="M69 609v115h130v-115h-130zM69 -5v525h130v-535q0 -50 -16 -87.5t-39.5 -57.5t-55 -32t-56.5 -15.5t-50 -3.5q-19 0 -39 3v109q12 -2 22 -2q17 0 32.5 3.5t33 12.5t28 29.5t10.5 50.5z" />
<glyph unicode="k" horiz-adv-x="559" d="M69 0v724h130v-387h64l126 183h143l-164 -232v-2l185 -286h-149l-138 227h-67v-227h-130z" />
<glyph unicode="l" horiz-adv-x="294" d="M69 162v562h129v-542q0 -41 13 -56.5t40 -15.5q12 0 19 1v-113q-27 -3 -40 -3q-25 0 -45 3t-42.5 13t-37.5 27.5t-25.5 49t-10.5 74.5z" />
<glyph unicode="m" horiz-adv-x="930" d="M69 0v520h125v-61l-2 -37h2q21 43 67 76.5t103 33.5q119 0 151 -107h2q23 44 71.5 75.5t106.5 31.5q170 0 170 -197v-335h-129v310q0 50 -15 77t-56 27q-63 0 -98 -53.5t-35 -126.5v-234h-129v310q0 50 -14.5 77t-55.5 27q-44 0 -75 -27.5t-45 -67.5t-14 -85v-234h-130z " />
<glyph unicode="n" d="M69 0v520h125v-61l-2 -37h2q20 42 67 76t117 34q182 0 182 -197v-335h-130v308q0 52 -17.5 79t-63.5 27q-67 0 -108.5 -49t-41.5 -121v-244h-130z" />
<glyph unicode="o" horiz-adv-x="646" d="M38 260q0 118 82.5 195t201.5 77q121 0 204 -77t83 -195t-82.5 -195t-203 -77t-203 77t-82.5 195zM169 260q0 -71 45 -116.5t109.5 -45.5t109.5 45.5t45 116.5t-45 116.5t-109.5 45.5t-109.5 -45.5t-45 -116.5z" />
<glyph unicode="p" horiz-adv-x="626" d="M69 -204v724h119v-39l-2 -36h2q25 41 69.5 64t97.5 23q105 0 167.5 -75t62.5 -197t-66.5 -197t-170.5 -75q-93 0 -150 73h-2q3 -18 3 -45v-220h-130zM195 257q0 -65 34.5 -112.5t94.5 -47.5q56 0 93.5 43t37.5 118q0 49 -16.5 86t-45.5 57t-67 20q-55 0 -93 -41.5 t-38 -122.5z" />
<glyph unicode="q" horiz-adv-x="626" d="M40 260q0 123 65.5 197.5t169.5 74.5q48 0 91 -19.5t69 -56.5h2q-2 13 -2 33v31h121v-724h-129v225l2 45h-2q-24 -35 -65 -56.5t-92 -21.5q-104 0 -167 75.5t-63 196.5zM170 260q0 -74 36 -118.5t94 -44.5q55 0 92.5 41.5t37.5 122.5q0 66 -33.5 113t-95.5 47 q-55 0 -93 -43t-38 -118z" />
<glyph unicode="r" horiz-adv-x="403" d="M69 0v520h125v-92l-2 -35h2q18 57 63 95.5t102 38.5q8 0 25 -2v-127q-11 2 -32 2q-51 0 -86.5 -27.5t-51 -69.5t-15.5 -93v-210h-130z" />
<glyph unicode="s" horiz-adv-x="466" d="M28 64l58 86q29 -27 68.5 -42t79.5 -15q34 0 53 13.5t19 38.5q0 19 -19 34t-48 24.5t-62 24t-62 31t-48 47t-19 70.5q0 74 56.5 115t142.5 41q107 0 175 -59l-48 -91q-22 20 -59.5 32.5t-71.5 12.5t-53.5 -12.5t-19.5 -37.5q0 -19 19.5 -33.5t48 -24t62 -24t62 -30.5 t47.5 -46.5t19 -70.5q0 -70 -54 -115t-142 -45q-57 0 -111 19.5t-93 56.5z" />
<glyph unicode="t" horiz-adv-x="380" d="M95 191v219h-67v103h70v149h126v-149h119v-103h-119v-203q0 -24 7.5 -42.5t18.5 -29t26 -16.5t27 -8t24 -2q14 0 24 2v-113q-31 -3 -40 -3q-21 0 -41.5 2.5t-46.5 9t-47.5 21t-40.5 35t-29.5 53.5t-10.5 75z" />
<glyph unicode="u" horiz-adv-x="619" d="M64 186v334h130v-308q0 -52 17.5 -79t62.5 -27q68 0 107 51t39 125v238h129v-520h-125v61l3 36h-2q-20 -44 -69 -76.5t-111 -32.5q-181 0 -181 198z" />
<glyph unicode="v" horiz-adv-x="555" d="M202 0l-189 520h137l108 -322l18 -79h2q10 48 19 79l108 322h137l-187 -520h-153z" />
<glyph unicode="w" horiz-adv-x="847" d="M177 0l-158 520h137l91 -342l10 -55h2q5 28 12 55l96 341h115l96 -341l12 -55h2q3 28 11 55l91 342h134l-158 -520h-144l-87 297l-14 56h-2q-5 -29 -12 -56l-89 -297h-145z" />
<glyph unicode="x" horiz-adv-x="529" d="M15 0l172 263l-168 257h147l81 -142l16 -32h2q10 19 18 32l80 142h147l-167 -257l172 -263h-145l-90 151l-15 27h-2q-7 -16 -14 -27l-90 -151h-144z" />
<glyph unicode="y" horiz-adv-x="555" d="M56 -84q29 -21 57 -21t52.5 17t38.5 50l19 46l-219 512h146l109 -300q5 -12 9.5 -29.5t7.5 -29.5l2 -11h2q10 41 18 68l102 302h141l-232 -599q-25 -67 -76 -101t-112 -34q-27 0 -54 8.5t-41 16.5l-13 8z" />
<glyph unicode="z" horiz-adv-x="534" d="M36 0v69l234 293q11 13 22 25t16 18l6 5v2q-15 -2 -49 -2h-219v110h443v-70l-234 -293q-6 -8 -13 -16t-12.5 -13.5l-10 -10l-6.5 -6.5l-3 -2v-2q15 3 49 3h237v-110h-460z" />
<glyph unicode="{" horiz-adv-x="378" d="M124 72v99q0 44 -22 72t-64 34v114q41 6 63.5 34t22.5 74v87q0 45 14 78t33 50.5t45.5 28t47 13.5t41.5 3l32 -1v-96q-9 1 -19 1q-13 0 -25 -3t-26 -11t-22.5 -26.5t-8.5 -46.5v-111q0 -45 -23 -80t-62 -49v-2q85 -32 85 -129v-122q0 -28 8.5 -47t22.5 -26.5t26 -10.5 t25 -3l19 1v-96q-14 -2 -32 -2q-21 0 -41.5 3t-47 13.5t-45.5 28t-33 51t-14 77.5z" />
<glyph unicode="|" horiz-adv-x="269" d="M80 -164v976h110v-976h-110z" />
<glyph unicode="}" horiz-adv-x="378" d="M42 -3q7 -1 18 -1q13 0 25 3t26.5 10.5t23 26.5t8.5 47v122q0 29 9 54.5t28.5 45.5t45.5 29v2q-34 12 -58.5 47t-24.5 82v111q0 28 -8.5 46.5t-23 26.5t-26.5 11t-25 3l-18 -1v96q12 1 31 1q17 0 33.5 -2t38.5 -8t40 -18.5t34 -30.5t25 -47t9 -67v-87q0 -43 22.5 -73 t64.5 -35v-114q-41 -3 -64 -33t-23 -73v-99q0 -44 -13.5 -77.5t-33 -51t-46 -28t-46.5 -13.5t-41 -3l-31 2v96z" />
<glyph unicode="~" horiz-adv-x="633" d="M63 203q0 93 40 139.5t116 46.5q21 0 39.5 -5.5t31.5 -13.5t25 -18t22.5 -20t20.5 -18t22.5 -13t26.5 -5q32 0 47.5 25t15.5 64h103q0 -93 -40 -139.5t-116 -46.5q-28 0 -51.5 9.5t-39.5 23t-30 27t-31.5 23t-36.5 9.5q-31 0 -46.5 -25.5t-15.5 -62.5h-103z" />
<glyph unicode="&#xa2;" horiz-adv-x="597" d="M266 -12v87q-96 16 -156 96t-60 191t60 191t156 97v85h88v-85q67 -12 118 -56t76 -110l-117 -44q-10 26 -26 45.5t-39.5 32t-52.5 12.5q-39 0 -69 -21.5t-46.5 -59.5t-16.5 -87q0 -77 35.5 -122.5t96.5 -45.5q28 0 52 12t40 32t26 47l117 -45q-25 -62 -75 -109t-119 -56 v-87h-88z" />
<glyph unicode="&#xa3;" horiz-adv-x="597" d="M48 0v113h59v204h-44v89h44v123q0 45 17.5 83.5t48 65.5t74 42.5t93.5 15.5q49 0 97 -19.5t84 -53.5l-74 -90q-20 19 -48.5 31.5t-55.5 12.5q-46 0 -74 -26t-28 -66v-119h180v-89h-180v-204h318v-113h-511z" />
<glyph unicode="&#xa5;" horiz-adv-x="597" d="M65 190v78h167v34l-26 49h-141v77h101l-157 296h150l95 -194q10 -25 21 -54t17 -45l6 -17h2q20 60 44 116l95 194h150l-158 -296h100v-77h-139l-27 -49v-34h166v-78h-166v-190h-133v190h-167z" />
<glyph unicode="&#xa8;" horiz-adv-x="502" d="M296 793v118h99v-118h-99zM108 793v118h100v-118h-100z" />
<glyph unicode="&#xa9;" horiz-adv-x="833" d="M51 362q0 76 29 145.5t77.5 119.5t116 79t141.5 29q101 0 185.5 -49.5t133 -135.5t48.5 -188t-48.5 -188t-133 -136t-185.5 -50q-74 0 -141.5 29.5t-116 79.5t-77.5 119.5t-29 145.5zM142 362q0 -123 79 -207.5t194 -84.5q118 0 198 84.5t80 207.5q0 80 -36.5 147 t-100.5 105.5t-141 38.5q-115 0 -194 -84.5t-79 -206.5zM230 360q0 40 14 76.5t39 63.5t60.5 43t76.5 16q56 0 100 -29t66 -78l-78 -37q-6 16 -18.5 29t-30 21.5t-36.5 8.5q-44 0 -72 -33t-28 -81q0 -33 12 -58.5t34.5 -40.5t53.5 -15q28 0 50.5 16.5t34.5 42.5l78 -36 q-11 -28 -34 -52t-58 -40t-74 -16q-82 0 -136 58t-54 141z" />
<glyph unicode="&#xab;" horiz-adv-x="609" d="M270 288l168 210h123l-167 -210l167 -209h-123zM208 79l-167 209l167 210h124l-168 -210l168 -209h-124z" />
<glyph unicode="&#xad;" horiz-adv-x="440" d="M67 235v113h306v-113h-306z" />
<glyph unicode="&#xae;" horiz-adv-x="833" d="M51 362q0 76 29 145.5t77.5 119.5t116 79t141.5 29q101 0 185.5 -49.5t133 -135.5t48.5 -188t-48.5 -188t-133 -136t-185.5 -50q-74 0 -141.5 29.5t-116 79.5t-77.5 119.5t-29 145.5zM142 362q0 -123 79 -207.5t194 -84.5q118 0 198 84.5t80 207.5q0 80 -36.5 147 t-100.5 105.5t-141 38.5q-115 0 -194 -84.5t-79 -206.5zM288 177v374h155q55 0 88.5 -32.5t33.5 -86.5q0 -39 -21 -64.5t-45 -31.5v-2q4 -5 13 -22l70 -135h-95l-63 138h-50v-138h-86zM374 376h48q25 0 39.5 15t14.5 41q0 27 -14 41.5t-38 14.5h-50v-112z" />
<glyph unicode="&#xb4;" horiz-adv-x="502" d="M146 772l77 139h134l-107 -139h-104z" />
<glyph unicode="&#xb8;" horiz-adv-x="502" d="M184 -88l31 114l59 -14v-7l-11 -50q22 -3 38 -11.5t26.5 -25.5t10.5 -40q0 -47 -32 -68.5t-79 -21.5q-33 0 -62 7v71q17 -8 44 -8q45 0 45 29q0 27 -49 27z" />
<glyph unicode="&#xbb;" horiz-adv-x="609" d="M277 79l168 209l-168 210h124l167 -210l-167 -209h-124zM49 79l167 209l-167 210h123l168 -210l-168 -209h-123z" />
<glyph unicode="&#x2c6;" horiz-adv-x="503" d="M93 772l94 139h129l95 -139h-107l-51 83h-2l-51 -83h-107z" />
<glyph unicode="&#x2da;" horiz-adv-x="503" d="M252 760q-19 0 -36 5t-31 15t-22 25.5t-8 33.5q0 38 28.5 59.5t68.5 21.5q39 0 67.5 -21.5t28.5 -59.5q0 -37 -28.5 -58t-67.5 -21zM252 805q10 0 18 4.5t12.5 12t4.5 17.5q0 8 -3 15t-7.5 11.5t-10.5 7t-14 2.5q-15 0 -25 -10t-10 -26q0 -15 9.5 -24.5t25.5 -9.5z" />
<glyph unicode="&#x2dc;" horiz-adv-x="502" d="M66 773q0 140 115 140q23 0 42.5 -10.5t31 -23t26 -22.5t28.5 -10q20 0 30 18t10 45h88q0 -140 -115 -140q-19 0 -35 7t-27.5 16.5t-21.5 19.5t-21.5 16.5t-22.5 6.5q-39 0 -39 -63h-89z" />
<glyph unicode="&#x400;" horiz-adv-x="580" d="M88 0v724h433v-113h-302v-190h244v-113h-244v-195h319v-113h-450zM283 772l-107 139h134l78 -139h-105z" />
<glyph unicode="&#x401;" horiz-adv-x="580" d="M355 793v118h99v-118h-99zM167 793v118h100v-118h-100zM88 0v724h433v-113h-302v-190h244v-113h-244v-195h319v-113h-450z" />
<glyph unicode="&#x402;" horiz-adv-x="760" d="M204 0v611h-190v113h552v-113h-230v-167l-2 -32h2q29 14 78 26.5t98 12.5q68 0 118.5 -28.5t76.5 -78.5t26 -114q0 -71 -28 -126t-80 -85.5t-120 -30.5q-25 0 -49 3v109q16 -2 32 -2q19 0 38 6t36.5 19t28.5 38t11 58q0 53 -31.5 84.5t-89.5 31.5q-37 0 -73.5 -9 t-54.5 -18l-17 -9v-299h-132z" />
<glyph unicode="&#x403;" horiz-adv-x="516" d="M220 772l78 139h133l-107 -139h-104zM88 0v724h416v-113h-285v-611h-131z" />
<glyph unicode="&#x404;" horiz-adv-x="730" d="M46 365q0 104 45 188t131 133.5t196 49.5q50 0 95.5 -10t75.5 -24.5t53 -29t33 -24.5l10 -10l-63 -98q-2 1 -5 4t-14 11t-22.5 15.5t-30 16t-37 15t-42 11t-47.5 4.5q-97 0 -161 -56.5t-77 -144.5h346v-107h-346q13 -90 76 -146t163 -56q35 0 70 9t60 22t45 26t30 22 l10 9l66 -93q-4 -5 -12 -12.5t-35.5 -27t-58 -35t-79.5 -27.5t-101 -12q-108 0 -194 49.5t-133 135.5t-47 192z" />
<glyph unicode="&#x405;" horiz-adv-x="568" d="M36 87l71 99q36 -32 84 -54.5t96 -22.5t77 23t29 60q0 24 -14.5 44.5t-38.5 34t-54 28t-62 27.5t-62 32t-54 40.5t-38.5 54.5t-14.5 73q0 95 70 152.5t177 57.5q58 0 114 -19.5t98 -57.5l-58 -107q-31 28 -74.5 45.5t-84.5 17.5q-50 0 -80 -22.5t-30 -60.5 q0 -23 14.5 -43t38 -33t54 -27t62 -26t62 -30.5t54 -40.5t38 -55.5t14.5 -74.5q0 -92 -64 -153t-176 -61q-69 0 -134.5 25.5t-113.5 73.5z" />
<glyph unicode="&#x406;" horiz-adv-x="307" d="M88 0v724h131v-724h-131z" />
<glyph unicode="&#x407;" horiz-adv-x="307" d="M88 0v724h131v-724h-131zM199 793v118h99v-118h-99zM11 793v118h100v-118h-100z" />
<glyph unicode="&#x408;" horiz-adv-x="556" d="M24 214v42h131v-34q0 -49 23.5 -81.5t71.5 -32.5q41 0 68 26.5t27 81.5v395h-188v113h318v-510q0 -57 -19 -101.5t-51.5 -71t-72 -40t-82.5 -13.5t-82.5 13.5t-72 40.5t-52 71.5t-19.5 100.5z" />
<glyph unicode="&#x409;" horiz-adv-x="989" d="M19 -6v120q82 7 117 96.5t35 286.5v227h430v-284h133q68 0 120.5 -27.5t81.5 -77.5t29 -116q0 -98 -64 -158.5t-165 -60.5h-266v611h-166v-114q0 -97 -7 -168.5t-25.5 -135.5t-50.5 -105t-82 -66t-120 -28zM601 113h113q54 0 85.5 28.5t31.5 77.5t-32 78t-87 29h-111 v-213z" />
<glyph unicode="&#x40a;" horiz-adv-x="1039" d="M88 0v724h131v-287h300v287h131v-287h137q101 0 164.5 -60.5t63.5 -158.5q0 -64 -29.5 -114t-81 -77t-117.5 -27h-268v323h-300v-323h-131zM650 113h114q54 0 85.5 28.5t31.5 76.5q0 49 -32 77t-87 28h-112v-210z" />
<glyph unicode="&#x40b;" horiz-adv-x="762" d="M204 0v611h-190v113h551v-113h-229v-168l-2 -34h2q86 42 178 42q105 0 155.5 -60t50.5 -164v-227h-134v208q0 127 -114 127q-75 0 -136 -39v-296h-132z" />
<glyph unicode="&#x40c;" horiz-adv-x="650" d="M283 772l77 139h134l-107 -139h-104zM88 0v724h131v-295h94l170 295h143l-205 -345v-2l218 -377h-149l-177 316h-94v-316h-131z" />
<glyph unicode="&#x40d;" horiz-adv-x="768" d="M88 0v724h131v-418q0 -19 -1.5 -47t-3.5 -47l-2 -18h2q35 70 61 113l274 417h130v-724h-130v417q0 19 1.5 47t3.5 47l2 18h-2q-34 -69 -60 -112l-276 -417h-130zM343 772l-106 139h133l78 -139h-105z" />
<glyph unicode="&#x40e;" d="M68 38l58 99q46 -36 82 -36q26 0 43 16t29 47l-283 560h145l154 -323q6 -14 13 -28.5t11.5 -26t8.5 -21.5l6 -15l2 -5h2q13 48 29 95l116 324h138l-223 -572q-13 -33 -27.5 -59t-36.5 -51.5t-53 -39.5t-69 -14q-73 0 -145 50zM316 757q-70 0 -118.5 38t-48.5 103v13h99 v-13q0 -31 20 -48t48 -17t49 17t21 49v12h97v-13q0 -44 -23.5 -76.5t-61 -48.5t-82.5 -16z" />
<glyph unicode="&#x40f;" horiz-adv-x="751" d="M88 0v724h131v-611h313v611h132v-724h-228v-143h-119v143h-229z" />
<glyph unicode="&#x410;" horiz-adv-x="663" d="M8 0l254 724h139l254 -724h-135l-62 186h-254l-61 -186h-135zM237 293h188l-64 194l-28 112h-3q-16 -72 -28 -112z" />
<glyph unicode="&#x411;" horiz-adv-x="628" d="M88 0v724h444v-113h-313v-167h145q101 0 164 -61t63 -163q0 -97 -62.5 -158.5t-161.5 -61.5h-279zM219 113h125q53 0 83 29t30 78q0 33 -13.5 58t-40 38.5t-61.5 13.5h-123v-217z" />
<glyph unicode="&#x412;" horiz-adv-x="645" d="M88 0v724h258q101 0 162.5 -49.5t61.5 -136.5q0 -51 -23 -92t-65 -64v-2q57 -16 87.5 -63.5t30.5 -106.5q0 -69 -35.5 -118t-90.5 -70.5t-124 -21.5h-262zM219 428h128q41 0 65.5 26.5t24.5 67t-24 65t-68 24.5h-126v-183zM219 113h141q49 0 77 29t28 76q0 46 -28 75 t-77 29h-141v-209z" />
<glyph unicode="&#x413;" horiz-adv-x="516" d="M88 0v724h416v-113h-285v-611h-131z" />
<glyph unicode="&#x414;" horiz-adv-x="754" d="M216 113h288v498h-194v-54q0 -292 -94 -444zM7 113h74q61 93 83 206.5t22 246.5v158h449v-611h81v-256h-117v143h-470v-143h-122v256z" />
<glyph unicode="&#x415;" horiz-adv-x="580" d="M88 0v724h433v-113h-302v-190h244v-113h-244v-195h319v-113h-450z" />
<glyph unicode="&#x416;" horiz-adv-x="950" d="M13 0l204 377v2l-188 345h141l155 -295h85v295h131v-295h84l155 295h142l-190 -345v-2l205 -377h-148l-164 316h-84v-316h-131v316h-85l-164 -316h-148z" />
<glyph unicode="&#x417;" horiz-adv-x="566" d="M22 91l72 87q30 -31 73.5 -52.5t89.5 -21.5q59 0 94 29.5t35 81.5q0 24 -8.5 43t-23.5 31.5t-36 19.5t-48 7h-88v106h71q49 0 80.5 28.5t31.5 71.5q0 29 -11.5 51t-37.5 35.5t-62 13.5q-83 0 -157 -61l-53 96q96 79 232 79q93 0 158 -52.5t65 -144.5q0 -107 -100 -162v-2 q56 -17 88.5 -61t32.5 -107q0 -100 -72 -159.5t-179 -59.5q-69 0 -134.5 27t-112.5 76z" />
<glyph unicode="&#x418;" horiz-adv-x="768" d="M88 0v724h131v-418q0 -19 -1.5 -47t-3.5 -47l-2 -18h2q35 70 61 113l274 417h130v-724h-130v417q0 19 1.5 47t3.5 47l2 18h-2q-34 -69 -60 -112l-276 -417h-130z" />
<glyph unicode="&#x419;" horiz-adv-x="768" d="M390 757q-70 0 -119 38t-49 103v13h99v-13q0 -21 10.5 -36t25.5 -22t33 -7q28 0 48.5 17t20.5 49v12h98v-13q0 -44 -23.5 -76.5t-61 -48.5t-82.5 -16zM88 0v724h131v-418q0 -19 -1.5 -47t-3.5 -47l-2 -18h2q35 70 61 113l274 417h130v-724h-130v417q0 19 1.5 47t3.5 47 l2 18h-2q-34 -69 -60 -112l-276 -417h-130z" />
<glyph unicode="&#x41a;" horiz-adv-x="650" d="M88 0v724h131v-295h94l170 295h143l-205 -345v-2l218 -377h-149l-177 316h-94v-316h-131z" />
<glyph unicode="&#x41b;" horiz-adv-x="705" d="M14 112q81 11 118.5 108.5t37.5 305.5v198h448v-724h-131v611h-191v-87q0 -267 -66.5 -397t-215.5 -135v120z" />
<glyph unicode="&#x41c;" horiz-adv-x="877" d="M60 0l59 724h140l143 -358l36 -106h2q19 63 35 106l143 358h140l59 -724h-132l-29 405q-2 21 -2 49v46l1 17h-2q-24 -70 -40 -112l-117 -281h-115l-117 281l-40 113h-2q3 -65 -1 -113l-29 -405h-132z" />
<glyph unicode="&#x41d;" horiz-adv-x="769" d="M88 0v724h131v-307h332v307h130v-724h-130v304h-332v-304h-131z" />
<glyph unicode="&#x41e;" horiz-adv-x="838" d="M45 367q0 102 48.5 187t134.5 133.5t191 48.5q79 0 148.5 -28.5t119 -78t78.5 -117.5t29 -145q0 -105 -49 -192t-135 -137t-191 -50t-191 50t-134.5 137t-48.5 192zM181 367q0 -109 69 -184t169 -75t169.5 75t69.5 184q0 69 -32 126.5t-86.5 90t-120.5 32.5 q-100 0 -169 -72t-69 -177z" />
<glyph unicode="&#x41f;" horiz-adv-x="761" d="M88 0v724h586v-724h-131v611h-324v-611h-131z" />
<glyph unicode="&#x420;" d="M88 0v724h279q102 0 166.5 -65t64.5 -170q0 -106 -64.5 -172.5t-166.5 -66.5h-148v-250h-131zM219 364h124q57 0 89 33.5t32 91.5q0 56 -32 89t-87 33h-126v-247z" />
<glyph unicode="&#x421;" horiz-adv-x="730" d="M46 365q0 104 47 189t132.5 133.5t192.5 48.5q75 0 146 -24.5t121 -73.5l-63 -98q-39 34 -92.5 55t-105.5 21q-114 0 -178 -71.5t-64 -177.5q0 -69 27.5 -127t84 -95t131.5 -37q38 0 76.5 12t72.5 32.5t61 47.5l70 -95q-116 -117 -285 -117q-111 0 -197 50t-131.5 135.5 t-45.5 191.5z" />
<glyph unicode="&#x422;" horiz-adv-x="635" d="M252 0v611h-238v113h606v-113h-238v-611h-130z" />
<glyph unicode="&#x423;" d="M68 38l58 99q46 -36 82 -36q26 0 43 16t29 47l-283 560h145l154 -323q6 -14 13 -28.5t11.5 -26t8.5 -21.5l6 -15l2 -5h2q13 48 29 95l116 324h138l-223 -572q-13 -33 -27.5 -59t-36.5 -51.5t-53 -39.5t-69 -14q-73 0 -145 50z" />
<glyph unicode="&#x424;" horiz-adv-x="861" d="M34 386q0 132 92 215.5t239 83.5v80h132v-80q147 0 239 -83.5t92 -215.5q0 -136 -91.5 -221t-239.5 -85v-92h-132v92q-147 0 -239 85.5t-92 220.5zM497 190q88 0 143 54t55 142q0 84 -55 136.5t-143 52.5v-385zM168 386q0 -88 55 -142t142 -54v385q-87 0 -142 -52.5 t-55 -136.5z" />
<glyph unicode="&#x425;" horiz-adv-x="634" d="M13 0l225 367l-217 357h150l100 -177l45 -88h2q21 45 45 88l101 177h150l-217 -357l225 -367h-147l-113 195l-45 85h-2q-20 -43 -44 -85l-112 -195h-146z" />
<glyph unicode="&#x426;" horiz-adv-x="786" d="M88 0v724h131v-611h313v611h132v-611h86v-256h-118v143h-544z" />
<glyph unicode="&#x427;" horiz-adv-x="673" d="M268 269q-111 0 -166 56.5t-55 161.5v237h134v-208q0 -63 29 -95t92 -32q43 0 83 13t66 29v293h133v-724h-133v280l2 34h-2q-87 -45 -183 -45z" />
<glyph unicode="&#x428;" horiz-adv-x="1037" d="M88 0v724h131v-611h234v611h131v-611h234v611h131v-724h-861z" />
<glyph unicode="&#x429;" horiz-adv-x="1074" d="M88 0v724h131v-611h234v611h131v-611h234v611h131v-611h89v-256h-118v143h-832z" />
<glyph unicode="&#x42a;" horiz-adv-x="720" d="M193 0v611h-186v113h317v-254h142q100 0 163.5 -64.5t63.5 -171.5q0 -104 -62.5 -169t-162.5 -65h-275zM324 113h121q54 0 84 32.5t30 88.5t-31 89.5t-85 33.5h-119v-244z" />
<glyph unicode="&#x42b;" horiz-adv-x="893" d="M674 0v724h131v-724h-131zM88 0v724h131v-254h135q100 0 163 -64.5t63 -171.5q0 -104 -62 -169t-161 -65h-269zM219 113h115q53 0 83 32.5t30 88.5t-31 89.5t-84 33.5h-113v-244z" />
<glyph unicode="&#x42c;" horiz-adv-x="615" d="M88 0v724h131v-254h142q100 0 163.5 -64.5t63.5 -171.5q0 -104 -62.5 -169t-162.5 -65h-275zM219 113h121q53 0 83.5 32.5t30.5 88.5t-31 89.5t-85 33.5h-119v-244z" />
<glyph unicode="&#x42d;" horiz-adv-x="730" d="M29 99l66 93q39 -38 96.5 -61.5t118.5 -23.5q96 0 159 57t77 145h-347v107h348q-12 88 -76 144.5t-160 56.5q-112 0 -206 -81l-63 98q49 50 121.5 76t151.5 26q83 0 153 -28.5t117.5 -78.5t73.5 -118t26 -145q0 -106 -47.5 -192.5t-133.5 -136t-194 -49.5 q-165 0 -281 111z" />
<glyph unicode="&#x42e;" horiz-adv-x="1104" d="M88 0v724h131v-307h113q16 138 117 228.5t244 90.5q102 0 186.5 -48.5t132.5 -133.5t48 -187q0 -79 -28.5 -149t-77 -120.5t-116.5 -80t-145 -29.5q-140 0 -239.5 89t-119.5 227h-115v-304h-131zM462 367q0 -72 30.5 -131.5t83.5 -93.5t117 -34q96 0 163.5 75t67.5 184 q0 69 -31 126t-84 89.5t-116 32.5q-97 0 -164 -71.5t-67 -176.5z" />
<glyph unicode="&#x42f;" horiz-adv-x="646" d="M17 0l153 255l24 38v2q-33 14 -57.5 36t-40 49t-23.5 58.5t-8 66.5q0 74 33 125.5t89 74.5q44 19 137 19h235v-724h-132v270h-106l-157 -270h-147zM313 380h114v231h-92q-61 0 -91 -18q-45 -28 -45 -93q0 -57 30.5 -88.5t83.5 -31.5z" />
<glyph unicode="&#x430;" horiz-adv-x="546" d="M30 144q0 32 10.5 59t28.5 45.5t43.5 32.5t52 22.5t57.5 14t57 7t54 1.5h22v8q0 48 -27 69.5t-71 21.5q-72 0 -145 -50l-48 93q34 27 91 45.5t113 18.5q102 0 159 -54t57 -153v-325h-120v44l3 38h-2q-24 -43 -68 -68.5t-96 -25.5q-72 0 -121.5 43t-49.5 113zM158 155 q0 -28 21 -48t58 -20q51 0 85 42.5t34 93.5v15h-22q-176 0 -176 -83z" />
<glyph unicode="&#x431;" horiz-adv-x="607" d="M47 304q0 100 24.5 170t80.5 122t151 88l179 71l39 -105l-198 -76q-71 -29 -109.5 -69.5t-42.5 -104.5h2q61 75 172 75q100 0 161 -65.5t61 -172.5q0 -109 -70.5 -179t-184.5 -70q-131 0 -198 86t-67 230zM178 236q0 -65 37 -103t92 -38t92.5 38t37.5 101.5t-37 102 t-91 38.5q-56 0 -93.5 -39.5t-37.5 -99.5z" />
<glyph unicode="&#x432;" horiz-adv-x="548" d="M69 0v520h242q81 0 128.5 -35t47.5 -99q0 -37 -18 -68t-51 -47v-1q45 -11 68.5 -44.5t23.5 -74.5q0 -75 -53.5 -113t-140.5 -38h-247zM199 306h85q35 0 53.5 18.5t18.5 49.5q0 62 -74 62h-83v-130zM199 86h95q42 0 63.5 19t21.5 50q0 32 -22 51t-63 19h-95v-139z" />
<glyph unicode="&#x433;" horiz-adv-x="430" d="M69 0v520h342v-110h-212v-410h-130z" />
<glyph unicode="&#x434;" horiz-adv-x="628" d="M207 104h193v312h-130v-24q0 -183 -63 -288zM13 104h65q69 102 69 308v108h382v-416h75v-226h-117v122h-353v-122h-121v226z" />
<glyph unicode="&#x435;" horiz-adv-x="572" d="M38 260q0 120 74 196t191 76q108 0 169 -69.5t61 -176.5q0 -18 -4 -50h-358q6 -66 50 -102t106 -36q78 0 149 57l51 -93q-39 -35 -95.5 -54.5t-113.5 -19.5q-126 0 -203 79t-77 193zM174 324h230q0 26 -8.5 47t-22.5 34.5t-32.5 21.5t-40.5 8q-33 0 -59.5 -14t-43 -39 t-23.5 -58z" />
<glyph unicode="&#x436;" horiz-adv-x="800" d="M13 0l159 267v2l-145 251h134l115 -202h64v202h121v-202h63l116 202h134l-145 -251v-2l159 -267h-142l-120 209h-65v-209h-121v209h-66l-119 -209h-142z" />
<glyph unicode="&#x437;" horiz-adv-x="467" d="M22 64l56 83q24 -24 59 -41.5t72 -17.5q27 0 47.5 8.5t31.5 24t11 37.5q0 64 -87 64h-63v90h53q81 0 81 60q0 30 -20 46.5t-58 16.5q-61 0 -125 -43l-42 82q79 58 192 58q79 0 130.5 -38t51.5 -104q0 -84 -71 -118v-2q38 -14 62.5 -44t24.5 -75q0 -78 -57.5 -120.5 t-147.5 -42.5q-57 0 -110.5 21t-90.5 55z" />
<glyph unicode="&#x438;" horiz-adv-x="618" d="M69 0v520h124v-278q0 -38 -3 -62h2q4 8 39 62l192 278h126v-520h-124v277q0 23 3 63h-2q-3 -8 -38 -63l-193 -277h-126z" />
<glyph unicode="&#x439;" horiz-adv-x="618" d="M309 570q-45 0 -82.5 16t-61 49t-23.5 76v13h99v-13q0 -31 20 -47.5t48 -16.5q18 0 33 6.5t25.5 22t10.5 36.5v12h98v-13q0 -65 -48.5 -103t-118.5 -38zM69 0v520h124v-278q0 -38 -3 -62h2q4 8 39 62l192 278h126v-520h-124v277q0 23 3 63h-2q-3 -8 -38 -63l-193 -277 h-126z" />
<glyph unicode="&#x43a;" horiz-adv-x="559" d="M69 0v520h130v-199h63l127 199h143l-165 -248v-2l186 -270h-150l-137 211h-67v-211h-130z" />
<glyph unicode="&#x43b;" horiz-adv-x="578" d="M20 -5v114q35 5 58 27t37.5 77t14.5 144v163h379v-520h-130v415h-126v-58q0 -177 -54 -267.5t-179 -94.5z" />
<glyph unicode="&#x43c;" horiz-adv-x="757" d="M48 0l47 520h147l110 -268l25 -66h2q15 36 26 66l112 268h145l47 -520h-125l-18 282l1 88h-2q-14 -39 -31 -75l-102 -230h-107l-102 229l-31 76h-2q0 -6 0.5 -15t1 -35t-0.5 -38l-19 -282h-124z" />
<glyph unicode="&#x43d;" horiz-adv-x="620" d="M69 0v520h130v-201h222v201h130v-520h-130v210h-222v-210h-130z" />
<glyph unicode="&#x43e;" horiz-adv-x="646" d="M38 260q0 118 82.5 195t201.5 77q121 0 204 -77t83 -195t-82.5 -195t-203 -77t-203 77t-82.5 195zM169 260q0 -71 45 -116.5t109.5 -45.5t109.5 45.5t45 116.5t-45 116.5t-109.5 45.5t-109.5 -45.5t-45 -116.5z" />
<glyph unicode="&#x43f;" horiz-adv-x="613" d="M69 0v520h475v-520h-130v410h-215v-410h-130z" />
<glyph unicode="&#x440;" horiz-adv-x="626" d="M69 -204v724h119v-39l-2 -36h2q25 41 69.5 64t97.5 23q105 0 167.5 -75t62.5 -197t-66.5 -197t-170.5 -75q-93 0 -150 73h-2q3 -18 3 -45v-220h-130zM195 257q0 -65 34.5 -112.5t94.5 -47.5q56 0 93.5 43t37.5 118q0 49 -16.5 86t-45.5 57t-67 20q-55 0 -93 -41.5 t-38 -122.5z" />
<glyph unicode="&#x441;" horiz-adv-x="558" d="M38 260q0 114 78 193t204 79q57 0 111 -19.5t89 -57.5l-58 -89q-25 25 -61 40.5t-74 15.5q-46 0 -82.5 -21.5t-56 -58t-19.5 -81.5q0 -44 19.5 -81t57 -59.5t86.5 -22.5q40 0 81 18.5t71 47.5l50 -92q-36 -39 -93.5 -61.5t-120.5 -22.5q-84 0 -149 36.5t-99 98t-34 137.5 z" />
<glyph unicode="&#x442;" horiz-adv-x="510" d="M191 0v410h-172v110h473v-110h-173v-410h-128z" />
<glyph unicode="&#x443;" horiz-adv-x="555" d="M56 -84q29 -21 57 -21t52.5 17t38.5 50l19 46l-219 512h146l109 -300q5 -12 9.5 -29.5t7.5 -29.5l2 -11h2q10 41 18 68l102 302h141l-232 -599q-25 -67 -76 -101t-112 -34q-27 0 -54 8.5t-41 16.5l-13 8z" />
<glyph unicode="&#x444;" horiz-adv-x="763" d="M39 260q0 118 80 193t202 78v183h123v-183q122 -3 201.5 -78t79.5 -193q0 -78 -37 -139.5t-100.5 -95.5t-143.5 -37v-192h-123v192q-122 4 -202 79t-80 193zM444 92q69 5 112.5 50.5t43.5 117.5q0 49 -20.5 86t-55.5 57.5t-80 23.5v-335zM165 260q0 -72 43.5 -117.5 t112.5 -50.5v335q-69 -4 -112.5 -49t-43.5 -118z" />
<glyph unicode="&#x445;" horiz-adv-x="529" d="M15 0l172 263l-168 257h147l81 -142l16 -32h2q10 19 18 32l80 142h147l-167 -257l172 -263h-145l-90 151l-15 27h-2q-7 -16 -14 -27l-90 -151h-144z" />
<glyph unicode="&#x446;" horiz-adv-x="636" d="M69 0v520h130v-410h208v410h130v-410h74v-232h-117v122h-425z" />
<glyph unicode="&#x447;" horiz-adv-x="554" d="M214.5 172q-79.5 0 -127.5 43.5t-48 130.5v174h127v-153q0 -87 89 -87q54 0 101 33v207h128v-520h-128v177l1 29h-2q-61 -34 -140.5 -34z" />
<glyph unicode="&#x448;" horiz-adv-x="833" d="M69 0v520h124v-410h162v410h123v-410h163v410h123v-520h-695z" />
<glyph unicode="&#x449;" horiz-adv-x="863" d="M69 0v520h124v-410h162v410h123v-410h163v410h123v-410h73v-232h-116v122h-652z" />
<glyph unicode="&#x44a;" horiz-adv-x="592" d="M146 0v410h-137v110h266v-178h97q93 0 144 -44.5t51 -128.5q0 -79 -48.5 -124t-147.5 -45h-225zM275 89h75q29 0 49 10.5t29.5 28.5t9.5 42q0 25 -9.5 43.5t-29.5 29.5t-50 11h-74v-165z" />
<glyph unicode="&#x44b;" horiz-adv-x="757" d="M559 0v520h129v-520h-129zM69 0v520h130v-178h93q93 0 144.5 -44.5t51.5 -128.5q0 -79 -49 -124t-148 -45h-222zM199 89h71q29 0 49 10.5t29 28.5t9 42q0 25 -9 43.5t-29.5 29.5t-50.5 11h-69v-165z" />
<glyph unicode="&#x44c;" horiz-adv-x="517" d="M69 0v520h130v-178h97q93 0 144.5 -44.5t51.5 -128.5q0 -79 -49 -124t-148 -45h-226zM199 89h75q29 0 49 10.5t29 28.5t9 42q0 25 -9 43.5t-29.5 29.5t-50.5 11h-73v-165z" />
<glyph unicode="&#x44d;" horiz-adv-x="556" d="M24 64l48 90q67 -63 158 -63q64 0 108.5 34.5t55.5 90.5h-228v89h228q-6 28 -20 51t-35 39.5t-47.5 25t-56.5 8.5q-83 0 -145 -56l-55 87q23 24 57.5 40.5t72 24t75.5 7.5q125 0 202 -78.5t77 -193.5q0 -76 -34 -137.5t-99 -98t-149 -36.5q-127 0 -213 76z" />
<glyph unicode="&#x44e;" horiz-adv-x="868" d="M69 0v520h130v-206h86q17 97 91.5 157.5t176.5 60.5q117 0 197 -77t80 -195q0 -119 -79.5 -195.5t-196.5 -76.5q-104 0 -179 61t-91 160h-85v-209h-130zM408 260q0 -72 42 -117t104 -45q61 0 103 45.5t42 116.5q0 47 -19.5 84.5t-52.5 57.5t-73 20q-62 0 -104 -45.5 t-42 -116.5z" />
<glyph unicode="&#x44f;" horiz-adv-x="540" d="M18 0l115 166l23 32v1q-45 17 -75 58t-30 95q0 79 50.5 123.5t136.5 44.5h233v-520h-129v176h-68l-116 -176h-140zM273 266h69v170h-68q-93 0 -93 -83q0 -43 25.5 -65t66.5 -22z" />
<glyph unicode="&#x450;" horiz-adv-x="572" d="M38 260q0 120 74 196t191 76q108 0 169 -69.5t61 -176.5q0 -18 -4 -50h-358q6 -66 50 -102t106 -36q78 0 149 57l51 -93q-39 -35 -95.5 -54.5t-113.5 -19.5q-126 0 -203 79t-77 193zM174 324h230q0 26 -8.5 47t-22.5 34.5t-32.5 21.5t-40.5 8q-33 0 -59.5 -14t-43 -39 t-23.5 -58zM263 585l-106 139h134l77 -139h-105z" />
<glyph unicode="&#x451;" horiz-adv-x="572" d="M342 606v118h99v-118h-99zM154 606v118h100v-118h-100zM38 260q0 120 74 196t191 76q108 0 169 -69.5t61 -176.5q0 -18 -4 -50h-358q6 -66 50 -102t106 -36q78 0 149 57l51 -93q-39 -35 -95.5 -54.5t-113.5 -19.5q-126 0 -203 79t-77 193zM174 324h230q0 26 -8.5 47 t-22.5 34.5t-32.5 21.5t-40.5 8q-33 0 -59.5 -14t-43 -39t-23.5 -58z" />
<glyph unicode="&#x452;" horiz-adv-x="625" d="M69 0v552h-62v90h62v82h130v-82h193v-90h-193v-141l-2 -44h2q13 27 37 49.5t62 38t80 15.5q182 0 182 -198v-264q0 -53 -15 -94t-37.5 -64.5t-52 -38.5t-54 -19.5t-48.5 -4.5l-50 3v109q15 -2 33 -2q16 0 30.5 4t30 15t24.5 35t9 58v237q0 25 -3.5 43.5t-12.5 33t-25 22 t-40 7.5q-51 0 -89 -30t-52 -78q-9 -26 -9 -68v-176h-130z" />
<glyph unicode="&#x453;" horiz-adv-x="430" d="M165 585l78 139h133l-107 -139h-104zM69 0v520h342v-110h-212v-410h-130z" />
<glyph unicode="&#x454;" horiz-adv-x="559" d="M38 260q0 114 78 193t204 79q39 0 74 -7t57.5 -18t39 -21.5t24.5 -18.5l7 -7l-56 -89q-2 3 -6.5 6.5t-18.5 13t-29 17t-39 13.5t-48 6q-63 0 -106.5 -32t-55.5 -87h228v-90h-228q7 -38 29.5 -67t58 -44.5t79.5 -15.5q27 0 52.5 7t44 17t32.5 20t21 17l8 7l49 -91 q-4 -3 -10 -8.5t-26.5 -19.5t-43.5 -24.5t-60.5 -19t-76.5 -8.5q-84 0 -149 36.5t-99 98t-34 137.5z" />
<glyph unicode="&#x455;" horiz-adv-x="466" d="M28 64l58 86q29 -27 68.5 -42t79.5 -15q34 0 53 13.5t19 38.5q0 19 -19 34t-48 24.5t-62 24t-62 31t-48 47t-19 70.5q0 74 56.5 115t142.5 41q107 0 175 -59l-48 -91q-22 20 -59.5 32.5t-71.5 12.5t-53.5 -12.5t-19.5 -37.5q0 -19 19.5 -33.5t48 -24t62 -24t62 -30.5 t47.5 -46.5t19 -70.5q0 -70 -54 -115t-142 -45q-57 0 -111 19.5t-93 56.5z" />
<glyph unicode="&#x456;" horiz-adv-x="268" d="M69 609v115h130v-115h-130zM69 0v520h130v-520h-130z" />
<glyph unicode="&#x457;" horiz-adv-x="268" d="M180 606v118h98v-118h-98zM-8 606v118h100v-118h-100zM69 0v520h130v-520h-130z" />
<glyph unicode="&#x458;" horiz-adv-x="268" d="M69 609v115h130v-115h-130zM69 -5v525h130v-535q0 -50 -16 -87.5t-39.5 -57.5t-55 -32t-56.5 -15.5t-50 -3.5q-19 0 -39 3v109q12 -2 22 -2q17 0 32.5 3.5t33 12.5t28 29.5t10.5 50.5z" />
<glyph unicode="&#x459;" horiz-adv-x="794" d="M24 -5v114q36 5 59.5 26.5t38 75t14.5 140.5v169h345v-188h94q93 0 144.5 -43.5t51.5 -125.5q0 -50 -20.5 -86t-65 -56.5t-111.5 -20.5h-222v415h-94v-60q0 -183 -53 -269.5t-181 -90.5zM481 89h78q43 0 65 20t22 54q0 36 -22 57.5t-66 21.5h-77v-153z" />
<glyph unicode="&#x45a;" horiz-adv-x="853" d="M69 0v520h130v-190h212v190h130v-192h91q93 0 145.5 -42t52.5 -122q0 -76 -49 -120t-148 -44h-222v228h-212v-228h-130zM541 89h77q44 0 66 20t22 55t-23.5 55.5t-67.5 20.5h-74v-151z" />
<glyph unicode="&#x45b;" horiz-adv-x="625" d="M69 0v552h-62v90h62v82h130v-82h193v-90h-193v-141l-2 -44h2q21 43 68.5 73t110.5 30q182 0 182 -197v-273h-130v247q0 51 -17.5 78t-63.5 27q-51 0 -89 -29.5t-52 -77.5q-9 -26 -9 -69v-176h-130z" />
<glyph unicode="&#x45c;" horiz-adv-x="559" d="M223 585l78 139h134l-108 -139h-104zM69 0v520h130v-199h63l127 199h143l-165 -248v-2l186 -270h-150l-137 211h-67v-211h-130z" />
<glyph unicode="&#x45d;" horiz-adv-x="618" d="M69 0v520h124v-278q0 -38 -3 -62h2q4 8 39 62l192 278h126v-520h-124v277q0 23 3 63h-2q-3 -8 -38 -63l-193 -277h-126zM275 585l-106 139h134l77 -139h-105z" />
<glyph unicode="&#x45e;" horiz-adv-x="555" d="M56 -84q29 -21 57 -21t52.5 17t38.5 50l19 46l-219 512h146l109 -300q5 -12 9.5 -29.5t7.5 -29.5l2 -11h2q10 41 18 68l102 302h141l-232 -599q-25 -67 -76 -101t-112 -34q-27 0 -54 8.5t-41 16.5l-13 8zM279.5 570q-69.5 0 -118.5 38t-49 103v13h99v-13 q0 -31 20.5 -47.5t47.5 -16.5q28 0 49 16.5t21 48.5v12h98v-13q0 -65 -49 -103t-118.5 -38z" />
<glyph unicode="&#x45f;" horiz-adv-x="599" d="M69 0v520h130v-410h202v410h128v-520h-171v-122h-116v122h-173z" />
<glyph unicode="&#x462;" horiz-adv-x="714" d="M185 0v550h-175v101h177v96h128v-96h208v-101h-208v-106h143q101 0 164.5 -61t63.5 -160t-64 -161t-163 -62h-274zM315 113h121q53 0 85 29.5t32 80.5q0 49 -32.5 78t-86.5 29h-119v-217z" />
<glyph unicode="&#x463;" horiz-adv-x="571" d="M121 0v467h-124v94h123v163h130v-163h167v-94h-166v-125h101q93 0 144 -44.5t51 -128.5q0 -79 -48.5 -124t-147.5 -45h-230zM251 89h78q30 0 50 10.5t29 28.5t9 42q0 38 -22 61t-67 23h-77v-165z" />
<glyph unicode="&#x472;" horiz-adv-x="838" d="M45 367q0 103 48 187.5t134.5 133t192 48.5t191.5 -48.5t134.5 -133t48.5 -187.5q0 -105 -48.5 -192t-134.5 -137t-192 -50q-79 0 -149 29.5t-119 80t-77.5 120.5t-28.5 149zM420 103q89 0 155 59t82 151h-475q17 -93 82.5 -151.5t155.5 -58.5zM420 619q-91 0 -157 -57 t-81 -147h476q-16 89 -82.5 146.5t-155.5 57.5z" />
<glyph unicode="&#x473;" horiz-adv-x="646" d="M38 260q0 118 82.5 195t201.5 77q121 0 204 -77t83 -195t-82.5 -195t-203 -77t-203 77t-82.5 195zM324 84q61 0 107 38.5t58 101.5h-330q7 -42 30.5 -74t58.5 -49t76 -17zM324 436q-61 0 -106.5 -37t-57.5 -98h328q-7 30 -22.5 55.5t-37 42.5t-48 27t-56.5 10z" />
<glyph unicode="&#x474;" horiz-adv-x="705" d="M266 0l-261 724h142l159 -472q6 -19 13 -45.5t11 -43.5l4 -17h2q14 64 27 106l132 400q10 31 23 46t31.5 20.5t52.5 5.5h91v-114h-25q-31 0 -44 -8t-24 -41l-197 -561h-137z" />
<glyph unicode="&#x475;" horiz-adv-x="589" d="M201 0l-189 520h137l108 -322q5 -14 9.5 -33.5t6.5 -32.5l2 -13h2q10 48 20 79l72 226q16 54 43.5 75t80.5 21h78v-111h-23q-31 0 -44.5 -10.5t-25.5 -42.5l-123 -356h-154z" />
<glyph unicode="&#x48a;" horiz-adv-x="819" d="M88 0v724h131v-418q0 -19 -1.5 -47t-3.5 -47l-2 -18h2q35 70 61 113l274 417h130v-611h123v-71l-81 -185h-92l40 143h-120v417q0 19 1.5 47t3.5 47l2 18h-2q-34 -69 -60 -112l-276 -417h-130zM392 757q-70 0 -119 38t-49 103v13h99v-13q0 -31 20.5 -48t48.5 -17t48.5 17 t20.5 49v12h98v-13q0 -44 -23.5 -76.5t-61 -48.5t-82.5 -16z" />
<glyph unicode="&#x48b;" horiz-adv-x="675" d="M69 0v520h124v-278q0 -38 -3 -62h2q4 8 39 62l192 278h126v-411h107v-68l-71 -163h-86l33 122h-107v277q0 23 3 63h-2q-3 -8 -38 -63l-193 -277h-126zM314 570q-70 0 -118.5 38t-48.5 103v13h99v-13q0 -31 20 -47.5t48 -16.5t49 16.5t21 48.5v12h97v-13q0 -65 -48.5 -103 t-118.5 -38z" />
<glyph unicode="&#x48c;" horiz-adv-x="705" d="M173 0v572h-164v100h167v93h129v-93h196v-100h-196v-125h146q101 0 164.5 -62t63.5 -162q0 -99 -64 -161t-163 -62h-279zM305 113h123q54 0 86 29.5t32 80.5t-32.5 81t-87.5 30h-121v-221z" />
<glyph unicode="&#x48d;" horiz-adv-x="574" d="M124 0v467h-124v94h123v163h130v-163h167v-94h-166v-125h101q93 0 144 -44.5t51 -128.5q0 -79 -48.5 -124t-147.5 -45h-230zM254 89h79q43 0 65 22t22 59q0 25 -9 43.5t-29.5 29.5t-49.5 11h-78v-165z" />
<glyph unicode="&#x48e;" horiz-adv-x="641" d="M88 0v724h279q102 0 166.5 -65t64.5 -170q0 -107 -65 -173l59 -73l-69 -57l-64 80q-40 -16 -92 -16h-148v-250h-131zM322 439l70 57l67 -86q16 33 16 71q0 61 -33 95.5t-92 34.5h-131v-260h129q19 0 40 5z" />
<glyph unicode="&#x48f;" horiz-adv-x="632" d="M69 -204v724h119v-39l-2 -36h2q2 3 5.5 9t18 21t32 26.5t47.5 21t64 9.5q105 0 167.5 -75t62.5 -197q0 -112 -58 -187l55 -66l-68 -59l-56 66q-50 -26 -110 -26q-29 0 -55 7.5t-42.5 18t-29 21.5t-18.5 19l-5 7h-2q3 -18 3 -45v-220h-130zM316 185l69 59l63 -77 q18 39 18 87q0 76 -37 121.5t-97 45.5q-29 0 -53 -9.5t-43 -29.5t-30 -53t-11 -76q0 -66 35.5 -113.5t98.5 -47.5q29 0 55 11z" />
<glyph unicode="&#x490;" horiz-adv-x="527" d="M88 0v724h320v108h107v-221h-296v-611h-131z" />
<glyph unicode="&#x491;" horiz-adv-x="436" d="M69 0v520h248v104h101v-214h-219v-410h-130z" />
<glyph unicode="&#x492;" horiz-adv-x="526" d="M93 0v304h-60v93h60v327h416v-113h-286v-214h162v-93h-162v-304h-130z" />
<glyph unicode="&#x493;" horiz-adv-x="439" d="M74 0v200h-62v83h62v237h343v-110h-213v-127h129v-83h-129v-200h-130z" />
<glyph unicode="&#x494;" horiz-adv-x="638" d="M88 0v724h417v-113h-286v-204q59 24 131 24q121 0 187.5 -74t66.5 -218q0 -166 -72 -246t-205 -80v106q31 0 54.5 10t43.5 33.5t30.5 68t10.5 108.5q0 92 -35 135.5t-112 43.5q-46 0 -100 -21v-297h-131z" />
<glyph unicode="&#x495;" horiz-adv-x="529" d="M69 0v520h354v-104h-224v-140q48 22 106 22q51 0 89.5 -18t61.5 -49.5t34.5 -70.5t11.5 -85q0 -185 -161 -287l-62 89q42 26 70.5 73t28.5 116q0 36 -8.5 63t-32.5 45.5t-62 18.5q-43 0 -76 -22v-171h-130z" />
<glyph unicode="&#x496;" horiz-adv-x="998" d="M13 0l204 377v2l-188 345h141l155 -295h85v295h131v-295h84l155 295h142l-190 -345v-2l143 -264h107v-256h-117v143h-76l-164 316h-84v-316h-131v316h-85l-164 -316h-148z" />
<glyph unicode="&#x497;" horiz-adv-x="845" d="M13 0l159 267v2l-145 251h134l115 -202h64v202h121v-202h63l116 202h134l-145 -251v-2l93 -157h104v-232h-116v122h-64l-120 209h-65v-209h-121v209h-66l-119 -209h-142z" />
<glyph unicode="&#x498;" horiz-adv-x="568" d="M22 91l72 87q30 -31 73.5 -52.5t89.5 -21.5q59 0 94 29.5t35 81.5q0 24 -8.5 43t-23.5 31.5t-36 19.5t-48 7h-88v106h71q49 0 80.5 28.5t31.5 71.5q0 29 -11.5 51t-37.5 35.5t-62 13.5q-83 0 -157 -61l-53 96q96 79 232 79q93 0 158 -52.5t65 -144.5q0 -107 -100 -162v-2 q56 -17 88.5 -61t32.5 -107q0 -84 -52 -140t-135 -73v-137h-119v136q-116 18 -192 98z" />
<glyph unicode="&#x499;" horiz-adv-x="469" d="M22 64l56 83q24 -24 59 -41.5t72 -17.5q27 0 47.5 8.5t31.5 24t11 37.5q0 64 -87 64h-63v90h53q81 0 81 60q0 30 -20 46.5t-58 16.5q-61 0 -125 -43l-42 82q79 58 192 58q79 0 130.5 -38t51.5 -104q0 -84 -71 -118v-2q38 -14 62.5 -44t24.5 -75q0 -42 -18 -75t-49 -52.5 t-72 -28.5v-117h-114v114q-91 14 -153 72z" />
<glyph unicode="&#x49a;" horiz-adv-x="696" d="M88 0v724h131v-295h94l170 295h143l-205 -345v-2l152 -264h106v-256h-117v143h-72l-177 316h-94v-316h-131z" />
<glyph unicode="&#x49b;" horiz-adv-x="599" d="M69 0v520h130v-199h63l127 199h143l-165 -248v-2l110 -160h103v-232h-116v122h-61l-137 211h-67v-211h-130z" />
<glyph unicode="&#x49c;" horiz-adv-x="756" d="M88 0v724h131v-295h65v117h93v-117h42l170 295h142l-204 -345v-2l218 -377h-149l-177 316h-42v-118h-93v118h-65v-316h-131z" />
<glyph unicode="&#x49d;" horiz-adv-x="647" d="M69 0v520h130v-199h46v100h90v-100h15l126 199h144l-165 -248v-2l186 -270h-150l-137 211h-19v-102h-90v102h-46v-211h-130z" />
<glyph unicode="&#x49e;" horiz-adv-x="654" d="M22 531v89h69v104h131v-104h87v-89h-87v-102h94l171 295h142l-205 -345v-2l218 -377h-149l-177 316h-94v-316h-131v531h-69z" />
<glyph unicode="&#x49f;" horiz-adv-x="559" d="M69 0v539h-62v86h62v99h130v-99h103v-86h-103v-210h64l126 191h143l-164 -240v-2l185 -278h-149l-138 219h-67v-219h-130z" />
<glyph unicode="&#x4a0;" horiz-adv-x="785" d="M222 0v611h-206v113h337v-295h95l169 295h143l-205 -345v-2l217 -377h-148l-176 316h-95v-316h-131z" />
<glyph unicode="&#x4a1;" horiz-adv-x="635" d="M146 0v410h-137v110h266v-199h64l126 199h143l-164 -248v-2l185 -270h-150l-137 211h-67v-211h-129z" />
<glyph unicode="&#x4a2;" horiz-adv-x="811" d="M88 0v724h131v-307h332v307h130v-611h106v-256h-117v143h-119v304h-332v-304h-131z" />
<glyph unicode="&#x4a3;" horiz-adv-x="664" d="M69 0v520h130v-201h222v201h130v-410h92v-232h-117v122h-105v210h-222v-210h-130z" />
<glyph unicode="&#x4a4;" horiz-adv-x="960" d="M88 0v724h131v-307h313v307h417v-113h-286v-611h-131v304h-313v-304h-131z" />
<glyph unicode="&#x4a5;" horiz-adv-x="755" d="M69 0v520h130v-201h208v201h329v-110h-199v-410h-130v210h-208v-210h-130z" />
<glyph unicode="&#x4a6;" horiz-adv-x="1020" d="M88 0v724h517v-307q59 25 130 25q122 0 188 -77t66 -226q0 -167 -69.5 -246.5t-206.5 -79.5v106q31 0 54.5 10t43.5 33.5t30.5 68t10.5 108.5q0 101 -34.5 149t-111.5 48q-36 0 -101 -23v-313h-131v612h-255v-612h-131z" />
<glyph unicode="&#x4a7;" horiz-adv-x="851" d="M69 0v520h437v-209q50 24 107 24q98 0 155 -67t57 -174q0 -101 -44 -179t-117 -127l-62 89q42 28 70.5 81t28.5 130q0 66 -28 102t-84 36q-46 0 -83 -21v-205h-130v410h-177v-410h-130z" />
<glyph unicode="&#x4a8;" horiz-adv-x="958" d="M46 375q0 62 15.5 116t40 93t57.5 70.5t64 51t64 30.5l54 -118q-31 -13 -58 -33.5t-51.5 -50.5t-39 -72.5t-14.5 -91.5q0 -51 15.5 -97t45 -83.5t78 -59.5t109.5 -22q40 0 84 10q-66 56 -103.5 132.5t-37.5 168.5q0 137 77.5 221t193.5 84q118 0 191 -82t73 -212 q0 -85 -41 -167.5t-112 -146.5q43 -9 93 -9h52v-107h-54q-107 0 -203 40q-105 -52 -215 -52q-108 0 -193.5 47t-135 135.5t-49.5 204.5zM505 421q0 -80 31.5 -144t88.5 -106q66 46 104.5 114.5t38.5 143.5q0 81 -35.5 128t-93.5 47q-56 0 -95 -47t-39 -136z" />
<glyph unicode="&#x4a9;" horiz-adv-x="811" d="M38 269q0 54 17 100t45 77.5t59 52.5t64 33l45 -104q-47 -21 -78.5 -63t-31.5 -99q0 -33 11 -63.5t33 -56t59.5 -40.5t85.5 -15q34 0 67 7q-105 83 -105 210q0 95 64 159.5t167 64.5q100 0 160 -59t60 -147q0 -39 -14.5 -79.5t-40 -76.5t-60.5 -68q27 -4 63 -4h61v-98 h-55q-93 0 -177 32q-93 -44 -191 -44q-142 0 -225 78.5t-83 202.5zM430 311q0 -53 25.5 -96t71.5 -71q51 31 81.5 75.5t30.5 98.5q0 52 -27 83t-75 31q-49 0 -78 -34t-29 -87z" />
<glyph unicode="&#x4aa;" horiz-adv-x="730" d="M46 365q0 104 47 189t132.5 133.5t192.5 48.5q75 0 146 -24.5t121 -73.5l-63 -98q-39 34 -92.5 55t-105.5 21q-114 0 -178 -71.5t-64 -177.5q0 -69 27.5 -127t84 -95t131.5 -37q38 0 76.5 12t72.5 32.5t61 47.5l70 -95q-100 -102 -241 -115v-133h-118v137 q-91 15 -159.5 67.5t-104.5 131t-36 172.5z" />
<glyph unicode="&#x4ab;" horiz-adv-x="558" d="M38 260q0 114 78 193t204 79q57 0 111 -19.5t89 -57.5l-58 -89q-25 25 -61 40.5t-74 15.5q-46 0 -82.5 -21.5t-56 -58t-19.5 -81.5q0 -44 19.5 -81t57 -59.5t86.5 -22.5q40 0 81 18.5t71 47.5l50 -92q-62 -66 -168 -81v-113h-114v117q-65 13 -114 51t-74.5 93.5 t-25.5 120.5z" />
<glyph unicode="&#x4ac;" horiz-adv-x="638" d="M250 0l1 2v609h-238v113h606v-113h-238v-498h107v-256h-118v143h-120z" />
<glyph unicode="&#x4ad;" horiz-adv-x="517" d="M191 0v410h-172v110h473v-110h-173v-300h92v-232h-116v122h-104z" />
<glyph unicode="&#x4ae;" horiz-adv-x="604" d="M238 0v303l-242 421h149l113 -213l44 -97h2q21 52 44 97l112 213h149l-241 -421v-303h-130z" />
<glyph unicode="&#x4af;" horiz-adv-x="551" d="M212 14l-201 506h136l108 -297q5 -14 10 -33t7 -31l2 -12h2q10 45 20 76l108 297h137l-200 -506v-218h-129v218z" />
<glyph unicode="&#x4b0;" horiz-adv-x="604" d="M120 219v94h112l-236 411h149l113 -213l44 -97h2q21 52 44 97l112 213h149l-236 -411h119v-94h-124v-219h-130v219h-118z" />
<glyph unicode="&#x4b1;" horiz-adv-x="550" d="M92 0v90h90l-171 430h137l107 -297q5 -14 10 -33t7 -31l2 -12h2q10 45 20 76l107 297h137l-170 -430h91v-90h-120v-204h-129v204h-120z" />
<glyph unicode="&#x4b2;" horiz-adv-x="679" d="M13 0l225 367l-217 357h150l100 -177l45 -89h2q21 46 45 89l101 177h150l-217 -357l156 -254h110v-256h-118v143h-70l-113 195l-45 85h-2q-20 -43 -44 -85l-112 -195h-146z" />
<glyph unicode="&#x4b3;" horiz-adv-x="566" d="M15 0l172 263l-168 257h147l81 -142l16 -32h2q10 19 18 32l80 142h147l-167 -257l100 -153h101v-232h-117v122h-57l-90 151l-15 27h-2q-7 -16 -14 -27l-90 -151h-144z" />
<glyph unicode="&#x4b4;" horiz-adv-x="931" d="M222 0v611h-206v113h542v-113h-205v-498h324v611h131v-611h96v-256h-118v143h-564z" />
<glyph unicode="&#x4b5;" horiz-adv-x="759" d="M162 0v410h-142v110h415v-110h-143v-300h234v410h130v-410h79v-231h-117v121h-456z" />
<glyph unicode="&#x4b6;" horiz-adv-x="715" d="M268 269q-111 0 -166 56.5t-55 161.5v237h134v-208q0 -63 29 -95t92 -32q43 0 83 13t66 29v293h133v-611h107v-256h-118v143h-122v280l2 34h-2q-87 -45 -183 -45z" />
<glyph unicode="&#x4b7;" horiz-adv-x="599" d="M214.5 172q-79.5 0 -127.5 43.5t-48 130.5v174h127v-153q0 -87 89 -87q54 0 101 33v207h128v-410h94v-232h-115v122h-107v177l1 29h-2q-61 -34 -140.5 -34z" />
<glyph unicode="&#x4b8;" horiz-adv-x="697" d="M280 274q-118 0 -176.5 56.5t-58.5 161.5v232h133v-208q0 -58 25 -89.5t80 -36.5v139h93v-133q59 11 99 35v293h134v-724h-134v286l2 33h-2q-43 -20 -99 -33v-116h-93v104h-3z" />
<glyph unicode="&#x4b9;" horiz-adv-x="593" d="M227 175q-85 0 -136.5 42.5t-51.5 128.5v174h127v-153q0 -68 69 -83v120h89v-118q40 8 71 27v207h129v-520h-129v185l2 27h-2q-32 -16 -71 -24v-93h-89v80h-8z" />
<glyph unicode="&#x4ba;" horiz-adv-x="651" d="M88 0v724h131v-266l-2 -34h2q86 42 179 42q104 0 155 -59.5t51 -162.5v-244h-134v223q0 127 -114 127q-75 0 -137 -39v-311h-131z" />
<glyph unicode="&#x4bb;" d="M69 0v724h130v-253l-3 -44h2q21 43 69.5 74t110.5 31q182 0 182 -197v-335h-130v308q0 52 -17.5 79t-63.5 27q-67 0 -108.5 -48.5t-41.5 -123.5v-242h-130z" />
<glyph unicode="&#x4bc;" horiz-adv-x="910" d="M33 529q0 55 8 88l8 37h117l-8 -38q-8 -37 -8 -72q0 -105 76 -105q22 136 114 216.5t216 80.5q143 0 225 -93.5t82 -247.5l-4 -58h-501q6 -104 70 -166.5t158 -62.5q67 0 123.5 27.5t85.5 53.5l62 -100q-10 -9 -18 -16t-36 -24.5t-57.5 -29t-77 -21.5t-98.5 -10 q-144 0 -243 98t-107 252q-87 0 -137 48t-50 143zM359 439h371q0 78 -45 129.5t-129 51.5q-82 0 -135.5 -55t-61.5 -126z" />
<glyph unicode="&#x4bd;" horiz-adv-x="708" d="M28 405q0 36 10 73h103q-11 -33 -11 -66q0 -80 51 -88q19 95 88 151.5t170 56.5q108 0 169 -69.5t61 -176.5l-4 -50h-358q6 -66 50 -102t106 -36q37 0 74.5 14t55.5 29l19 14l51 -93q-3 -3 -9.5 -8t-27 -18t-43.5 -22.5t-58 -17.5t-71 -8q-119 0 -194.5 70.5t-84.5 177.5 q-147 3 -147 169zM310 324h229q-2 50 -31 79t-72 29q-49 0 -83 -29.5t-43 -78.5z" />
<glyph unicode="&#x4be;" horiz-adv-x="911" d="M33 529q0 55 8 88l8 37h117l-8 -38q-8 -37 -8 -72q0 -105 76 -105q22 136 114 216.5t216 80.5q143 0 225 -93.5t82 -247.5l-4 -58h-501q6 -104 70 -166.5t158 -62.5q67 0 123.5 27.5t85.5 53.5l62 -100q-95 -87 -242 -99v-133h-117v138q-118 24 -194.5 117t-83.5 226 q-87 0 -137 48t-50 143zM359 439h371q0 78 -45 129.5t-129 51.5q-82 0 -135.5 -55t-61.5 -126z" />
<glyph unicode="&#x4bf;" horiz-adv-x="708" d="M28 405q0 36 10 73h103q-11 -33 -11 -66q0 -80 51 -88q19 95 88 151.5t170 56.5q108 0 169 -69.5t61 -176.5l-4 -50h-358q6 -66 50 -102t106 -36q37 0 74.5 14t55.5 29l19 14l51 -93q-3 -2 -8 -6.5t-22.5 -15.5t-36.5 -20.5t-49 -18t-60 -11.5v-112h-115v120 q-85 23 -137.5 87.5t-59.5 150.5q-147 3 -147 169zM310 324h229q-2 50 -31 79t-72 29q-49 0 -83 -29.5t-43 -78.5z" />
<glyph unicode="&#x4c0;" horiz-adv-x="306" d="M88 0v724h129v-724h-129z" />
<glyph unicode="&#x4c1;" horiz-adv-x="950" d="M13 0l204 377v2l-188 345h141l155 -295h85v295h131v-295h84l155 295h142l-190 -345v-2l205 -377h-148l-164 316h-84v-316h-131v316h-85l-164 -316h-148zM479 757q-69 0 -118 38t-49 103v13h99v-13q0 -31 20.5 -48t47.5 -17q18 0 33.5 7t26 22t10.5 37v12h98v-13 q0 -33 -14 -60t-37 -44.5t-53 -27t-64 -9.5z" />
<glyph unicode="&#x4c2;" horiz-adv-x="800" d="M13 0l159 267v2l-145 251h134l115 -202h64v202h121v-202h63l116 202h134l-145 -251v-2l159 -267h-142l-120 209h-65v-209h-121v209h-66l-119 -209h-142zM400 570q-70 0 -118.5 38t-48.5 103v13h99v-13q0 -31 20 -47.5t48 -16.5q18 0 33 6.5t25.5 22t10.5 36.5v12h98v-13 q0 -65 -48.5 -103t-118.5 -38z" />
<glyph unicode="&#x4c3;" horiz-adv-x="670" d="M88 0v724h131v-295h94l170 295h143l-188 -318q84 -23 134.5 -96.5t50.5 -179.5q0 -143 -69 -230t-193 -87v111q53 0 89 45.5t36 149.5q0 64 -21.5 108.5t-66.5 68t-111 23.5h-68v-319h-131z" />
<glyph unicode="&#x4c4;" horiz-adv-x="564" d="M69 0v520h130v-200h63l127 200h143l-154 -231v-2q41 -14 71 -39.5t46 -57t23 -63.5t7 -67q0 -96 -47.5 -165.5t-115.5 -106.5l-60 90q42 21 71 65t29 117q0 69 -40 109.5t-116 40.5h-47v-210h-130z" />
<glyph unicode="&#x4c5;" horiz-adv-x="757" d="M14 112q81 11 118.5 108.5t37.5 305.5v198h448v-611h123v-71l-81 -185h-92l40 143h-121v611h-191v-87q0 -267 -66.5 -397t-215.5 -135v120z" />
<glyph unicode="&#x4c6;" horiz-adv-x="630" d="M20 -5v114q35 5 58 27t37.5 77t14.5 144v163h379v-411h101v-68l-70 -163h-87l34 122h-108v415h-126v-58q0 -177 -54 -267.5t-179 -94.5z" />
<glyph unicode="&#x4c7;" horiz-adv-x="769" d="M88 0v724h131v-307h332v307h130l1 -653q1 -65 -13.5 -114t-37.5 -77t-55.5 -44.5t-63 -21t-65.5 -2.5v112q20 0 36 5t32.5 19t26 44.5t9.5 75.5v236h-332v-304h-131z" />
<glyph unicode="&#x4c8;" horiz-adv-x="621" d="M69 0v520h130v-201h222v201h130v-463q0 -70 -21 -121.5t-53 -83.5t-85 -64l-68 92q25 14 41.5 28.5t29.5 35t19.5 48t6.5 64.5v154h-222v-210h-130z" />
<glyph unicode="&#x4c9;" horiz-adv-x="821" d="M88 0v724h131v-307h332v307h130v-611h123v-71l-81 -185h-92l40 143h-120v304h-332v-304h-131z" />
<glyph unicode="&#x4ca;" horiz-adv-x="672" d="M69 0v520h130v-201h222v201h130v-411h101v-68l-71 -163h-86l33 122h-107v210h-222v-210h-130z" />
<glyph unicode="&#x4cb;" horiz-adv-x="672" d="M268 269q-111 0 -166 56.5t-55 161.5v237h134v-208q0 -63 29 -95t92 -32q43 0 83 13t66 29v293h133v-724h-122v-143h-118v256h107v167l2 34h-2q-87 -45 -183 -45z" />
<glyph unicode="&#x4cc;" horiz-adv-x="555" d="M265 84h92v111l1 27h-1q-28 -15 -69.5 -25.5t-83.5 -10.5q-75 0 -120.5 42.5t-45.5 127.5v164h127v-143q0 -86 86 -86q56 0 106 32v197h130v-520h-106v-122h-116v206z" />
<glyph unicode="&#x4cd;" horiz-adv-x="936" d="M60 0l59 724h140l143 -358l36 -106h2q19 63 35 106l143 358h140l50 -611h122v-71l-80 -185h-91l39 143h-113l-29 405q-2 21 -2 49v46l1 17h-2q-24 -70 -40 -112l-117 -281h-115l-117 281l-40 113h-2q3 -65 -1 -113l-29 -405h-132z" />
<glyph unicode="&#x4ce;" horiz-adv-x="818" d="M48 0l47 520h147l110 -268l25 -66h2q15 36 26 66l112 268h145l37 -411h108v-68l-71 -163h-87l33 122h-98l-18 282l1 88h-2q-14 -39 -31 -75l-102 -230h-107l-102 229l-31 76h-2q0 -6 0.5 -15t1 -35t-0.5 -38l-19 -282h-124z" />
<glyph unicode="&#x4cf;" horiz-adv-x="268" d="M69 0v724h130v-724h-130z" />
<glyph unicode="&#x4d0;" horiz-adv-x="663" d="M8 0l254 724h139l254 -724h-135l-62 186h-254l-61 -186h-135zM237 293h188l-64 194l-28 112h-3q-16 -72 -28 -112zM329 757q-69 0 -118 38t-49 103v13h99v-13q0 -31 20.5 -48t47.5 -17q28 0 49 17t21 49v12h98v-13q0 -44 -23.5 -76.5t-61 -48.5t-83.5 -16z" />
<glyph unicode="&#x4d1;" horiz-adv-x="547" d="M30 144q0 32 10.5 59t28.5 45.5t43.5 32.5t52 22.5t57.5 14t57 7t54 1.5h22v8q0 48 -27 69.5t-71 21.5q-72 0 -145 -50l-48 93q34 27 91 45.5t113 18.5q102 0 159 -54t57 -153v-325h-120v44l3 38h-2q-24 -43 -68 -68.5t-96 -25.5q-72 0 -121.5 43t-49.5 113zM158 155 q0 -28 21 -48t58 -20q51 0 85 42.5t34 93.5v15h-22q-176 0 -176 -83zM283.5 570q-45.5 0 -83 16t-61 49t-23.5 76v13h99v-13q0 -31 20.5 -47.5t48.5 -16.5q17 0 32.5 6.5t26 22t10.5 36.5v12h98v-13q0 -43 -23.5 -76t-61 -49t-83 -16z" />
<glyph unicode="&#x4d2;" horiz-adv-x="663" d="M8 0l254 724h139l254 -724h-135l-62 186h-254l-61 -186h-135zM237 293h188l-64 194l-28 112h-3q-16 -72 -28 -112zM375 793v118h99v-118h-99zM188 793v118h100v-118h-100z" />
<glyph unicode="&#x4d3;" horiz-adv-x="547" d="M30 144q0 32 10.5 59t28.5 45.5t43.5 32.5t52 22.5t57.5 14t57 7t54 1.5h22v8q0 48 -27 69.5t-71 21.5q-72 0 -145 -50l-48 93q34 27 91 45.5t113 18.5q102 0 159 -54t57 -153v-325h-120v44l3 38h-2q-24 -43 -68 -68.5t-96 -25.5q-72 0 -121.5 43t-49.5 113zM158 155 q0 -28 21 -48t58 -20q51 0 85 42.5t34 93.5v15h-22q-176 0 -176 -83zM316 606v118h99v-118h-99zM129 606v118h99v-118h-99z" />
<glyph unicode="&#x4d4;" horiz-adv-x="923" d="M1 0l300 724h565v-113h-303v-190h244v-113h-244v-195h318v-113h-449v310h-173l-121 -310h-137zM301 417h131v194h-54z" />
<glyph unicode="&#x4d5;" horiz-adv-x="876" d="M30 150q0 176 308 176h17v8q0 91 -101 91q-71 0 -143 -50l-48 92q23 19 55.5 34t70.5 23t74 8q121 0 169 -76h3q62 76 173 76q106 0 167.5 -70t61.5 -177q0 -10 -1 -27.5t-2 -20.5h-356q7 -68 49 -103.5t104 -35.5q82 0 150 56l50 -92q-24 -22 -59 -39t-74 -26t-76 -9 q-149 0 -217 114h-2q-6 -13 -18 -28.5t-34.5 -36.5t-60.5 -34.5t-83 -13.5q-75 0 -126 43.5t-51 117.5zM482 326h225q-2 48 -30.5 76.5t-69.5 28.5q-50 0 -82.5 -27.5t-42.5 -77.5zM160 156q0 -29 20.5 -48t59.5 -19q33 0 60.5 21t42 52.5t14.5 63.5v11h-37 q-29 0 -54.5 -3.5t-50.5 -12t-40 -25t-15 -40.5z" />
<glyph unicode="&#x4d6;" horiz-adv-x="580" d="M88 0v724h433v-113h-302v-190h244v-113h-244v-195h319v-113h-450zM310 757q-70 0 -118.5 38t-48.5 103v13h99v-13q0 -31 20 -48t48 -17t48.5 17t20.5 49v12h98v-13q0 -44 -23.5 -76.5t-61 -48.5t-82.5 -16z" />
<glyph unicode="&#x4d7;" horiz-adv-x="572" d="M38 260q0 120 74 196t191 76q108 0 169 -69.5t61 -176.5q0 -18 -4 -50h-358q6 -66 50 -102t106 -36q78 0 149 57l51 -93q-39 -35 -95.5 -54.5t-113.5 -19.5q-126 0 -203 79t-77 193zM174 324h230q0 26 -8.5 47t-22.5 34.5t-32.5 21.5t-40.5 8q-33 0 -59.5 -14t-43 -39 t-23.5 -58zM298 570q-70 0 -118.5 38t-48.5 103v13h99v-13q0 -31 20 -47.5t48 -16.5q18 0 33 6.5t25.5 22t10.5 36.5v12h98v-13q0 -43 -23.5 -76t-61 -49t-82.5 -16z" />
<glyph unicode="&#x4d8;" horiz-adv-x="738" d="M47 344l4 63h503q-4 46 -21 84.5t-45 66t-67.5 43t-85.5 15.5q-69 0 -126.5 -25.5t-86.5 -50.5l-63 98q14 11 29 21.5t53 31t93 33t117 12.5q101 0 179.5 -51t120.5 -135.5t42 -186.5q0 -164 -92.5 -269.5t-241.5 -105.5q-146 0 -229 95t-83 261zM180 305 q0 -95 45.5 -148t136.5 -53q85 0 137 55t54 146h-373z" />
<glyph unicode="&#x4d9;" horiz-adv-x="572" d="M38 241l4 56h360q-7 61 -49 96t-100 35q-39 0 -78 -13.5t-59 -27.5l-20 -14l-48 90q104 69 221 69q121 0 193 -77.5t72 -194.5q0 -122 -72.5 -197t-188.5 -75q-74 0 -128 33t-80.5 89.5t-26.5 130.5zM172 209q2 -61 30.5 -91t73.5 -30q52 0 86 31.5t36 89.5h-226z" />
<glyph unicode="&#x4da;" horiz-adv-x="738" d="M403 793v118h99v-118h-99zM215 793v118h100v-118h-100zM47 344l4 63h503q-4 46 -21 84.5t-45 66t-67.5 43t-85.5 15.5q-69 0 -126.5 -25.5t-86.5 -50.5l-63 98q14 11 29 21.5t53 31t93 33t117 12.5q101 0 179.5 -51t120.5 -135.5t42 -186.5q0 -164 -92.5 -269.5 t-241.5 -105.5q-146 0 -229 95t-83 261zM180 305q0 -95 45.5 -148t136.5 -53q85 0 137 55t54 146h-373z" />
<glyph unicode="&#x4db;" horiz-adv-x="572" d="M313 606v118h99v-118h-99zM125 606v118h100v-118h-100zM38 241l4 56h360q-7 61 -49 96t-100 35q-39 0 -78 -13.5t-59 -27.5l-20 -14l-48 90q104 69 221 69q121 0 193 -77.5t72 -194.5q0 -122 -72.5 -197t-188.5 -75q-74 0 -128 33t-80.5 89.5t-26.5 130.5zM172 209 q2 -61 30.5 -91t73.5 -30q52 0 86 31.5t36 89.5h-226z" />
<glyph unicode="&#x4dc;" horiz-adv-x="950" d="M13 0l204 377v2l-188 345h141l155 -295h85v295h131v-295h84l155 295h142l-190 -345v-2l205 -377h-148l-164 316h-84v-316h-131v316h-85l-164 -316h-148zM523 793v118h99v-118h-99zM336 793v118h100v-118h-100z" />
<glyph unicode="&#x4dd;" horiz-adv-x="800" d="M445 606v118h99v-118h-99zM257 606v118h100v-118h-100zM13 0l159 267v2l-145 251h134l115 -202h64v202h121v-202h63l116 202h134l-145 -251v-2l159 -267h-142l-120 209h-65v-209h-121v209h-66l-119 -209h-142z" />
<glyph unicode="&#x4de;" horiz-adv-x="566" d="M320 793v118h99v-118h-99zM133 793v118h100v-118h-100zM22 91l72 87q30 -31 73.5 -52.5t89.5 -21.5q59 0 94 29.5t35 81.5q0 24 -8.5 43t-23.5 31.5t-36 19.5t-48 7h-88v106h71q49 0 80.5 28.5t31.5 71.5q0 29 -11.5 51t-37.5 35.5t-62 13.5q-83 0 -157 -61l-53 96 q96 79 232 79q93 0 158 -52.5t65 -144.5q0 -107 -100 -162v-2q56 -17 88.5 -61t32.5 -107q0 -100 -72 -159.5t-179 -59.5q-69 0 -134.5 27t-112.5 76z" />
<glyph unicode="&#x4df;" horiz-adv-x="467" d="M267 606v118h99v-118h-99zM80 606v118h100v-118h-100zM22 64l56 83q24 -24 59 -41.5t72 -17.5q27 0 47.5 8.5t31.5 24t11 37.5q0 64 -87 64h-63v90h53q81 0 81 60q0 30 -20 46.5t-58 16.5q-61 0 -125 -43l-42 82q79 58 192 58q79 0 130.5 -38t51.5 -104q0 -84 -71 -118 v-2q38 -14 62.5 -44t24.5 -75q0 -78 -57.5 -120.5t-147.5 -42.5q-57 0 -110.5 21t-90.5 55z" />
<glyph unicode="&#x4e0;" horiz-adv-x="543" d="M73 145q30 -21 74.5 -34.5t85.5 -13.5q63 0 100.5 31.5t37.5 82.5q0 43 -23 66.5t-75 30.5q-18 2 -159 2v85l172 183q5 6 12 12t12 10.5t9.5 8t7.5 4.5l2 2v2q-27 -3 -62 -3h-219v110h427v-102l-181 -186q-7 -7 -14 -13t-12 -9l-4 -3v-2q57 -3 88 -10q44 -10 75 -30.5 t45.5 -48t20.5 -52.5t6 -54q0 -70 -35.5 -122t-93.5 -77t-130 -25q-117 0 -208 60z" />
<glyph unicode="&#x4e1;" horiz-adv-x="503" d="M49 -59q30 -21 74.5 -34.5t84.5 -13.5q63 0 101 31.5t38 82.5q0 43 -23.5 66.5t-74.5 30.5q-18 2 -159 2v85l171 183q9 10 20 19t18 14l6 4v2q-28 -3 -62 -3h-220v110h428v-102l-182 -186q-6 -7 -13.5 -13t-11.5 -9l-4 -3v-2q57 -3 87 -10q45 -10 75.5 -30.5t45.5 -48 t20.5 -52.5t5.5 -54q0 -70 -35.5 -122t-93.5 -77t-130 -25q-117 0 -208 60z" />
<glyph unicode="&#x4e2;" horiz-adv-x="768" d="M263 799v88h267v-88h-267zM88 0v724h131v-418q0 -19 -1.5 -47t-3.5 -47l-2 -18h2q35 70 61 113l274 417h130v-724h-130v417q0 19 1.5 47t3.5 47l2 18h-2q-34 -69 -60 -112l-276 -417h-130z" />
<glyph unicode="&#x4e3;" horiz-adv-x="618" d="M69 0v520h124v-278q0 -38 -3 -62h2q4 8 39 62l192 278h126v-520h-124v277q0 23 3 63h-2q-3 -8 -38 -63l-193 -277h-126zM181 612v89h267v-89h-267z" />
<glyph unicode="&#x4e4;" horiz-adv-x="768" d="M429 793v118h99v-118h-99zM242 793v118h100v-118h-100zM88 0v724h131v-418q0 -19 -1.5 -47t-3.5 -47l-2 -18h2q35 70 61 113l274 417h130v-724h-130v417q0 19 1.5 47t3.5 47l2 18h-2q-34 -69 -60 -112l-276 -417h-130z" />
<glyph unicode="&#x4e5;" horiz-adv-x="618" d="M356 606v118h99v-118h-99zM168 606v118h100v-118h-100zM69 0v520h124v-278q0 -38 -3 -62h2q4 8 39 62l192 278h126v-520h-124v277q0 23 3 63h-2q-3 -8 -38 -63l-193 -277h-126z" />
<glyph unicode="&#x4e6;" horiz-adv-x="838" d="M462 793v118h99v-118h-99zM274 793v118h100v-118h-100zM45 367q0 103 47.5 187t133.5 133t193.5 49t193.5 -49t133.5 -133t47.5 -187q0 -106 -47.5 -192.5t-133.5 -136.5t-193.5 -50t-193.5 50t-133.5 136.5t-47.5 192.5zM181 367q0 -111 67.5 -185t170.5 -74q41 0 78 13 t66 36.5t50.5 55t33 71.5t11.5 83q0 106 -67.5 177.5t-171 71.5t-171 -71.5t-67.5 -177.5z" />
<glyph unicode="&#x4e7;" horiz-adv-x="646" d="M368 606v118h99v-118h-99zM181 606v118h99v-118h-99zM38 260q0 118 82.5 195t201.5 77q121 0 204 -77t83 -195t-82.5 -195t-203 -77t-203 77t-82.5 195zM169 260q0 -71 45 -116.5t109.5 -45.5t109.5 45.5t45 116.5t-45 116.5t-109.5 45.5t-109.5 -45.5t-45 -116.5z" />
<glyph unicode="&#x4e8;" horiz-adv-x="838" d="M45 367q0 103 48 187.5t134.5 133t192 48.5t191.5 -48.5t134.5 -133t48.5 -187.5q0 -105 -48.5 -192t-134.5 -137t-192 -50q-79 0 -149 29.5t-119 80t-77.5 120.5t-28.5 149zM420 103q89 0 155 59t82 151h-475q17 -93 82.5 -151.5t155.5 -58.5zM420 619q-91 0 -157 -57 t-81 -147h476q-16 89 -82.5 146.5t-155.5 57.5z" />
<glyph unicode="&#x4e9;" horiz-adv-x="646" d="M38 260q0 118 82.5 195t201.5 77q121 0 204 -77t83 -195t-82.5 -195t-203 -77t-203 77t-82.5 195zM324 84q61 0 107 38.5t58 101.5h-330q7 -42 30.5 -74t58.5 -49t76 -17zM324 436q-61 0 -106.5 -37t-57.5 -98h328q-7 30 -22.5 55.5t-37 42.5t-48 27t-56.5 10z" />
<glyph unicode="&#x4ea;" horiz-adv-x="838" d="M45 367q0 103 48 187.5t134.5 133t192 48.5t191.5 -48.5t134.5 -133t48.5 -187.5q0 -105 -48.5 -192t-134.5 -137t-192 -50q-79 0 -149 29.5t-119 80t-77.5 120.5t-28.5 149zM420 103q89 0 155 59t82 151h-475q17 -93 82.5 -151.5t155.5 -58.5zM420 619q-91 0 -157 -57 t-81 -147h476q-16 89 -82.5 146.5t-155.5 57.5zM275 793v118h100v-118h-100zM463 793v118h99v-118h-99z" />
<glyph unicode="&#x4eb;" horiz-adv-x="646" d="M38 260q0 118 82.5 195t201.5 77q121 0 204 -77t83 -195t-82.5 -195t-203 -77t-203 77t-82.5 195zM324 84q61 0 107 38.5t58 101.5h-330q7 -42 30.5 -74t58.5 -49t76 -17zM324 436q-61 0 -106.5 -37t-57.5 -98h328q-7 30 -22.5 55.5t-37 42.5t-48 27t-56.5 10zM178 606 v118h100v-118h-100zM366 606v118h99v-118h-99z" />
<glyph unicode="&#x4ec;" horiz-adv-x="730" d="M376 793v118h99v-118h-99zM189 793v118h100v-118h-100zM29 99l66 93q39 -38 96.5 -61.5t118.5 -23.5q96 0 159 57t77 145h-347v107h348q-12 88 -76 144.5t-160 56.5q-112 0 -206 -81l-63 98q49 50 121.5 76t151.5 26q83 0 153 -28.5t117.5 -78.5t73.5 -118t26 -145 q0 -106 -47.5 -192.5t-133.5 -136t-194 -49.5q-165 0 -281 111z" />
<glyph unicode="&#x4ed;" horiz-adv-x="556" d="M304 606v118h99v-118h-99zM116 606v118h100v-118h-100zM24 64l48 90q67 -63 158 -63q64 0 108.5 34.5t55.5 90.5h-228v89h228q-6 28 -20 51t-35 39.5t-47.5 25t-56.5 8.5q-83 0 -145 -56l-55 87q23 24 57.5 40.5t72 24t75.5 7.5q125 0 202 -78.5t77 -193.5 q0 -76 -34 -137.5t-99 -98t-149 -36.5q-127 0 -213 76z" />
<glyph unicode="&#x4ee;" d="M181 799v88h267v-88h-267zM68 38l58 99q46 -36 82 -36q26 0 43 16t29 47l-283 560h145l154 -323q6 -14 13 -28.5t11.5 -26t8.5 -21.5l6 -15l2 -5h2q13 48 29 95l116 324h138l-223 -572q-13 -33 -27.5 -59t-36.5 -51.5t-53 -39.5t-69 -14q-73 0 -145 50z" />
<glyph unicode="&#x4ef;" horiz-adv-x="555" d="M56 -84q29 -21 57 -21t52.5 17t38.5 50l19 46l-219 512h146l109 -300q5 -12 9.5 -29.5t7.5 -29.5l2 -11h2q10 41 18 68l102 302h141l-232 -599q-25 -67 -76 -101t-112 -34q-27 0 -54 8.5t-41 16.5l-13 8zM145 612v89h267v-89h-267z" />
<glyph unicode="&#x4f0;" d="M364 793v118h99v-118h-99zM176 793v118h100v-118h-100zM68 38l58 99q46 -36 82 -36q26 0 43 16t29 47l-283 560h145l154 -323q6 -14 13 -28.5t11.5 -26t8.5 -21.5l6 -15l2 -5h2q13 48 29 95l116 324h138l-223 -572q-13 -33 -27.5 -59t-36.5 -51.5t-53 -39.5t-69 -14 q-73 0 -145 50z" />
<glyph unicode="&#x4f1;" horiz-adv-x="555" d="M56 -84q29 -21 57 -21t52.5 17t38.5 50l19 46l-219 512h146l109 -300q5 -12 9.5 -29.5t7.5 -29.5l2 -11h2q10 41 18 68l102 302h141l-232 -599q-25 -67 -76 -101t-112 -34q-27 0 -54 8.5t-41 16.5l-13 8zM322 606v118h99v-118h-99zM135 606v118h100v-118h-100z" />
<glyph unicode="&#x4f2;" d="M68 38l58 99q46 -36 82 -36q26 0 43 16t29 47l-283 560h145l154 -323q6 -14 13 -28.5t11.5 -26t8.5 -21.5l6 -15l2 -5h2q13 48 29 95l116 324h138l-223 -572q-13 -33 -27.5 -59t-36.5 -51.5t-53 -39.5t-69 -14q-73 0 -145 50zM353 772l77 139h128l-106 -139h-99zM174 772 l73 139h110l-75 -139h-108z" />
<glyph unicode="&#x4f3;" horiz-adv-x="555" d="M56 -84q29 -21 57 -21t52.5 17t38.5 50l19 46l-219 512h146l109 -300q5 -12 9.5 -29.5t7.5 -29.5l2 -11h2q10 41 18 68l102 302h141l-232 -599q-25 -67 -76 -101t-112 -34q-27 0 -54 8.5t-41 16.5l-13 8zM307 585l78 139h127l-106 -139h-99zM129 585l72 139h110l-75 -139 h-107z" />
<glyph unicode="&#x4f4;" horiz-adv-x="673" d="M268 269q-111 0 -166 56.5t-55 161.5v237h134v-208q0 -63 29 -95t92 -32q43 0 83 13t66 29v293h133v-724h-133v280l2 34h-2q-87 -45 -183 -45zM367 793v118h99v-118h-99zM180 793v118h99v-118h-99z" />
<glyph unicode="&#x4f5;" horiz-adv-x="554" d="M310 606v118h99v-118h-99zM122 606v118h100v-118h-100zM214.5 172q-79.5 0 -127.5 43.5t-48 130.5v174h127v-153q0 -87 89 -87q54 0 101 33v207h128v-520h-128v177l1 29h-2q-61 -34 -140.5 -34z" />
<glyph unicode="&#x4f6;" horiz-adv-x="520" d="M88 0v724h416v-113h-285v-498h106v-256h-117v143h-120z" />
<glyph unicode="&#x4f7;" horiz-adv-x="434" d="M69 0v520h342v-110h-212v-300h92v-232h-117v122h-105z" />
<glyph unicode="&#x4f8;" horiz-adv-x="893" d="M491 793v118h99v-118h-99zM303 793v118h100v-118h-100zM674 0v724h131v-724h-131zM88 0v724h131v-254h135q100 0 163 -64.5t63 -171.5q0 -104 -62 -169t-161 -65h-269zM219 113h115q53 0 83 32.5t30 88.5t-31 89.5t-84 33.5h-113v-244z" />
<glyph unicode="&#x4f9;" horiz-adv-x="757" d="M422 606v118h99v-118h-99zM235 606v118h100v-118h-100zM559 0v520h129v-520h-129zM69 0v520h130v-178h93q93 0 144.5 -44.5t51.5 -128.5q0 -79 -49 -124t-148 -45h-222zM199 89h71q29 0 49 10.5t29 28.5t9 42q0 25 -9 43.5t-29.5 29.5t-50.5 11h-69v-165z" />
<glyph unicode="&#x2000;" horiz-adv-x="460" />
<glyph unicode="&#x2001;" horiz-adv-x="920" />
<glyph unicode="&#x2002;" horiz-adv-x="460" />
<glyph unicode="&#x2003;" horiz-adv-x="920" />
<glyph unicode="&#x2004;" horiz-adv-x="306" />
<glyph unicode="&#x2005;" horiz-adv-x="230" />
<glyph unicode="&#x2006;" horiz-adv-x="153" />
<glyph unicode="&#x2007;" horiz-adv-x="153" />
<glyph unicode="&#x2008;" horiz-adv-x="115" />
<glyph unicode="&#x2009;" horiz-adv-x="184" />
<glyph unicode="&#x200a;" horiz-adv-x="51" />
<glyph unicode="&#x2010;" horiz-adv-x="440" d="M67 235v113h306v-113h-306z" />
<glyph unicode="&#x2011;" horiz-adv-x="440" d="M67 235v113h306v-113h-306z" />
<glyph unicode="&#x2012;" horiz-adv-x="440" d="M67 235v113h306v-113h-306z" />
<glyph unicode="&#x2013;" horiz-adv-x="702" d="M69 241v101h564v-101h-564z" />
<glyph unicode="&#x2014;" horiz-adv-x="906" d="M69 241v101h768v-101h-768z" />
<glyph unicode="&#x2018;" horiz-adv-x="267" d="M53 514l77 222h90l-48 -222h-119z" />
<glyph unicode="&#x2019;" horiz-adv-x="260" d="M58 514l48 222h119l-76 -222h-91z" />
<glyph unicode="&#x201a;" horiz-adv-x="270" d="M41 -91l49 223h115l-75 -223h-89z" />
<glyph unicode="&#x201c;" horiz-adv-x="434" d="M219 514l77 222h92l-48 -222h-121zM53 514l77 222h91l-49 -222h-119z" />
<glyph unicode="&#x201d;" horiz-adv-x="427" d="M224 514l48 222h121l-77 -222h-92zM58 514l48 222h119l-75 -222h-92z" />
<glyph unicode="&#x201e;" horiz-adv-x="432" d="M204 -91l48 223h116l-76 -223h-88zM41 -91l49 223h115l-75 -223h-89z" />
<glyph unicode="&#x2022;" horiz-adv-x="503" d="M252 126q-70 0 -120 50t-50 120.5t50 120.5t120 50q71 0 120.5 -50t49.5 -120.5t-49.5 -120.5t-120.5 -50z" />
<glyph unicode="&#x2026;" horiz-adv-x="841" d="M648 0v131h126v-131h-126zM358 0v131h125v-131h-125zM67 0v131h126v-131h-126z" />
<glyph unicode="&#x202f;" horiz-adv-x="184" />
<glyph unicode="&#x2039;" horiz-adv-x="380" d="M208 79l-167 209l167 210h124l-168 -210l168 -209h-124z" />
<glyph unicode="&#x203a;" horiz-adv-x="380" d="M49 79l167 209l-167 210h123l168 -210l-168 -209h-123z" />
<glyph unicode="&#x205f;" horiz-adv-x="230" />
<glyph unicode="&#x20ac;" horiz-adv-x="597" d="M27 255v78h57q-5 25 -1 63h-56v78h70q33 117 128.5 189.5t220.5 72.5q51 0 109 -13l-32 -119q-32 10 -80 10q-72 0 -126.5 -37.5t-78.5 -102.5h260l-17 -78h-262q-4 -28 1 -63h249l-15 -78h-211q24 -66 79 -104.5t126 -38.5q48 0 94 14l24 -120q-53 -18 -120 -18 q-129 0 -223 73.5t-126 193.5h-70z" />
<glyph unicode="&#x2122;" horiz-adv-x="1024" d="M486 272l35 452h91l93 -213q1 -4 3 -8t3.5 -8t2.5 -8t2 -7.5t1.5 -6t1.5 -3.5v-2h2q6 26 13 43l94 213h91l34 -452h-97l-18 233l1 32h-2l-78 -182h-78l-79 182h-2l1 -32l-18 -233h-97zM211 272v367h-152v85h399v-85h-150v-367h-97z" />
<glyph unicode="&#x25fc;" horiz-adv-x="520" d="M0 520h520v-520h-520v520z" />
</font>
</defs>
</svg>
