<?xml version="1.0" standalone="no"?>
<!DOCTYPE svg PUBLIC "-//W3C//DTD SVG 1.1//EN" "http://www.w3.org/Graphics/SVG/1.1/DTD/svg11.dtd" >
<svg xmlns="http://www.w3.org/2000/svg" xmlns:xlink="http://www.w3.org/1999/xlink" version="1.1">
<metadata></metadata>
<defs>
<font id="museo_sans_cyrl500" horiz-adv-x="767" >
<font-face units-per-em="1000" ascent="750" descent="-250" />
<missing-glyph horiz-adv-x="255" />
<glyph horiz-adv-x="0" />
<glyph horiz-adv-x="333" />
<glyph unicode=" "  horiz-adv-x="255" />
<glyph unicode="&#x09;" horiz-adv-x="255" />
<glyph unicode="&#xa0;" horiz-adv-x="255" />
<glyph unicode="!" horiz-adv-x="280" d="M95 198l-6 522h102l-7 -522h-89zM89 0v101h102v-101h-102z" />
<glyph unicode="&#x22;" horiz-adv-x="372" d="M219 541v191h78v-191h-78zM75 541v191h79v-191h-79z" />
<glyph unicode="#" horiz-adv-x="735" d="M144 0l33 195h-133l13 74h134l30 173h-132l12 74h133l35 204h83l-36 -204h158l36 204h83l-36 -204h134l-14 -74h-132l-31 -173h132l-13 -74h-131l-35 -195h-82l33 195h-158l-34 -195h-82zM273 269h158l31 173h-159z" />
<glyph unicode="$" horiz-adv-x="588" d="M61 83l56 76q34 -34 84.5 -55.5t99.5 -21.5q53 0 88.5 28t35.5 78q0 26 -15 48t-40 37.5t-56.5 31t-64.5 29t-65 32.5t-56.5 40.5t-40 53.5t-15.5 71q0 75 53 130.5t137 67.5v96h72v-95q103 -6 175 -71l-46 -83q-31 28 -74 46t-84 18q-37 0 -67.5 -15t-47 -39t-16.5 -53 q0 -25 15.5 -46t40 -35t56.5 -29t65 -28t64.5 -32.5t56.5 -41.5t40 -55.5t15 -74.5q0 -79 -52 -135t-141 -66v-94h-72v94q-56 5 -110 29t-91 64z" />
<glyph unicode="%" horiz-adv-x="778" d="M204 430q-64 0 -109 44.5t-45 106.5q0 63 45 107t109 44q42 0 78 -20t57 -55t21 -76q0 -62 -46 -106.5t-110 -44.5zM65 0l552 720h96l-551 -720h-97zM204 506q32 0 54 21.5t22 53.5t-22 54.5t-54 22.5q-15 0 -29 -6t-24 -16.5t-15.5 -24.5t-5.5 -30q0 -21 9.5 -38 t26.5 -27t38 -10zM420 138q0 63 45 107.5t109 44.5t109.5 -45t45.5 -107t-45.5 -106t-109.5 -44t-109 44t-45 106zM500 139q0 -16 5.5 -30t15.5 -24t24 -16t29 -6q32 0 54 22t22 53.5t-22 54t-54 22.5t-53 -22.5t-21 -53.5z" />
<glyph unicode="&#x26;" horiz-adv-x="687" d="M57 201q0 62 34 114t93 71v2q-29 12 -50 33.5t-33.5 54t-12.5 71.5q0 87 61.5 136t160.5 49q41 0 88 -11l-26 -80q-23 6 -54 6q-55 0 -91 -29.5t-36 -80.5q0 -20 5.5 -37.5t18.5 -36t40.5 -29.5t66.5 -11h134v98h100v-98h96v-87h-96v-96q0 -120 -66.5 -186t-183.5 -66 q-110 0 -179.5 60.5t-69.5 152.5zM160 207q0 -53 40 -89.5t106 -36.5q72 0 111 40.5t39 123.5v91h-137q-76 0 -117.5 -34t-41.5 -95z" />
<glyph unicode="'" horiz-adv-x="230" d="M75 541v191h79v-191h-79z" />
<glyph unicode="(" horiz-adv-x="298" d="M172 -97q-56 94 -87 208.5t-31 235.5q0 214 118 403h87q-115 -193 -115 -404q0 -234 115 -443h-87z" />
<glyph unicode=")" horiz-adv-x="298" d="M40 -97q115 209 115 443q0 211 -115 404h86q119 -189 119 -403q0 -121 -31 -235.5t-88 -208.5h-86z" />
<glyph unicode="*" horiz-adv-x="504" d="M173 336l-74 53l92 112v2l-140 38l28 86l135 -52l-8 145h93l-8 -145l136 51l28 -84l-140 -39v-2l91 -112l-73 -53l-80 120h-2z" />
<glyph unicode="+" horiz-adv-x="588" d="M24 251v79h229v251h84v-251h227v-79h-227v-251h-84v251h-229z" />
<glyph unicode="," horiz-adv-x="277" d="M36 -103l63 210h104l-89 -210h-78z" />
<glyph unicode="-" horiz-adv-x="440" d="M71 247v88h298v-88h-298z" />
<glyph unicode="." horiz-adv-x="248" d="M71 0v107h106v-107h-106z" />
<glyph unicode="/" horiz-adv-x="424" d="M39 -43l259 802h88l-260 -802h-87z" />
<glyph unicode="0" horiz-adv-x="634" d="M317 -12q-70 0 -120.5 28.5t-79 80.5t-42 117.5t-13.5 146.5t13.5 146t42 117t79 80t120.5 28t121 -28t79.5 -80t41.5 -117t13 -146q0 -82 -13 -147t-41.5 -117t-79.5 -80.5t-121 -28.5zM317 81q43 0 73.5 21t47 60.5t23.5 87.5t7 111q0 62 -7 110t-23.5 87.5t-47 60.5 t-73.5 21q-151 0 -151 -279q0 -280 151 -280z" />
<glyph unicode="1" horiz-adv-x="503" d="M58 0v88h159v465l1 44h-2q-8 -16 -34 -42l-68 -65l-61 63l172 167h90v-632h158v-88h-415z" />
<glyph unicode="2" horiz-adv-x="584" d="M61 0q-5 32 -5 55q0 46 15.5 86.5t40 70t56.5 58t65 50t65 45.5t57 45.5t40 49.5t15 58q0 53 -36.5 86.5t-94.5 33.5q-43 0 -82.5 -26t-62.5 -66l-75 50q33 60 93 98t136 38q99 0 162.5 -57t63.5 -150q0 -48 -19 -89.5t-49.5 -72t-67 -57.5t-73.5 -51.5t-68 -49 t-50.5 -54.5t-20.5 -63h359v-88h-464z" />
<glyph unicode="3" horiz-adv-x="578" d="M45 86l55 76q20 -21 46.5 -38.5t60.5 -28.5t67 -11q61 0 104 37t43 94q0 64 -48 98.5t-120 34.5h-49l-23 54l157 184q10 13 21 25t17 17l6 5v2q-21 -3 -61 -3h-243v88h430v-64l-196 -227q38 -3 73.5 -17t67.5 -38.5t51 -64.5t19 -91q0 -95 -68.5 -162.5t-176.5 -67.5 q-64 0 -126 25.5t-107 72.5z" />
<glyph unicode="4" horiz-adv-x="622" d="M35 193v63l333 464h114v-443h98v-84h-98v-193h-98v193h-349zM146 277h238v264l4 72h-2q-17 -35 -36 -60l-204 -274v-2z" />
<glyph unicode="5" horiz-adv-x="574" d="M50 88l57 73q63 -77 158 -77q65 0 111 40.5t46 105.5q0 64 -46.5 105.5t-116.5 41.5q-68 0 -121 -35l-59 21l35 357h364v-88h-276l-16 -152l-6 -36h2q14 7 41.5 14t51.5 7q112 0 181.5 -67.5t69.5 -167.5q0 -68 -33 -123.5t-91.5 -87t-130.5 -31.5q-64 0 -122.5 26 t-98.5 74z" />
<glyph unicode="6" horiz-adv-x="608" d="M58 326q0 48 8.5 95t25.5 93t44.5 85t62 69t82 47t100.5 17q79 0 141 -29l-32 -87q-19 10 -48.5 17t-55.5 7q-48 0 -87 -21t-64.5 -56t-42 -77t-22.5 -88h2q23 30 67.5 48.5t92.5 18.5q101 0 164 -67.5t63 -170.5q0 -104 -65.5 -171.5t-166.5 -67.5q-116 0 -192.5 93.5 t-76.5 244.5zM330 81q58 0 93.5 41.5t35.5 104.5q0 69 -39.5 111t-108.5 42q-28 0 -54.5 -7.5t-47 -20.5t-33 -33.5t-12.5 -44.5q0 -40 19.5 -84t59 -76.5t87.5 -32.5z" />
<glyph unicode="7" horiz-adv-x="547" d="M94 0l280 566q5 9 9.5 17t8.5 14.5t7.5 12t6.5 10l5 7.5t3 4l1 1v2q-14 -2 -51 -2h-322v88h481v-69l-324 -651h-105z" />
<glyph unicode="8" horiz-adv-x="615" d="M56 205q0 38 13.5 73t34.5 59.5t36.5 38.5t30.5 24q-80 56 -80 142q0 38 14 71.5t41 60.5t70.5 42.5t98.5 15.5q101 0 164 -52.5t63 -138.5q0 -42 -18.5 -85t-35.5 -65.5t-33 -38.5q98 -59 98 -153q0 -87 -68.5 -149t-178.5 -62q-107 0 -178.5 61.5t-71.5 155.5zM377 391 q66 69 66 141q0 51 -36 80.5t-94 29.5q-57 0 -89.5 -28.5t-32.5 -71.5q0 -17 5 -32t17 -27.5t22 -21.5t32 -20t33.5 -17t39 -17.5t37.5 -15.5zM159 213q0 -58 44 -96t102 -38q59 0 102 34t43 88q0 20 -9 37t-22 29t-36 25.5t-41 21.5t-48 21t-47 21q-88 -61 -88 -143z" />
<glyph unicode="9" horiz-adv-x="608" d="M86 17l32 88q49 -24 103 -24q48 0 87.5 20.5t65.5 55.5t42 77t22 88h-2q-11 -15 -28.5 -27.5t-38.5 -21t-45 -13.5t-48 -5q-101 0 -164 67.5t-63 169.5q0 106 65 173t166 67q118 0 194 -93.5t76 -245.5q0 -57 -12 -113.5t-38 -109t-63.5 -93t-92 -65t-119.5 -24.5 q-79 0 -139 29zM297 340q60 0 104 31t44 70q0 73 -48.5 136t-114.5 63q-61 0 -96.5 -41.5t-35.5 -106.5q0 -67 39.5 -109.5t107.5 -42.5z" />
<glyph unicode=":" horiz-adv-x="246" d="M71 411v105h104v-105h-104zM71 0v105h104v-105h-104z" />
<glyph unicode=";" horiz-adv-x="293" d="M110 411v105h102v-105h-102zM54 -103l54 210h102l-77 -210h-79z" />
<glyph unicode="&#x3c;" horiz-adv-x="588" d="M43 257v67l475 213v-91l-364 -154v-2l364 -154v-91z" />
<glyph unicode="=" horiz-adv-x="588" d="M51 347v79h487v-79h-487zM51 154v80h487v-80h-487z" />
<glyph unicode="&#x3e;" horiz-adv-x="588" d="M69 45v91l365 154v2l-365 154v91l476 -213v-67z" />
<glyph unicode="?" horiz-adv-x="475" d="M154 198v48q0 36 13 67t32 51t41.5 41.5t41.5 39t31.5 42.5t12.5 54q0 43 -33 72t-83 29q-62 0 -115 -43l-55 70q31 28 78 46.5t99 18.5q89 0 151 -51.5t62 -134.5q0 -47 -18.5 -84.5t-45 -62t-53 -47.5t-45 -52t-18.5 -62v-42h-96zM151 0v101h102v-101h-102z" />
<glyph unicode="@" horiz-adv-x="811" d="M57 246q0 103 49.5 190t135 137t187.5 50q72 0 124.5 -16.5t82.5 -46.5t44.5 -65.5t14.5 -78.5v-288h73v-75h-278q-93 0 -152.5 56.5t-59.5 135.5t59 135.5t153 56.5h110q-1 45 -45 75t-120 30q-58 0 -110.5 -24.5t-89 -64.5t-58 -94.5t-21.5 -112.5q0 -124 81 -208.5 t209 -84.5v-81q-112 0 -201 50t-138.5 135.5t-49.5 188.5zM378 247q0 -50 34 -84.5t85 -34.5h103v240h-101q-52 0 -86.5 -35.5t-34.5 -85.5z" />
<glyph unicode="A" horiz-adv-x="653" d="M15 0l258 720h107l259 -720h-105l-72 207h-271l-73 -207h-103zM217 291h219l-80 227l-29 103h-2q-15 -65 -27 -103z" />
<glyph unicode="B" horiz-adv-x="636" d="M95 0v720h252q93 0 151 -49t58 -134q0 -53 -24 -93.5t-66 -62.5v-2q38 -11 65 -37t40.5 -61t13.5 -76q0 -98 -66 -151.5t-166 -53.5h-258zM196 417h151q48 0 77 30.5t29 79t-28.5 77t-78.5 28.5h-150v-215zM196 88h162q58 0 90.5 33.5t32.5 89.5q0 27 -8.5 49.5t-24.5 39 t-39 25.5t-51 9h-162v-246z" />
<glyph unicode="C" horiz-adv-x="731" d="M51 364q0 104 46.5 188t130.5 132t189 48q48 0 94 -9.5t91 -31t78 -53.5l-51 -76q-26 23 -60.5 41t-72.5 28t-75 10q-122 0 -194 -79t-72 -197q0 -77 31.5 -141t93.5 -103.5t143 -39.5q60 0 119 25t103 68l54 -72q-115 -114 -279 -114q-109 0 -194 50t-130 135.5 t-45 190.5z" />
<glyph unicode="D" horiz-adv-x="751" d="M95 0v720h240q109 0 191 -42t127.5 -123.5t45.5 -193.5q0 -169 -99 -265t-265 -96h-240zM196 88h131q82 0 141.5 30.5t93 92.5t33.5 150q0 130 -72.5 200.5t-195.5 70.5h-131v-544z" />
<glyph unicode="E" horiz-adv-x="575" d="M95 0v720h419v-88h-318v-225h258v-88h-258v-231h335v-88h-436z" />
<glyph unicode="F" horiz-adv-x="524" d="M95 0v720h397v-88h-296v-237h252v-88h-252v-307h-101z" />
<glyph unicode="G" horiz-adv-x="777" d="M51 361q0 77 28 145.5t76.5 118t117 78.5t145.5 29q159 0 262 -87l-51 -75q-36 31 -92.5 51t-111.5 20q-61 0 -112.5 -22t-85.5 -59.5t-53 -88.5t-19 -108q0 -124 75.5 -203t188.5 -79q38 0 75.5 11t70 31t58.5 47v104h-116v88h209v-362h-89v45l1 30h-2 q-37 -39 -96.5 -63t-124.5 -24q-72 0 -137 27.5t-113 76t-76 118.5t-28 151z" />
<glyph unicode="H" horiz-adv-x="765" d="M95 0v720h101v-316h374v316h100v-720h-100v316h-374v-316h-101z" />
<glyph unicode="I" horiz-adv-x="291" d="M95 0v720h101v-720h-101z" />
<glyph unicode="J" horiz-adv-x="543" d="M29 207v36h100v-31q0 -57 28 -94t85 -37q48 0 80.5 30.5t32.5 96.5v424h-182v88h282v-513q0 -56 -18.5 -99.5t-49 -69t-67.5 -38t-78 -12.5q-33 0 -63 7.5t-57.5 25t-48 42.5t-32.5 62t-12 82z" />
<glyph unicode="K" horiz-adv-x="626" d="M95 0v720h101v-303h107l183 303h111l-210 -342v-2l223 -376h-115l-192 329h-107v-329h-101z" />
<glyph unicode="L" horiz-adv-x="536" d="M95 0v720h101v-632h323v-88h-424z" />
<glyph unicode="M" horiz-adv-x="868" d="M67 0l59 720h106l166 -390l34 -96h3q19 57 35 96l166 390h106l58 -720h-100l-35 454q-2 19 -2.5 45.5t0.5 43.5v17h-2q-23 -66 -39 -106l-144 -324h-89l-143 324q-5 11 -10.5 26t-10.5 29t-9 26t-7 20l-2 7h-2q2 -64 -2 -108l-35 -454h-101z" />
<glyph unicode="N" d="M95 0v720h100l321 -467q5 -8 11 -18.5t12 -20t11.5 -19.5t10 -18.5t7.5 -15t5 -9.5l2 -4h2q-6 64 -6 105v467h100v-720h-99l-321 467q-11 18 -26 44t-24 44l-9 17h-2q6 -64 6 -105v-467h-101z" />
<glyph unicode="O" horiz-adv-x="839" d="M50 365q0 77 28 145t76.5 117t117.5 77t148 28q105 0 190 -48t132 -132t47 -187q0 -105 -47 -191t-132 -136t-190 -50q-79 0 -148 29t-117.5 79.5t-76.5 120.5t-28 148zM154 365q0 -121 75.5 -202.5t190.5 -81.5q75 0 136 37t95 102t34 145q0 118 -75 197t-190 79 t-190.5 -79t-75.5 -197z" />
<glyph unicode="P" horiz-adv-x="618" d="M95 0v720h264q65 0 116.5 -27.5t80 -79t28.5 -118.5q0 -51 -16.5 -93.5t-46.5 -72.5t-71.5 -46.5t-90.5 -16.5h-163v-266h-101zM196 354h147q64 0 101.5 38t37.5 103q0 42 -17 73t-48 47.5t-73 16.5h-148v-278z" />
<glyph unicode="Q" horiz-adv-x="840" d="M51 364q0 103 47.5 187.5t132 132.5t188.5 48q80 0 149 -28t117.5 -77.5t76 -117.5t27.5 -145q0 -136 -83 -238l84 -81l-59 -63l-83 84q-96 -78 -229 -78q-105 0 -189.5 50t-131.5 136t-47 190zM155 364q0 -120 76 -201.5t188 -81.5q93 0 157 53l-84 82l58 63l82 -84 q53 74 53 169q0 78 -34.5 141.5t-95.5 99.5t-136 36q-112 0 -188 -79t-76 -198z" />
<glyph unicode="R" horiz-adv-x="640" d="M95 0v720h228q91 0 134 -19q53 -24 83.5 -73t30.5 -116q0 -69 -35 -123.5t-93 -74.5v-2q8 -10 20 -33l153 -279h-114l-152 287h-154v-287h-101zM196 374h145q58 0 93 36.5t35 96.5q0 84 -67 113q-28 12 -87 12h-119v-258z" />
<glyph unicode="S" horiz-adv-x="555" d="M42 83l57 76q35 -33 84 -55t97 -22q57 0 92 28t35 75q0 32 -19 57t-50 42t-68 33t-74 34.5t-67.5 41t-50 58.5t-19.5 81q0 60 31 106t84.5 70t120.5 24q56 0 109 -18.5t92 -54.5l-46 -83q-20 19 -46 33t-55.5 22.5t-57.5 8.5q-37 0 -66.5 -12.5t-46.5 -36t-17 -53.5 q0 -31 19 -55.5t50 -40.5t68 -31.5t74 -33.5t67.5 -41t49.5 -59.5t19 -83.5q0 -88 -61.5 -146.5t-168.5 -58.5q-65 0 -127.5 24.5t-108.5 70.5z" />
<glyph unicode="T" horiz-adv-x="627" d="M263 0v632h-248v88h596v-88h-248v-632h-100z" />
<glyph unicode="U" horiz-adv-x="740" d="M87 255v465h101v-464q0 -82 49.5 -128.5t133 -46.5t132.5 46.5t49 129.5v463h101v-465q0 -121 -77.5 -194t-204.5 -73t-205.5 73.5t-78.5 193.5z" />
<glyph unicode="V" horiz-adv-x="656" d="M275 0l-263 720h108l180 -509l27 -99h2q15 60 28 99l181 509h107l-264 -720h-106z" />
<glyph unicode="W" horiz-adv-x="959" d="M213 0l-183 720h106l125 -528l14 -77h2q7 37 17 77l142 528h88l141 -528l16 -77h2q4 38 14 77l133 528h104l-189 -720h-116l-126 467q-6 21 -11 46.5t-8 39.5l-3 15h-4q-9 -54 -22 -101l-126 -467h-116z" />
<glyph unicode="X" horiz-adv-x="609" d="M16 0l227 371l-212 349h115l113 -195l46 -85h2q20 46 44 85l114 195h116l-214 -349l228 -371h-114l-131 221l-45 83h-2q-22 -43 -44 -83l-130 -221h-113z" />
<glyph unicode="Y" horiz-adv-x="603" d="M252 0v305l-242 415h114l133 -237l44 -90h2q21 49 44 90l132 237h115l-242 -415v-305h-100z" />
<glyph unicode="Z" horiz-adv-x="605" d="M37 0v67l345 500q13 18 26 34.5t20 23.5l7 7v2q-20 -2 -54 -2h-327v88h506v-66l-347 -501q-12 -18 -24.5 -34t-19.5 -24l-7 -7v-2q19 2 53 2h349v-88h-527z" />
<glyph unicode="[" horiz-adv-x="307" d="M88 -97v847h169v-75h-83v-696h83v-76h-169z" />
<glyph unicode="\" horiz-adv-x="424" d="M298 -43l-259 802h87l260 -802h-88z" />
<glyph unicode="]" horiz-adv-x="307" d="M50 -21h83v696h-83v75h169v-847h-169v76z" />
<glyph unicode="^" horiz-adv-x="624" d="M70 252l204 468h65l204 -468h-90l-147 359l-146 -359h-90z" />
<glyph unicode="_" horiz-adv-x="608" d="M30 0h549v-80h-549v80z" />
<glyph unicode="`" horiz-adv-x="508" d="M261 770l-97 130h106l75 -130h-84z" />
<glyph unicode="a" horiz-adv-x="537" d="M34 141q0 39 14.5 69.5t41.5 49.5t57 32t67.5 19t66.5 8t61 2h26v11q0 113 -113 113q-74 0 -145 -50l-40 72q32 27 86 44t107 17q65 0 110.5 -23t69.5 -68.5t24 -110.5v-326h-93v52l3 41h-2q-23 -46 -68 -75.5t-101 -29.5q-71 0 -121.5 41.5t-50.5 111.5zM133 149 q0 -33 25.5 -58t71.5 -25q61 0 99.5 51t38.5 114v19h-25q-210 0 -210 -101z" />
<glyph unicode="b" horiz-adv-x="613" d="M76 0v720h99v-239q0 -11 -1 -22t-2 -16l-1 -5h2q16 27 41.5 47.5t58 31.5t68.5 11q68 0 120 -34t79 -95t27 -141q0 -122 -65.5 -196t-168.5 -74q-51 0 -95.5 24.5t-69.5 68.5h-2q3 -16 3 -39v-42h-93zM172 256q0 -75 38.5 -129t107.5 -54q64 0 106.5 49.5t42.5 134.5 q0 84 -40.5 134.5t-105.5 50.5q-63 0 -106 -47t-43 -139z" />
<glyph unicode="c" horiz-adv-x="555" d="M43 258q0 116 78 193t198 77q55 0 107 -19t87 -56l-47 -69q-27 26 -65 42.5t-78 16.5q-77 0 -128 -52.5t-51 -131.5t51.5 -132.5t130.5 -53.5q29 0 58 9t55.5 24.5t46.5 36.5l39 -73q-35 -37 -90.5 -59.5t-115.5 -22.5q-121 0 -198.5 76.5t-77.5 193.5z" />
<glyph unicode="d" horiz-adv-x="613" d="M45 258q0 122 65 196t168 74q33 0 63.5 -9.5t56 -28.5t41.5 -46h2q-2 15 -2 34v242h98v-720h-94v52l3 35h-2q-24 -45 -68.5 -72t-103.5 -27q-68 0 -120 34t-79.5 95t-27.5 141zM146 258q0 -55 18.5 -97t51.5 -65t76 -23q63 0 106 47t43 139q0 75 -38.5 129t-108.5 54 q-63 0 -105.5 -49.5t-42.5 -134.5z" />
<glyph unicode="e" horiz-adv-x="568" d="M43 258q0 121 73.5 195.5t185.5 74.5q105 0 164 -68.5t59 -172.5q0 -14 -4 -42h-375q4 -81 54.5 -126.5t122.5 -45.5q85 0 152 61l42 -73q-37 -34 -91.5 -53.5t-108.5 -19.5q-120 0 -197 77t-77 193zM149 316h276q-2 64 -37 100t-88 36q-58 0 -99.5 -36t-51.5 -100z" />
<glyph unicode="f" horiz-adv-x="345" d="M101 0v430h-64v81h64v22q0 49 14.5 85.5t35 56t49 32t50.5 15.5t46 3q18 0 38 -3v-86q-9 3 -26 3q-18 0 -34 -4t-34 -14t-29 -32.5t-11 -56.5v-21h121v-81h-121v-430h-99z" />
<glyph unicode="g" horiz-adv-x="605" d="M125 -94q70 -35 142.5 -35t117.5 35.5t45 108.5v42l4 33h-3q-50 -84 -155 -84q-70 0 -123 35t-80 94.5t-27 133.5q0 115 60 187t165 72q52 0 96 -19.5t68 -58.5h3q-3 6 -3 15v51h94v-495q0 -61 -21.5 -108t-59.5 -74t-83 -40t-96 -13q-91 0 -176 43zM146 272 q0 -81 40.5 -130.5t109.5 -49.5q60 0 98 41.5t38 135.5q0 174 -145 174q-67 0 -104 -45.5t-37 -125.5z" />
<glyph unicode="h" horiz-adv-x="615" d="M76 0v720h99v-267q0 -11 -1 -21.5t-2 -16.5l-1 -5h2q22 45 73 81.5t121 36.5q90 0 133.5 -49t43.5 -149v-330h-99v308q0 30 -4 51.5t-13.5 40t-29.5 28.5t-50 10q-49 0 -88.5 -25t-62 -69t-22.5 -99v-245h-99z" />
<glyph unicode="i" horiz-adv-x="250" d="M74 620v100h102v-100h-102zM76 0v516h99v-516h-99z" />
<glyph unicode="j" horiz-adv-x="250" d="M74 620v100h102v-100h-102zM76 -11v527h99v-533q0 -49 -14.5 -86t-35.5 -57t-50 -32t-51.5 -15t-45.5 -3q-11 0 -35 2v85q10 -2 22 -2q18 0 34.5 4t35.5 14.5t30 35t11 60.5z" />
<glyph unicode="k" horiz-adv-x="532" d="M76 0v720h99v-394h74l140 190h112l-172 -227v-2l191 -287h-115l-154 242h-76v-242h-99z" />
<glyph unicode="l" horiz-adv-x="272" d="M76 142v578h98v-562q0 -42 15 -57.5t42 -15.5q11 0 17 1v-88q-22 -3 -33 -3q-20 0 -36.5 2.5t-36.5 11.5t-33.5 24.5t-23 43t-9.5 65.5z" />
<glyph unicode="m" horiz-adv-x="932" d="M76 0v516h96v-70l-3 -39h2q20 48 71 84.5t109 36.5q128 0 154 -117h2q23 48 73.5 82.5t110.5 34.5q87 0 128.5 -49t41.5 -149v-330h-99v309q0 62 -19 96t-72 34q-69 0 -111 -60t-42 -138v-241h-99v309q0 29 -3 49.5t-11.5 40t-27 30t-47.5 10.5q-69 0 -112 -60.5 t-43 -137.5v-241h-99z" />
<glyph unicode="n" horiz-adv-x="615" d="M76 0v516h96v-70l-3 -39h2q6 12 14 24.5t20.5 26.5t29 26.5t36 22.5t44.5 15.5t52 5.5q90 0 133.5 -49t43.5 -149v-330h-99v308q0 30 -4 51.5t-13.5 40t-29.5 28.5t-50 10q-75 0 -124 -55t-49 -135v-248h-99z" />
<glyph unicode="o" horiz-adv-x="641" d="M43 259q0 116 80.5 192.5t196.5 76.5q77 0 140.5 -34t101 -96t37.5 -139q0 -116 -81 -193.5t-197 -77.5t-197 77t-81 194zM144 259q0 -80 51.5 -133t125.5 -53q48 0 89 24t65 66.5t24 95.5q0 79 -52 131.5t-126 52.5q-48 0 -88.5 -23.5t-64.5 -66t-24 -94.5z" />
<glyph unicode="p" horiz-adv-x="613" d="M76 -204v720h92v-46l-3 -39h2q25 47 70.5 72t103.5 25q68 0 120 -34t79 -95t27 -141q0 -122 -65.5 -196t-167.5 -74q-49 0 -91.5 23t-69.5 64h-2q4 -18 4 -44v-235h-99zM172 256q0 -47 16.5 -88t50.5 -68t79 -27q64 0 106.5 49.5t42.5 134.5q0 84 -40.5 134.5 t-105.5 50.5q-63 0 -106 -47t-43 -139z" />
<glyph unicode="q" horiz-adv-x="613" d="M45 258q0 122 65 196t168 74q52 0 96.5 -23.5t68.5 -65.5h2q-2 15 -2 35v42h94v-720h-98v239l2 45h-2q-23 -40 -66 -66t-101 -26q-68 0 -120 34t-79.5 95t-27.5 141zM146 258q0 -55 18.5 -97t51.5 -65t76 -23q63 0 106 47t43 139q0 75 -38.5 129t-108.5 54 q-63 0 -105.5 -49.5t-42.5 -134.5z" />
<glyph unicode="r" horiz-adv-x="383" d="M76 0v516h96v-93l-3 -37h2q20 59 63.5 97.5t101.5 38.5q10 0 26 -2v-98q-8 2 -28 2q-53 0 -90 -32.5t-53 -78.5t-16 -99v-214h-99z" />
<glyph unicode="s" horiz-adv-x="455" d="M33 63l47 68q19 -19 44 -32.5t53 -21t55 -7.5q39 0 63 18t24 50q0 23 -19.5 40.5t-49 28t-64 25.5t-64 31.5t-49 46.5t-19.5 69q0 71 53 110t133 39q104 0 167 -57l-40 -71q-11 10 -26.5 19t-33 14.5t-35.5 9t-35 3.5q-26 0 -45.5 -7t-31 -21.5t-11.5 -36.5 q0 -23 19.5 -41t49.5 -28.5t64.5 -25t64 -30.5t49 -46t19.5 -70q0 -44 -23 -78.5t-65.5 -54t-96.5 -19.5q-55 0 -108 19t-89 56z" />
<glyph unicode="t" horiz-adv-x="355" d="M98 189v241h-67v81h69v147h97v-147h124v-81h-124v-230q0 -36 11.5 -61t30 -36t34.5 -15t34 -4q13 0 23 2v-88q-24 -3 -34 -3q-24 0 -46.5 3.5t-51.5 15.5t-50 32t-35.5 57t-14.5 86z" />
<glyph unicode="u" horiz-adv-x="608" d="M70 186v330h99v-308q0 -61 20.5 -94.5t76.5 -33.5q77 0 123 57t46 137v242h97v-516h-95v71l4 38h-2q-20 -46 -71.5 -83.5t-120.5 -37.5q-88 0 -132.5 48t-44.5 150z" />
<glyph unicode="v" horiz-adv-x="538" d="M213 0l-194 516h105l126 -349l18 -70h2q8 42 18 70l125 349h104l-191 -516h-113z" />
<glyph unicode="w" horiz-adv-x="844" d="M191 0l-167 516h106l107 -362l13 -55h2q6 29 14 55l111 361h92l111 -361l14 -55h2q5 29 13 55l108 362h103l-165 -516h-110l-106 332l-16 56h-2q-6 -30 -14 -56l-106 -332h-110z" />
<glyph unicode="x" horiz-adv-x="508" d="M17 0l177 265l-166 251h113l96 -157l16 -31h2q10 18 17 31l96 157h113l-166 -251l177 -265h-113l-108 172l-16 28h-2q-7 -15 -15 -28l-108 -172h-113z" />
<glyph unicode="y" horiz-adv-x="545" d="M51 -107q29 -23 59 -23t54.5 20.5t39.5 56.5l26 59l-217 510h111l130 -338q3 -7 6 -16l5.5 -16.5t4 -14.5t2.5 -11l1 -4h2q9 35 18 61l125 339h107l-242 -609q-12 -30 -29.5 -53t-39 -38t-46.5 -22.5t-53 -7.5q-16 0 -32 3t-27.5 8t-20.5 9.5t-14 7.5l-5 3z" />
<glyph unicode="z" horiz-adv-x="521" d="M37 0v57l261 327q6 7 12.5 15t11.5 13.5t9 10t6 6.5l3 2v3q-17 -3 -50 -3h-242v85h425v-57l-260 -326q-6 -8 -12.5 -16t-12 -13.5l-10 -10l-6.5 -6.5l-3 -2v-2q18 3 51 3h262v-86h-445z" />
<glyph unicode="{" horiz-adv-x="362" d="M129 79v97q0 45 -22.5 74.5t-64.5 37.5v87q41 8 64 37.5t23 76.5v85q0 46 12.5 80.5t30.5 52.5t42.5 28.5t42.5 13.5t37 3l23 -1v-76h-13q-13 0 -25.5 -3t-28.5 -13t-25.5 -33.5t-9.5 -57.5v-105q0 -44 -22 -79t-60 -50v-2q37 -15 59.5 -47.5t22.5 -82.5v-117 q0 -24 4.5 -42.5t13 -29.5t17 -18.5t19.5 -11t19 -4.5t16 -1h13v-76q-9 -2 -23 -2q-19 0 -37 3t-42.5 13.5t-42.5 28.5t-30.5 52.5t-12.5 81.5z" />
<glyph unicode="|" horiz-adv-x="259" d="M86 -162v970h86v-970h-86z" />
<glyph unicode="}" horiz-adv-x="362" d="M45 -22h14q13 0 25 3t28 12.5t25.5 33t9.5 58.5v117q0 45 21.5 80t61.5 50v2q-35 13 -59 47.5t-24 81.5v105q0 28 -7 48.5t-16.5 31.5t-22.5 17.5t-22.5 8t-19.5 1.5h-14v76q9 1 23 1q15 0 29.5 -2.5t35 -8t37 -18t31.5 -31t24 -49t9 -69.5v-85q0 -45 22 -76t64 -38v-87 q-41 -6 -63.5 -36.5t-22.5 -75.5v-97q0 -47 -13 -81.5t-31 -52.5t-42.5 -28.5t-42.5 -13.5t-37 -3l-23 2v76z" />
<glyph unicode="~" horiz-adv-x="623" d="M69 208q0 87 37.5 129.5t105.5 42.5q19 0 36 -4t29 -11t23.5 -16t20.5 -18.5t19 -18.5t19.5 -16t21.5 -11.5t26 -4.5q37 0 52.5 28.5t15.5 67.5h81q0 -87 -37 -129.5t-105 -42.5q-29 0 -53 10t-40 24.5t-30.5 29.5t-33 25t-40.5 10q-35 0 -50.5 -28.5t-15.5 -66.5h-82z " />
<glyph unicode="&#xa2;" horiz-adv-x="588" d="M269 -12v86q-99 14 -157 93.5t-58 192.5t58 193t157 94v85h73v-85q66 -10 115.5 -52t75.5 -106l-89 -35q-45 101 -136 101q-72 0 -112.5 -54.5t-40.5 -140.5q0 -88 39.5 -141t113.5 -53q91 0 136 100l89 -34q-26 -63 -75.5 -106.5t-115.5 -51.5v-86h-73z" />
<glyph unicode="&#xa3;" horiz-adv-x="588" d="M49 0v88h62v237h-45v72h45v139q0 85 62.5 140.5t159.5 55.5q96 0 170 -65l-59 -70q-21 19 -51 31.5t-59 12.5q-55 0 -88 -31.5t-33 -78.5v-134h188v-72h-188v-237h332v-88h-496z" />
<glyph unicode="&#xa5;" horiz-adv-x="588" d="M76 203v65h167v37l-27 49h-140v64h106l-169 302h116l120 -224l44 -103h2q21 55 44 103l121 224h115l-168 -302h103v-64h-138l-27 -49v-37h165v-65h-165v-203h-102v203h-167z" />
<glyph unicode="&#xa8;" horiz-adv-x="508" d="M300 797v103h80v-103h-80zM129 797v103h81v-103h-81z" />
<glyph unicode="&#xa9;" horiz-adv-x="839" d="M56 360q0 61 18.5 118t52 102.5t78 80t99.5 53t114 18.5q101 0 185 -49.5t132.5 -135t48.5 -187.5t-48.5 -187.5t-132.5 -135t-185 -49.5q-74 0 -141 29t-115.5 79t-77 119t-28.5 145zM131 360q0 -128 83 -216t204 -88q124 0 208 88t84 216q0 84 -38 154t-105.5 110 t-148.5 40q-80 0 -146 -40t-103.5 -110t-37.5 -154zM225 359q0 84 56 144t145 60q53 0 97.5 -27.5t69.5 -73.5l-64 -34q-13 27 -41 46t-60 19q-57 0 -91.5 -39t-34.5 -95q0 -57 33.5 -95.5t92.5 -38.5q32 0 59 18t42 47l64 -34q-21 -42 -67 -71.5t-100 -29.5 q-90 0 -145.5 60t-55.5 144z" />
<glyph unicode="&#xab;" horiz-adv-x="572" d="M252 288l167 210h99l-167 -210l167 -209h-99zM213 79l-167 209l167 210h99l-167 -210l167 -209h-99z" />
<glyph unicode="&#xad;" horiz-adv-x="440" d="M71 247v88h298v-88h-298z" />
<glyph unicode="&#xae;" horiz-adv-x="839" d="M56 360q0 61 18.5 118t52 102.5t78 80t99.5 53t114 18.5q101 0 185 -49.5t132.5 -135t48.5 -187.5t-48.5 -187.5t-132.5 -135t-185 -49.5q-74 0 -141 29t-115.5 79t-77 119t-28.5 145zM131 360q0 -128 83 -216t204 -88q124 0 208 88t84 216q0 84 -38 154t-105.5 110 t-148.5 40q-80 0 -146 -40t-103.5 -110t-37.5 -154zM294 169v386h149q36 0 63 -14.5t42 -41.5t15 -62q0 -41 -21.5 -68t-48.5 -34v-2q4 -5 13 -22l74 -142h-80l-71 149h-63v-149h-72zM366 371h61q29 0 46 17.5t17 48.5q0 29 -16.5 45.5t-45.5 16.5h-62v-128z" />
<glyph unicode="&#xb4;" horiz-adv-x="508" d="M164 770l74 130h107l-98 -130h-83z" />
<glyph unicode="&#xb8;" horiz-adv-x="508" d="M194 -90l29 113l50 -11v-7l-12 -56q33 -4 53.5 -23.5t20.5 -50.5q0 -44 -30.5 -65t-73.5 -21q-29 0 -57 6v60q18 -7 43 -7q49 0 49 31.5t-54 31.5z" />
<glyph unicode="&#xbb;" horiz-adv-x="572" d="M259 79l167 209l-167 210h99l167 -210l-167 -209h-99zM54 79l167 209l-167 210h99l167 -210l-167 -209h-99z" />
<glyph unicode="&#x2c6;" horiz-adv-x="508" d="M113 770l90 130h102l91 -130h-87l-54 82h-2l-53 -82h-87z" />
<glyph unicode="&#x2da;" horiz-adv-x="510" d="M255 758q-36 0 -61.5 20.5t-25.5 54.5q0 35 25.5 56t61.5 21q35 0 60.5 -21t25.5 -56q0 -34 -25.5 -54.5t-60.5 -20.5zM255 800q15 0 24.5 9.5t9.5 23.5q0 16 -9.5 26t-24.5 10t-24.5 -10t-9.5 -26q0 -14 9.5 -23.5t24.5 -9.5z" />
<glyph unicode="&#x2dc;" horiz-adv-x="508" d="M83 771q0 130 104 130q23 0 42.5 -11t30.5 -24t26 -24t29 -11q21 0 30.5 20t9.5 47h71q0 -130 -104 -130q-23 0 -42.5 11t-30.5 24t-26 23.5t-29.5 10.5t-23.5 -10.5t-12.5 -24.5t-3.5 -31h-71z" />
<glyph unicode="&#x400;" horiz-adv-x="575" d="M95 0v720h419v-88h-318v-225h258v-88h-258v-231h335v-88h-436zM292 770l-97 130h106l74 -130h-83z" />
<glyph unicode="&#x401;" horiz-adv-x="575" d="M356 797v103h81v-103h-81zM185 797v103h81v-103h-81zM95 0v720h419v-88h-318v-225h258v-88h-258v-231h335v-88h-436z" />
<glyph unicode="&#x402;" horiz-adv-x="750" d="M212 0v632h-197v88h535v-88h-237v-201l-2 -31h2q85 42 182 42q70 0 121 -28.5t76.5 -77.5t25.5 -113q0 -110 -63.5 -172.5t-162.5 -62.5q-25 0 -49 3v84q18 -2 36 -2q26 0 48.5 7.5t43.5 23t33.5 45t12.5 68.5q0 62 -36 98.5t-106 36.5q-41 0 -81.5 -10.5t-60.5 -20.5 l-20 -11v-310h-101z" />
<glyph unicode="&#x403;" horiz-adv-x="504" d="M234 770l73 130h107l-98 -130h-82zM95 0v720h397v-88h-296v-632h-101z" />
<glyph unicode="&#x404;" horiz-adv-x="730" d="M51 364q0 103 45.5 187t130 132.5t190.5 48.5q49 0 94 -9.5t74.5 -23.5t52 -28t32.5 -24l10 -9l-51 -76q-3 3 -9.5 8.5t-27.5 19t-43.5 24t-57.5 19t-70 8.5q-108 0 -180.5 -67.5t-82.5 -170.5h376v-84h-376q12 -105 83.5 -172t181.5 -67q38 0 75 9t62.5 22.5t46 27 t30.5 22.5l10 9l53 -70q-4 -5 -12 -12.5t-34.5 -26.5t-56.5 -34t-78 -27t-99 -12q-80 0 -149 29t-117 79.5t-75.5 120t-27.5 147.5z" />
<glyph unicode="&#x405;" horiz-adv-x="555" d="M42 83l57 76q35 -33 84 -55t97 -22q57 0 92 28t35 75q0 32 -19 57t-50 42t-68 33t-74 34.5t-67.5 41t-50 58.5t-19.5 81q0 60 31 106t84.5 70t120.5 24q56 0 109 -18.5t92 -54.5l-46 -83q-20 19 -46 33t-55.5 22.5t-57.5 8.5q-37 0 -66.5 -12.5t-46.5 -36t-17 -53.5 q0 -31 19 -55.5t50 -40.5t68 -31.5t74 -33.5t67.5 -41t49.5 -59.5t19 -83.5q0 -88 -61.5 -146.5t-168.5 -58.5q-65 0 -127.5 24.5t-108.5 70.5z" />
<glyph unicode="&#x406;" horiz-adv-x="291" d="M95 0v720h101v-720h-101z" />
<glyph unicode="&#x407;" horiz-adv-x="291" d="M95 0v720h101v-720h-101zM193 797v103h80v-103h-80zM21 797v103h82v-103h-82z" />
<glyph unicode="&#x408;" horiz-adv-x="543" d="M29 207v36h100v-31q0 -57 28 -94t85 -37q48 0 80.5 30.5t32.5 96.5v424h-182v88h282v-513q0 -56 -18.5 -99.5t-49 -69t-67.5 -38t-78 -12.5q-33 0 -63 7.5t-57.5 25t-48 42.5t-32.5 62t-12 82z" />
<glyph unicode="&#x409;" horiz-adv-x="972" d="M20 -7v94q37 3 64.5 24t46 56.5t30 89.5t16.5 120.5t5 152.5v190h395v-295h140q101 0 164 -58t63 -155q0 -95 -63 -153.5t-160 -58.5h-244v632h-194v-102q0 -83 -4.5 -148t-15 -127t-29.5 -106.5t-47.5 -79.5t-70 -54t-96.5 -22zM577 88h128q61 0 98 32.5t37 91.5 q0 58 -37.5 92t-98.5 34h-127v-250z" />
<glyph unicode="&#x40a;" horiz-adv-x="1028" d="M95 0v720h101v-298h335v298h100v-297h146q65 0 115 -25.5t78.5 -74t28.5 -112.5q0 -63 -29.5 -111.5t-79.5 -74t-113 -25.5h-246v335h-335v-335h-101zM631 88h130q61 0 98 32.5t37 90.5t-37.5 91.5t-98.5 33.5h-129v-248z" />
<glyph unicode="&#x40b;" horiz-adv-x="749" d="M212 0v632h-197v88h534v-88h-236v-203l-2 -33h2q92 46 188 46q102 0 151.5 -56.5t49.5 -158.5v-227h-102v213q0 45 -12.5 75t-41 47t-73.5 17q-46 0 -89 -14.5t-71 -32.5v-305h-101z" />
<glyph unicode="&#x40c;" horiz-adv-x="626" d="M280 770l74 130h107l-98 -130h-83zM95 0v720h101v-303h107l183 303h111l-210 -342v-2l223 -376h-115l-192 329h-107v-329h-101z" />
<glyph unicode="&#x40d;" d="M95 0v720h101v-467q0 -18 -1.5 -44.5t-3.5 -43.5l-1 -17h2q36 67 61 106l319 466h99v-720h-100v467q0 18 1.5 44.5t3.5 43.5l1 17h-2q-34 -65 -60 -105l-321 -467h-99zM351 770l-97 130h106l75 -130h-84z" />
<glyph unicode="&#x40e;" horiz-adv-x="610" d="M76 35l46 76q47 -36 83 -36q20 0 35.5 10.5t25.5 27t21 43.5l-285 564h111l176 -362q6 -13 12.5 -27t11.5 -25.5t8.5 -21.5t5.5 -15l2 -6h3q15 50 30 94l134 363h106l-230 -587q-57 -145 -164 -145q-64 0 -132 47zM307 754q-62 0 -106.5 35t-44.5 95v16h80v-15 q0 -31 21 -49t50 -18t50.5 18t21.5 50v14h79v-16q0 -60 -44 -95t-107 -35z" />
<glyph unicode="&#x40f;" horiz-adv-x="744" d="M95 0v720h101v-632h353v632h101v-720h-232v-143h-92v143h-231z" />
<glyph unicode="&#x410;" horiz-adv-x="653" d="M15 0l258 720h107l259 -720h-105l-72 207h-271l-73 -207h-103zM217 291h219l-80 227l-29 103h-2q-15 -65 -27 -103z" />
<glyph unicode="&#x411;" horiz-adv-x="617" d="M95 0v720h425v-88h-324v-201h158q64 0 113 -25t77.5 -74.5t28.5 -117.5q0 -96 -59.5 -155t-154.5 -59h-264zM196 88h147q40 0 69 15t44 43.5t15 67.5q0 60 -35.5 95t-94.5 35h-145v-256z" />
<glyph unicode="&#x412;" horiz-adv-x="636" d="M95 0v720h252q93 0 151 -49t58 -134q0 -53 -24 -93.5t-66 -62.5v-2q38 -11 65 -37t40.5 -61t13.5 -76q0 -98 -66 -151.5t-166 -53.5h-258zM196 417h151q48 0 77 30.5t29 79t-28.5 77t-78.5 28.5h-150v-215zM196 88h162q58 0 90.5 33.5t32.5 89.5q0 27 -8.5 49.5t-24.5 39 t-39 25.5t-51 9h-162v-246z" />
<glyph unicode="&#x413;" horiz-adv-x="504" d="M95 0v720h397v-88h-296v-632h-101z" />
<glyph unicode="&#x414;" horiz-adv-x="734" d="M185 88h327v544h-225v-66q0 -322 -102 -478zM6 88h73q35 50 59 111t35 127t15 122t4 124v148h421v-632h80v-231h-91v143h-502v-143h-94v231z" />
<glyph unicode="&#x415;" horiz-adv-x="575" d="M95 0v720h419v-88h-318v-225h258v-88h-258v-231h335v-88h-436z" />
<glyph unicode="&#x416;" horiz-adv-x="909" d="M18 0l209 376v2l-194 342h110l168 -303h94v303h100v-303h95l167 303h110l-195 -342v-2l210 -376h-114l-178 329h-95v-329h-100v329h-94l-179 -329h-114z" />
<glyph unicode="&#x417;" horiz-adv-x="556" d="M28 86l56 68q30 -33 75.5 -54t93.5 -21q67 0 108.5 35t41.5 95q0 56 -37.5 87.5t-97.5 31.5h-88v84h71q55 0 92 33t37 83t-32 83t-95 33q-89 0 -161 -62l-43 76q90 74 218 74q95 0 155.5 -51.5t60.5 -139.5q0 -111 -104 -163v-2q29 -8 52 -23.5t40 -37t26 -50t9 -61.5 q0 -98 -70 -157t-175 -59q-66 0 -129 26t-104 72z" />
<glyph unicode="&#x418;" d="M95 0v720h101v-467q0 -18 -1.5 -44.5t-3.5 -43.5l-1 -17h2q36 67 61 106l319 466h99v-720h-100v467q0 18 1.5 44.5t3.5 43.5l1 17h-2q-34 -65 -60 -105l-321 -467h-99z" />
<glyph unicode="&#x419;" d="M387 754q-63 0 -107 35t-44 95v16h79v-15q0 -21 10.5 -36.5t26.5 -23t35 -7.5q29 0 50.5 18t21.5 50v14h79v-16q0 -40 -21.5 -70.5t-55.5 -45t-74 -14.5zM95 0v720h101v-467q0 -18 -1.5 -44.5t-3.5 -43.5l-1 -17h2q36 67 61 106l319 466h99v-720h-100v467q0 18 1.5 44.5 t3.5 43.5l1 17h-2q-34 -65 -60 -105l-321 -467h-99z" />
<glyph unicode="&#x41a;" horiz-adv-x="626" d="M95 0v720h101v-303h107l183 303h111l-210 -342v-2l223 -376h-115l-192 329h-107v-329h-101z" />
<glyph unicode="&#x41b;" horiz-adv-x="691" d="M12 85q45 6 77 37.5t51 91.5t27.5 141.5t8.5 194.5v170h421v-720h-101v632h-224v-83q0 -135 -12.5 -232.5t-42 -171t-80.5 -111.5t-125 -42v93z" />
<glyph unicode="&#x41c;" horiz-adv-x="868" d="M67 0l59 720h106l166 -390l34 -96h3q19 57 35 96l166 390h106l58 -720h-100l-35 454q-2 19 -2.5 45.5t0.5 43.5v17h-2q-23 -66 -39 -106l-144 -324h-89l-143 324q-5 11 -10.5 26t-10.5 29t-9 26t-7 20l-2 7h-2q2 -64 -2 -108l-35 -454h-101z" />
<glyph unicode="&#x41d;" horiz-adv-x="765" d="M95 0v720h101v-316h374v316h100v-720h-100v316h-374v-316h-101z" />
<glyph unicode="&#x41e;" horiz-adv-x="839" d="M50 365q0 77 29 145t78 116.5t117.5 77t145.5 28.5q103 0 187.5 -48t133 -132.5t48.5 -186.5q0 -104 -48.5 -191t-133 -136.5t-187 -49.5t-187.5 49.5t-134 136.5t-49 191zM154 365q0 -120 77.5 -202t188.5 -82t188 82t77 202q0 117 -77 196.5t-188 79.5t-188.5 -79.5 t-77.5 -196.5z" />
<glyph unicode="&#x41f;" horiz-adv-x="756" d="M95 0v720h567v-720h-101v632h-365v-632h-101z" />
<glyph unicode="&#x420;" horiz-adv-x="616" d="M95 0v720h264q65 0 116.5 -27.5t80 -79t28.5 -118.5q0 -51 -16.5 -93.5t-46.5 -72.5t-71.5 -46.5t-90.5 -16.5h-163v-266h-101zM196 354h147q64 0 101.5 38t37.5 103q0 42 -17 73t-48 47.5t-73 16.5h-148v-278z" />
<glyph unicode="&#x421;" horiz-adv-x="731" d="M51 364q0 104 46.5 188t130.5 132t189 48q48 0 94 -9.5t91 -31t78 -53.5l-51 -76q-26 23 -60.5 41t-72.5 28t-75 10q-122 0 -194 -79t-72 -197q0 -77 31.5 -141t93.5 -103.5t143 -39.5q60 0 119 25t103 68l54 -72q-115 -114 -279 -114q-109 0 -194 50t-130 135.5 t-45 190.5z" />
<glyph unicode="&#x422;" horiz-adv-x="627" d="M263 0v632h-248v88h596v-88h-248v-632h-100z" />
<glyph unicode="&#x423;" horiz-adv-x="610" d="M76 35l46 76q47 -36 83 -36q20 0 35.5 10.5t25.5 27t21 43.5l-285 564h111l176 -362q6 -13 12.5 -27t11.5 -25.5t8.5 -21.5t5.5 -15l2 -6h3q15 50 30 94l134 363h106l-230 -587q-57 -145 -164 -145q-64 0 -132 47z" />
<glyph unicode="&#x424;" horiz-adv-x="848" d="M40 384q0 134 92.5 216t241.5 82v83h101v-83q149 0 242 -82t93 -216q0 -91 -42 -160t-118 -106.5t-175 -37.5v-92h-101v92q-149 0 -241.5 83.5t-92.5 220.5zM475 165q105 0 168.5 59t63.5 160q0 98 -63.5 155.5t-168.5 57.5v-432zM143 384q0 -101 63.5 -160t167.5 -59 v432q-104 0 -167.5 -57.5t-63.5 -155.5z" />
<glyph unicode="&#x425;" horiz-adv-x="609" d="M16 0l227 371l-212 349h115l113 -195l45 -83h2q21 44 45 83l114 195h116l-214 -349l228 -371h-114l-131 221l-45 83h-2q-22 -43 -44 -83l-130 -221h-113z" />
<glyph unicode="&#x426;" horiz-adv-x="772" d="M95 0v720h101v-632h353v632h101v-632h82v-231h-90v143h-547z" />
<glyph unicode="&#x427;" horiz-adv-x="651" d="M269 276q-109 0 -163 54.5t-54 156.5v233h102v-212q0 -70 33 -105t104 -35q32 0 65.5 8.5t57 19t40.5 21.5v303h102v-720h-102v292l2 33h-2q-93 -49 -185 -49z" />
<glyph unicode="&#x428;" horiz-adv-x="1025" d="M95 0v720h101v-632h266v632h101v-632h266v632h100v-720h-834z" />
<glyph unicode="&#x429;" horiz-adv-x="1056" d="M95 0v720h101v-632h266v632h101v-632h266v632h100v-632h89v-231h-92v143h-831z" />
<glyph unicode="&#x42a;" horiz-adv-x="700" d="M196 0v632h-188v88h289v-271h152q96 0 157.5 -60.5t61.5 -166.5q0 -99 -60 -160.5t-155 -61.5h-257zM297 88h140q60 0 94.5 36t34.5 98q0 64 -36 101.5t-95 37.5h-138v-273z" />
<glyph unicode="&#x42b;" horiz-adv-x="860" d="M665 0v720h100v-720h-100zM95 0v720h101v-271h148q97 0 158 -60.5t61 -166.5q0 -99 -59.5 -160.5t-154.5 -61.5h-254zM196 88h137q60 0 94 35.5t34 98.5q0 64 -35.5 101.5t-95.5 37.5h-134v-273z" />
<glyph unicode="&#x42c;" horiz-adv-x="600" d="M95 0v720h101v-271h153q96 0 157.5 -60.5t61.5 -166.5q0 -99 -60 -160.5t-155 -61.5h-258zM196 88h140q61 0 95 35.5t34 98.5q0 42 -16 73.5t-45.5 48.5t-68.5 17h-139v-273z" />
<glyph unicode="&#x42d;" horiz-adv-x="730" d="M34 98l53 70q38 -39 99 -63.5t125 -24.5q106 0 178 68t84 171h-376v84h377q-10 104 -82.5 171t-179.5 67q-120 0 -213 -81l-50 75q47 48 118 72.5t147 24.5q107 0 191.5 -48.5t129.5 -132t45 -186.5q0 -105 -47 -191.5t-132 -136t-190 -49.5q-81 0 -153.5 29.5 t-123.5 80.5z" />
<glyph unicode="&#x42e;" horiz-adv-x="1087" d="M95 0v720h101v-316h122q13 141 114 234.5t243 93.5q101 0 184 -48t130.5 -132.5t47.5 -186.5q0 -104 -47.5 -191t-130.5 -136.5t-184 -49.5q-139 0 -239 93.5t-116 234.5h-124v-316h-101zM419 365q0 -120 75 -202t181 -82q108 0 183 82.5t75 201.5q0 116 -75 195.5 t-183 79.5q-107 0 -181.5 -79.5t-74.5 -195.5z" />
<glyph unicode="&#x42f;" horiz-adv-x="634" d="M23 0l162 268l21 34v2q-68 25 -102.5 79t-34.5 128q0 69 31 118t83 72q44 19 134 19h223v-720h-101v287h-133l-169 -287h-114zM300 372h139v260h-115q-62 0 -93 -16q-14 -8 -25 -19t-18.5 -25t-11.5 -30.5t-4 -34.5q0 -63 34.5 -99t93.5 -36z" />
<glyph unicode="&#x430;" horiz-adv-x="536" d="M34 141q0 39 14.5 69.5t41.5 49.5t57 32t67.5 19t66.5 8t61 2h26v11q0 113 -113 113q-74 0 -145 -50l-40 72q32 27 86 44t107 17q65 0 110.5 -23t69.5 -68.5t24 -110.5v-326h-93v52l3 41h-2q-23 -46 -68 -75.5t-101 -29.5q-71 0 -121.5 41.5t-50.5 111.5zM133 149 q0 -33 25.5 -58t71.5 -25q61 0 99.5 51t38.5 114v19h-25q-210 0 -210 -101z" />
<glyph unicode="&#x431;" horiz-adv-x="597" d="M54 297q0 144 51 230.5t182 141.5l184 80l33 -82l-198 -83q-52 -23 -85.5 -52t-52 -66.5t-21.5 -87.5h2q61 92 183 92q98 0 158.5 -64.5t60.5 -172.5t-67.5 -176.5t-176.5 -68.5q-126 0 -189.5 84t-63.5 225zM157 233q0 -75 42 -118.5t104 -43.5q63 0 105.5 43.5 t42.5 116.5t-42 117t-102 44q-65 0 -107.5 -45.5t-42.5 -113.5z" />
<glyph unicode="&#x432;" horiz-adv-x="530" d="M76 0v516h214q79 0 125.5 -34.5t46.5 -97.5q0 -19 -5 -36.5t-14 -32t-23 -26t-31 -19.5v-1q46 -11 72 -44.5t26 -77.5q0 -70 -52 -108.5t-138 -38.5h-221zM175 298h97q29 0 49.5 9.5t30 27t9.5 41.5q0 72 -92 72h-94v-150zM175 69h107q51 0 78 22t27 59q0 38 -28 60 t-79 22h-105v-163z" />
<glyph unicode="&#x433;" horiz-adv-x="421" d="M76 0v516h324v-85h-225v-431h-99z" />
<glyph unicode="&#x434;" horiz-adv-x="605" d="M177 82h229v354h-155v-28q0 -212 -74 -326zM12 82h63q81 110 81 339v95h349v-434h73v-204h-90v122h-383v-122h-93v204z" />
<glyph unicode="&#x435;" horiz-adv-x="568" d="M43 258q0 121 73.5 195.5t185.5 74.5q105 0 164 -68.5t59 -172.5q0 -14 -4 -42h-375q4 -81 54.5 -126.5t122.5 -45.5q85 0 152 61l42 -73q-37 -34 -91.5 -53.5t-108.5 -19.5q-120 0 -197 77t-77 193zM149 316h276q-2 64 -37 100t-88 36q-58 0 -99.5 -36t-51.5 -100z" />
<glyph unicode="&#x436;" d="M17 0l167 265v2l-152 249h105l126 -211h74v211h93v-211h74l127 211h104l-151 -249v-2l167 -265h-111l-135 220h-75v-220h-93v220h-74l-135 -220h-111z" />
<glyph unicode="&#x437;" horiz-adv-x="456" d="M27 63l45 66q23 -24 58 -43t77 -19q47 0 77 22.5t30 62.5q0 79 -106 79h-63v71h54q30 0 51.5 7.5t34 24.5t12.5 42q0 36 -24.5 55.5t-67.5 19.5q-65 0 -125 -45l-37 66q75 56 179 56q77 0 126 -36.5t49 -102.5q0 -86 -76 -118v-2q42 -13 67.5 -43.5t25.5 -77.5 q0 -76 -57 -118t-141 -42q-56 0 -105.5 21t-83.5 54z" />
<glyph unicode="&#x438;" horiz-adv-x="609" d="M76 0v516h95v-308q0 -54 -3 -69h2q6 12 46 69l223 308h95v-516h-95v308q0 14 1.5 40t1.5 28h-2q-2 -4 -9 -14.5l-19 -28.5t-17 -25l-224 -308h-95z" />
<glyph unicode="&#x439;" horiz-adv-x="609" d="M304 575q-62 0 -106.5 35.5t-44.5 95.5v15h80v-14q0 -32 21 -49.5t50 -17.5t50.5 17.5t21.5 50.5v13h79v-15q0 -60 -44 -95.5t-107 -35.5zM76 0v516h95v-308q0 -54 -3 -69h2q6 12 46 69l223 308h95v-516h-95v308q0 14 1.5 40t1.5 28h-2q-2 -4 -9 -14.5l-19 -28.5t-17 -25 l-224 -308h-95z" />
<glyph unicode="&#x43a;" horiz-adv-x="532" d="M76 0v516h99v-208h73l141 208h112l-173 -246v-2l193 -268h-117l-154 223h-75v-223h-99z" />
<glyph unicode="&#x43b;" horiz-adv-x="558" d="M20 -5v89q59 8 88 72.5t29 200.5v159h345v-516h-98v435h-152v-78q0 -179 -50 -267.5t-162 -94.5z" />
<glyph unicode="&#x43c;" horiz-adv-x="744" d="M55 0l45 516h110l132 -292l28 -69h2q16 38 29 69l135 292h108l44 -516h-95l-23 307l1 89h-2q-13 -36 -32 -76l-123 -258h-85l-122 257l-33 77h-2q0 -1 0.5 -2.5t0.5 -5.5v-8.5t0.5 -10.5t0.5 -12v-13v-13.5v-12.5t-1 -11l-22 -307h-96z" />
<glyph unicode="&#x43d;" horiz-adv-x="612" d="M76 0v516h99v-210h262v210h99v-516h-99v221h-262v-221h-99z" />
<glyph unicode="&#x43e;" horiz-adv-x="641" d="M43 259q0 116 80.5 192.5t196.5 76.5q77 0 140.5 -34t101 -96t37.5 -139q0 -116 -81 -193.5t-197 -77.5t-197 77t-81 194zM144 259q0 -80 51.5 -133t125.5 -53q48 0 89 24t65 66.5t24 95.5q0 79 -52 131.5t-126 52.5q-48 0 -88.5 -23.5t-64.5 -66t-24 -94.5z" />
<glyph unicode="&#x43f;" horiz-adv-x="603" d="M76 0v516h451v-516h-99v431h-253v-431h-99z" />
<glyph unicode="&#x440;" horiz-adv-x="613" d="M76 -204v720h92v-46l-3 -39h2q25 47 70.5 72t103.5 25q68 0 120 -34t79 -95t27 -141q0 -122 -65.5 -196t-167.5 -74q-49 0 -91.5 23t-69.5 64h-2q4 -18 4 -44v-235h-99zM172 256q0 -47 16.5 -88t50.5 -68t79 -27q64 0 106.5 49.5t42.5 134.5q0 84 -40.5 134.5 t-105.5 50.5q-63 0 -106 -47t-43 -139z" />
<glyph unicode="&#x441;" horiz-adv-x="555" d="M43 258q0 116 78 193t198 77q55 0 107 -19t87 -56l-47 -69q-27 26 -65 42.5t-78 16.5q-77 0 -128 -52.5t-51 -131.5t51.5 -132.5t130.5 -53.5q29 0 58 9t55.5 24.5t46.5 36.5l39 -73q-35 -37 -90.5 -59.5t-115.5 -22.5q-121 0 -198.5 76.5t-77.5 193.5z" />
<glyph unicode="&#x442;" horiz-adv-x="499" d="M201 0v431h-180v85h458v-85h-180v-431h-98z" />
<glyph unicode="&#x443;" horiz-adv-x="545" d="M51 -107q29 -23 59 -23t54.5 20.5t39.5 56.5l26 59l-217 510h111l130 -338q3 -7 6 -16l5.5 -16.5t4 -14.5t2.5 -11l1 -4h2q9 35 18 61l125 339h107l-242 -609q-12 -30 -29.5 -53t-39 -38t-46.5 -22.5t-53 -7.5q-16 0 -32 3t-27.5 8t-20.5 9.5t-14 7.5l-5 3z" />
<glyph unicode="&#x444;" horiz-adv-x="740" d="M44 259q0 117 78.5 190.5t200.5 77.5v187h95v-187q122 -4 200.5 -77.5t78.5 -190.5q0 -59 -21 -108.5t-58.5 -84t-88.5 -55.5t-111 -23v-192h-95v192q-80 3 -143 37t-99.5 95t-36.5 139zM418 70q53 4 94 27.5t64.5 65.5t23.5 96q0 82 -50.5 132t-131.5 55v-376zM142 259 q0 -82 50 -132.5t131 -56.5v376q-81 -5 -131 -54.5t-50 -132.5z" />
<glyph unicode="&#x445;" horiz-adv-x="508" d="M17 0l177 265l-166 251h113l96 -157l16 -31h2q10 18 17 31l96 157h113l-166 -251l177 -265h-113l-108 172l-16 28h-2q-7 -15 -15 -28l-108 -172h-113z" />
<glyph unicode="&#x446;" horiz-adv-x="622" d="M76 0v516h99v-430h246v430h100v-430h73v-208h-91v122h-427z" />
<glyph unicode="&#x447;" horiz-adv-x="533" d="M217 180q-83 0 -128 43t-45 125v168h97v-154q0 -44 22 -70.5t81 -26.5q63 0 114 37v214h99v-516h-99v187l1 30h-2q-26 -16 -64.5 -26.5t-75.5 -10.5z" />
<glyph unicode="&#x448;" horiz-adv-x="820" d="M76 0v516h95v-430h191v430h96v-430h191v430h95v-516h-668z" />
<glyph unicode="&#x449;" horiz-adv-x="845" d="M76 0v516h95v-430h191v430h96v-430h191v430h95v-430h73v-208h-91v122h-650z" />
<glyph unicode="&#x44a;" horiz-adv-x="570" d="M150 0v431h-140v85h239v-187h104q85 0 136 -41t51 -125q0 -75 -47 -119t-141 -44h-202zM249 71h89q51 0 76.5 25.5t25.5 67.5q0 29 -10.5 49.5t-34 32.5t-57.5 12h-89v-187z" />
<glyph unicode="&#x44b;" horiz-adv-x="719" d="M544 0v516h99v-516h-99zM76 0v516h99v-187h101q42 0 75.5 -9.5t59 -29t39.5 -52t14 -75.5q0 -75 -47.5 -119t-141.5 -44h-199zM175 71h87q52 0 77 25.5t25 67.5q0 43 -25.5 68.5t-77.5 25.5h-86v-187z" />
<glyph unicode="&#x44c;" horiz-adv-x="496" d="M76 0v516h99v-187h104q42 0 75.5 -9.5t59 -29t39.5 -52t14 -75.5q0 -75 -47.5 -119t-142.5 -44h-201zM175 71h89q52 0 77 25.5t25 67.5q0 44 -25 69t-77 25h-89v-187z" />
<glyph unicode="&#x44d;" horiz-adv-x="554" d="M31 65l38 71q65 -67 163 -67q71 0 121.5 42.5t60.5 110.5h-247v72h247q-6 46 -31.5 81t-64 54t-83.5 19q-86 0 -149 -60l-45 68q22 24 55 40.5t69 24t73 7.5q59 0 110 -20.5t87 -56.5t56 -86t20 -107q0 -77 -34.5 -138.5t-98 -96.5t-142.5 -35q-58 0 -112 19.5t-93 57.5z " />
<glyph unicode="&#x44e;" horiz-adv-x="844" d="M76 0v516h99v-216h94q14 100 88 164t175 64q114 0 192 -76.5t78 -192.5q0 -117 -78 -194t-191 -77q-102 0 -176 64.5t-88 165.5h-94v-218h-99zM365 259q0 -80 48.5 -133t119.5 -53t119.5 53t48.5 133t-48.5 132t-119.5 52t-119.5 -52t-48.5 -132z" />
<glyph unicode="&#x44f;" horiz-adv-x="522" d="M24 0l120 171q3 6 6.5 11t6.5 8.5t5.5 6.5t3.5 5l1 1v1q-30 8 -55 28t-41 52t-16 70q0 78 50.5 120t134.5 42h206v-516h-99v187h-87l-126 -187h-110zM261 259h86v189h-83q-109 0 -109 -93q0 -47 29.5 -71.5t76.5 -24.5z" />
<glyph unicode="&#x450;" horiz-adv-x="568" d="M43 258q0 121 73.5 195.5t185.5 74.5q105 0 164 -68.5t59 -172.5q0 -14 -4 -42h-375q4 -81 54.5 -126.5t122.5 -45.5q85 0 152 61l42 -73q-37 -34 -91.5 -53.5t-108.5 -19.5q-120 0 -197 77t-77 193zM149 316h276q-2 64 -37 100t-88 36q-58 0 -99.5 -36t-51.5 -100z M273 592l-97 129h107l74 -129h-84z" />
<glyph unicode="&#x451;" horiz-adv-x="568" d="M342 618v103h80v-103h-80zM170 618v103h82v-103h-82zM43 258q0 121 73.5 195.5t185.5 74.5q105 0 164 -68.5t59 -172.5q0 -14 -4 -42h-375q4 -81 54.5 -126.5t122.5 -45.5q85 0 152 61l42 -73q-37 -34 -91.5 -53.5t-108.5 -19.5q-120 0 -197 77t-77 193zM149 316h276 q-2 64 -37 100t-88 36q-58 0 -99.5 -36t-51.5 -100z" />
<glyph unicode="&#x452;" horiz-adv-x="615" d="M76 0v564h-64v72h64v84h99v-84h211v-72h-211v-166l-2 -43h2q13 27 36.5 52t65.5 44t90 19q46 0 79 -12.5t55 -37t32.5 -61.5t10.5 -87v-276q0 -52 -14 -91t-34.5 -61t-48 -36t-50 -18t-44.5 -4l-42 3v85q13 -3 30 -3t32.5 4.5t33 16.5t28 38.5t10.5 65.5v254q0 30 -4 51 t-13.5 40t-29.5 28.5t-50 9.5q-58 0 -103 -35t-61 -92q-9 -27 -9 -68v-184h-99z" />
<glyph unicode="&#x453;" horiz-adv-x="421" d="M175 592l74 129h107l-98 -129h-83zM76 0v516h324v-85h-225v-431h-99z" />
<glyph unicode="&#x454;" horiz-adv-x="555" d="M43 258q0 116 78 193t198 77q37 0 70.5 -7.5t55.5 -18t38 -21t24 -18.5l7 -7l-46 -69l-3 3t-10 8l-16 12t-21.5 12.5t-27 11.5t-31.5 8.5t-37 3.5q-47 0 -86 -18t-64 -51.5t-31 -78.5h246v-72h-247q6 -47 31 -82.5t65 -55t89 -19.5q28 0 55 7.5t45.5 18t33.5 20.5t22 17 l7 8l38 -72l-8.5 -8.5t-25.5 -19.5t-42 -24.5t-57.5 -19t-73.5 -8.5q-121 0 -198.5 76.5t-77.5 193.5z" />
<glyph unicode="&#x455;" horiz-adv-x="455" d="M33 63l47 68q19 -19 44 -32.5t53 -21t55 -7.5q39 0 63 18t24 50q0 23 -19.5 40.5t-49 28t-64 25.5t-64 31.5t-49 46.5t-19.5 69q0 71 53 110t133 39q104 0 167 -57l-40 -71q-11 10 -26.5 19t-33 14.5t-35.5 9t-35 3.5q-26 0 -45.5 -7t-31 -21.5t-11.5 -36.5 q0 -23 19.5 -41t49.5 -28.5t64.5 -25t64 -30.5t49 -46t19.5 -70q0 -44 -23 -78.5t-65.5 -54t-96.5 -19.5q-55 0 -108 19t-89 56z" />
<glyph unicode="&#x456;" horiz-adv-x="250" d="M74 620v100h102v-100h-102zM76 0v516h99v-516h-99z" />
<glyph unicode="&#x457;" horiz-adv-x="250" d="M172 618v103h81v-103h-81zM1 618v103h82v-103h-82zM76 0v516h99v-516h-99z" />
<glyph unicode="&#x458;" horiz-adv-x="250" d="M74 620v100h102v-100h-102zM76 -11v527h99v-533q0 -49 -14.5 -86t-35.5 -57t-50 -32t-51.5 -15t-45.5 -3q-11 0 -35 2v85q10 -2 22 -2q18 0 34.5 4t35.5 14.5t30 35t11 60.5z" />
<glyph unicode="&#x459;" horiz-adv-x="768" d="M27 -5v89q39 5 64.5 33.5t39 86.5t13.5 149v163h306v-194h102q85 0 136.5 -40t51.5 -123q0 -74 -47.5 -116.5t-142.5 -42.5h-199v435h-112v-79q0 -123 -21 -200t-68 -117t-123 -44zM450 71h91q51 0 76 23.5t25 64.5q0 42 -25 66.5t-76 24.5h-91v-179z" />
<glyph unicode="&#x45a;" horiz-adv-x="833" d="M76 0v516h99v-197h241v197h99v-198h98q86 0 139 -39t53 -119q0 -74 -47.5 -117t-142.5 -43h-199v240h-241v-240h-99zM515 71h91q102 0 102 89q0 41 -27 64t-79 23h-87v-176z" />
<glyph unicode="&#x45b;" horiz-adv-x="615" d="M76 0v564h-64v72h64v84h99v-84h211v-72h-211v-166l-2 -43h2q20 44 71 79.5t121 35.5q91 0 134 -48.5t43 -148.5v-273h-99v251q0 30 -4 51t-13.5 39.5t-29.5 28t-50 9.5q-59 0 -103.5 -35t-60.5 -91q-9 -29 -9 -69v-184h-99z" />
<glyph unicode="&#x45c;" horiz-adv-x="532" d="M221 592l74 129h107l-98 -129h-83zM76 0v516h99v-208h73l141 208h112l-173 -246v-2l193 -268h-117l-154 223h-75v-223h-99z" />
<glyph unicode="&#x45d;" horiz-adv-x="609" d="M76 0v516h95v-308q0 -54 -3 -69h2q6 12 46 69l223 308h95v-516h-95v308q0 14 1.5 40t1.5 28h-2q-2 -4 -9 -14.5l-19 -28.5t-17 -25l-224 -308h-95zM285 592l-97 129h106l74 -129h-83z" />
<glyph unicode="&#x45e;" horiz-adv-x="545" d="M51 -107q29 -23 59 -23t54.5 20.5t39.5 56.5l26 59l-217 510h111l130 -338q3 -7 6 -16l5.5 -16.5t4 -14.5t2.5 -11l1 -4h2q9 35 18 61l125 339h107l-242 -609q-12 -30 -29.5 -53t-39 -38t-46.5 -22.5t-53 -7.5q-16 0 -32 3t-27.5 8t-20.5 9.5t-14 7.5l-5 3zM273 575 q-62 0 -106.5 35.5t-44.5 95.5v15h80v-14q0 -32 21 -49.5t50 -17.5q19 0 35 7t27 23t11 38v13h78v-15q0 -40 -21 -70.5t-55 -45.5t-75 -15z" />
<glyph unicode="&#x45f;" horiz-adv-x="586" d="M76 0v516h99v-430h236v430h98v-516h-170v-122h-91v122h-172z" />
<glyph unicode="&#x462;" horiz-adv-x="702" d="M194 0v550h-182v80h183v105h99v-105h208v-80h-208v-119h154q98 0 160.5 -58t62.5 -155q0 -98 -63 -158t-159 -60h-255zM294 88h138q62 0 99 34.5t37 95.5q0 58 -37.5 92t-99.5 34h-137v-256z" />
<glyph unicode="&#x463;" horiz-adv-x="545" d="M122 0v468h-123v75h123v177h99v-177h170v-75h-170v-139h107q86 0 136.5 -41t50.5 -125q0 -75 -47 -119t-141 -44h-205zM221 71h92q52 0 77.5 25.5t25.5 67.5q0 43 -25.5 68.5t-77.5 25.5h-92v-187z" />
<glyph unicode="&#x472;" horiz-adv-x="839" d="M50 365q0 102 48 186.5t133 132.5t189 48t189 -48t132.5 -132.5t47.5 -186.5q0 -105 -47.5 -191.5t-132.5 -136t-189 -49.5t-189 49.5t-133 136t-48 191.5zM420.5 78q103.5 0 177.5 69t87 176h-531q14 -107 88.5 -176t178 -69zM420 643q-104 0 -178.5 -67.5t-87.5 -171.5 h531q-13 104 -87 171.5t-178 67.5z" />
<glyph unicode="&#x473;" horiz-adv-x="641" d="M43 259q0 116 80.5 192.5t196.5 76.5q77 0 140.5 -34t101 -96t37.5 -139q0 -116 -81 -193.5t-197 -77.5t-197 77t-81 194zM321 64q70 0 122 46.5t62 119.5h-367q9 -73 60.5 -119.5t122.5 -46.5zM321 452q-70 0 -121.5 -44.5t-61.5 -114.5h366q-7 46 -33 82.5t-65 56.5 t-85 20z" />
<glyph unicode="&#x474;" horiz-adv-x="701" d="M275 0l-263 720h109l179 -509l27 -99h2q15 60 28 99l144 429q17 52 40.5 66t79.5 14h67v-89h-23h-24.5t-17 -2.5t-16 -8.5t-11.5 -16.5t-13 -27.5l-202 -576h-106z" />
<glyph unicode="&#x475;" horiz-adv-x="575" d="M212 0l-193 516h104l126 -349q4 -12 9 -30t7 -29l2 -11h2q9 42 19 70l85 256q12 36 27 55.5t38.5 28.5t59.5 9h58v-87h-23q-33 0 -48 -10.5t-27 -45.5l-132 -373h-114z" />
<glyph unicode="&#x48a;" horiz-adv-x="805" d="M95 0v720h101v-467q0 -18 -1.5 -44.5t-3.5 -43.5l-1 -17h2q36 67 61 106l319 466h99v-632h111v-58l-73 -173h-74l43 143h-107v467q0 18 1.5 44.5t3.5 43.5l1 17h-2q-34 -65 -60 -105l-321 -467h-99zM389 754q-40 0 -74 14.5t-55.5 45t-21.5 70.5v16h79v-15 q0 -31 21.5 -49t50.5 -18t50.5 18t21.5 50v14h79v-16q0 -60 -44.5 -95t-106.5 -35z" />
<glyph unicode="&#x48b;" horiz-adv-x="652" d="M76 0v516h95v-308q0 -54 -3 -69h2q6 12 46 69l223 308h95v-431h94v-56l-63 -151h-70l36 122h-92v308q0 14 1.5 40t1.5 28h-2q-2 -4 -9 -14.5l-19 -28.5t-17 -25l-224 -308h-95zM309 575q-62 0 -106.5 35.5t-44.5 95.5v15h80v-14q0 -32 21 -49.5t50 -17.5t50.5 17.5 t21.5 50.5v13h79v-15q0 -60 -44 -95.5t-107 -35.5z" />
<glyph unicode="&#x48c;" horiz-adv-x="690" d="M176 0v581h-165v79h167v105h99v-105h188v-79h-188v-144h161q97 0 159.5 -60t62.5 -159q0 -98 -63 -158t-158 -60h-263zM277 88h144q62 0 99 34.5t37 95.5t-37.5 96t-99.5 35h-143v-261z" />
<glyph unicode="&#x48d;" horiz-adv-x="550" d="M128 0v468h-124v75h124v177h98v-177h170v-75h-170v-139h108q85 0 135.5 -41t50.5 -125q0 -75 -47 -119t-140 -44h-205zM226 71h92q52 0 77.5 25.5t25.5 67.5q0 43 -25.5 68.5t-77.5 25.5h-92v-187z" />
<glyph unicode="&#x48e;" horiz-adv-x="634" d="M95 0v720h264q65 0 116.5 -27.5t80 -79t28.5 -118.5q0 -106 -66 -169l60 -79l-55 -46l-65 85q-47 -20 -99 -20h-163v-266h-101zM336 447l57 46l70 -94q27 38 27 91q0 67 -38 104.5t-105 37.5h-151v-286h150q33 0 59 9z" />
<glyph unicode="&#x48f;" horiz-adv-x="621" d="M76 -204v720h92v-46l-3 -39h2q2 4 6 10.5t18.5 23.5t32.5 29.5t49.5 23t67.5 10.5q68 0 120 -34t79 -95t27 -141q0 -116 -60 -191l56 -66l-55 -48l-56 66q-54 -31 -118 -31q-32 0 -60 9t-45.5 22t-30.5 25.5t-19 21.5l-6 9h-2q4 -18 4 -44v-235h-99zM324 173l55 48 l67 -80q28 46 28 113q0 86 -41 137t-109 51q-31 0 -57.5 -11t-48 -33t-34 -59.5t-12.5 -85.5t16.5 -88.5t51.5 -67.5t82 -27q40 0 72 19z" />
<glyph unicode="&#x490;" horiz-adv-x="513" d="M95 0v720h320v99h85v-187h-304v-632h-101z" />
<glyph unicode="&#x491;" horiz-adv-x="421" d="M76 0v516h245v93h80v-178h-226v-431h-99z" />
<glyph unicode="&#x492;" horiz-adv-x="516" d="M101 0v315h-62v75h62v330h396v-88h-296v-242h163v-75h-163v-315h-100z" />
<glyph unicode="&#x493;" horiz-adv-x="428" d="M80 0v212h-64v67h64v237h324v-85h-226v-152h132v-67h-132v-212h-98z" />
<glyph unicode="&#x494;" horiz-adv-x="623" d="M95 0v720h398v-88h-297v-232q24 11 63.5 20t75.5 9q55 0 98.5 -15t77.5 -48t52 -90.5t18 -135.5q0 -165 -69.5 -243.5t-191.5 -78.5v83q156 0 156 239q0 107 -38.5 154.5t-122.5 47.5q-54 0 -119 -28v-314h-101z" />
<glyph unicode="&#x495;" horiz-adv-x="513" d="M76 0v516h331v-80h-232v-168q57 26 114 26q51 0 89.5 -18.5t60 -50.5t31.5 -69.5t10 -81.5q0 -185 -154 -285l-48 69q107 70 107 210q0 143 -116 143q-51 0 -94 -26v-185h-99z" />
<glyph unicode="&#x496;" horiz-adv-x="956" d="M18 0l209 376v2l-194 342h110l168 -303h94v303h100v-303h95l167 303h110l-195 -342v-2l162 -288h97v-231h-90v143h-73l-178 329h-95v-329h-100v329h-94l-179 -329h-114z" />
<glyph unicode="&#x497;" horiz-adv-x="807" d="M17 0l167 265v2l-152 249h105l126 -211h74v211h93v-211h74l127 211h104l-151 -249v-2l113 -179h91v-208h-90v122h-58l-135 220h-75v-220h-93v220h-74l-135 -220h-111z" />
<glyph unicode="&#x498;" horiz-adv-x="558" d="M28 86l56 68q30 -33 75.5 -54t93.5 -21q67 0 108.5 35t41.5 95q0 56 -37.5 87.5t-97.5 31.5h-88v84h71q55 0 92 33t37 83t-32 83t-95 33q-89 0 -161 -62l-43 76q90 74 218 74q95 0 155.5 -51.5t60.5 -139.5q0 -111 -104 -163v-2q29 -8 52 -23.5t40 -37t26 -50t9 -61.5 q0 -86 -54.5 -142.5t-140.5 -69.5v-135h-92v134q-56 7 -106.5 31.5t-84.5 63.5z" />
<glyph unicode="&#x499;" horiz-adv-x="459" d="M27 63l45 66q23 -24 58 -43t77 -19q47 0 77 22.5t30 62.5q0 79 -106 79h-63v71h54q30 0 51.5 7.5t34 24.5t12.5 42q0 36 -24.5 55.5t-67.5 19.5q-65 0 -125 -45l-37 66q75 56 179 56q77 0 126 -36.5t49 -102.5q0 -86 -76 -118v-2q42 -13 67.5 -43.5t25.5 -77.5 q0 -63 -39.5 -103t-104.5 -52v-115h-88v112q-92 11 -155 73z" />
<glyph unicode="&#x49a;" horiz-adv-x="672" d="M95 0v720h101v-303h107l183 303h111l-210 -342v-2l171 -288h99v-231h-91v143h-71l-192 329h-107v-329h-101z" />
<glyph unicode="&#x49b;" horiz-adv-x="568" d="M76 0v516h99v-208h73l141 208h112l-173 -246v-2l131 -182h91v-208h-91v122h-55l-154 223h-75v-223h-99z" />
<glyph unicode="&#x49c;" horiz-adv-x="716" d="M95 0v720h101v-303h72v123h76v-123h49l181 303h111l-209 -342v-2l224 -376h-116l-191 329h-49v-123h-76v123h-72v-329h-101z" />
<glyph unicode="&#x49d;" horiz-adv-x="609" d="M76 0v516h99v-208h56v104h71v-104h23l141 208h112l-171 -246v-2l192 -268h-117l-154 223h-26v-106h-71v106h-56v-223h-99z" />
<glyph unicode="&#x49e;" horiz-adv-x="631" d="M16 536v72h82v112h101v-112h97v-72h-97v-119h107l183 303h111l-210 -342v-2l223 -376h-115l-192 329h-107v-329h-101v536h-82z" />
<glyph unicode="&#x49f;" horiz-adv-x="532" d="M76 0v540h-63v69h63v111h99v-111h116v-69h-116v-218h74l140 194h112l-172 -231v-2l191 -283h-115l-154 237h-76v-237h-99z" />
<glyph unicode="&#x4a0;" horiz-adv-x="765" d="M234 0v632h-217v88h317v-303h108l181 303h111l-210 -342v-2l224 -376h-115l-191 329h-108v-329h-100z" />
<glyph unicode="&#x4a1;" horiz-adv-x="604" d="M150 0v431h-140v85h239v-208h72l141 208h111l-171 -246v-2l193 -268h-118l-154 223h-74v-223h-99z" />
<glyph unicode="&#x4a2;" horiz-adv-x="800" d="M95 0v720h101v-316h374v316h100v-632h100v-231h-92v143h-108v316h-374v-316h-101z" />
<glyph unicode="&#x4a3;" horiz-adv-x="645" d="M76 0v516h99v-210h262v210h99v-430h86v-208h-91v122h-94v221h-262v-221h-99z" />
<glyph unicode="&#x4a4;" horiz-adv-x="950" d="M95 0v720h101v-316h345v316h395v-88h-295v-632h-100v316h-345v-316h-101z" />
<glyph unicode="&#x4a5;" horiz-adv-x="742" d="M76 0v516h99v-210h238v210h308v-85h-209v-431h-99v221h-238v-221h-99z" />
<glyph unicode="&#x4a6;" horiz-adv-x="1016" d="M95 0v720h500v-310q15 7 37 13.5t49.5 11.5t51.5 5q115 0 180.5 -71t65.5 -229q0 -57 -8 -103.5t-24 -81.5t-38.5 -61.5t-51.5 -43t-63.5 -24.5t-74.5 -8v83q156 0 156 239q0 114 -38.5 165t-122.5 51q-52 0 -119 -29v-327h-100v633h-299v-633h-101z" />
<glyph unicode="&#x4a7;" horiz-adv-x="832" d="M76 0v516h405v-218q55 26 115 26q51 0 91 -18.5t64.5 -51t37 -74.5t12.5 -90q0 -197 -154 -301l-48 69q106 73 106 228q0 71 -30 112.5t-95 41.5q-54 0 -99 -27v-213h-99v431h-207v-431h-99z" />
<glyph unicode="&#x4a8;" horiz-adv-x="954" d="M52 371q0 77 24 142t63 108t81.5 71t87.5 40l35 -90q-36 -13 -67.5 -35t-60 -54.5t-45 -80.5t-16.5 -104q0 -57 17 -108.5t49.5 -91.5t83.5 -63.5t115 -23.5q57 0 112 17q-75 56 -117.5 138t-42.5 181q0 57 14.5 106.5t40 85t59 61t72.5 38t81 12.5q113 0 186 -79.5 t73 -216.5q0 -62 -22.5 -122.5t-61 -111.5t-91.5 -92q56 -14 117 -14h48v-84h-49q-107 0 -206 40q-102 -52 -214 -52q-161 0 -263.5 105t-102.5 278zM475 418q0 -89 38.5 -161t108.5 -116q78 48 124.5 123t46.5 159q0 100 -44.5 152.5t-112.5 52.5q-29 0 -56.5 -12.5 t-51.5 -37t-38.5 -66t-14.5 -94.5z" />
<glyph unicode="&#x4a9;" horiz-adv-x="797" d="M44 266q0 54 17 100t45 77.5t59.5 52.5t65.5 32l33 -80q-32 -13 -59.5 -36.5t-47 -62.5t-19.5 -85q0 -83 51.5 -139t153.5 -56q44 0 88 13q-122 88 -122 227q0 93 62.5 156t158.5 63q97 0 155 -58t58 -149q0 -43 -16.5 -86t-44.5 -80.5t-67 -68.5q36 -7 80 -7h54v-79h-50 q-89 0 -172 31q-89 -43 -185 -43q-141 0 -219.5 78.5t-78.5 199.5zM403 311q0 -62 31.5 -111.5t87.5 -80.5q38 22 65.5 51t44.5 67t17 79t-15 71.5t-42 46.5t-64 16q-54 0 -89.5 -39.5t-35.5 -99.5z" />
<glyph unicode="&#x4aa;" horiz-adv-x="731" d="M51 364q0 104 46.5 188t130.5 132t189 48q48 0 94 -9.5t91 -31t78 -53.5l-51 -76q-26 23 -60.5 41t-72.5 28t-75 10q-122 0 -194 -79t-72 -197q0 -77 31.5 -141t93.5 -103.5t143 -39.5q60 0 119 25t103 68l54 -72q-102 -102 -244 -112v-133h-92v135q-141 18 -226.5 122 t-85.5 250z" />
<glyph unicode="&#x4ab;" horiz-adv-x="556" d="M43 258q0 116 78 193t198 77q55 0 107 -19t87 -56l-47 -69q-27 26 -65 42.5t-78 16.5q-77 0 -128 -52.5t-51 -131.5t51.5 -132.5t130.5 -53.5q29 0 58 9t55.5 24.5t46.5 36.5l39 -73q-30 -32 -75.5 -53t-96.5 -27v-112h-89v115q-100 17 -160.5 89.5t-60.5 175.5z" />
<glyph unicode="&#x4ac;" horiz-adv-x="629" d="M261 0l1 2v630h-248v88h596v-88h-248v-544h100v-231h-92v143h-109z" />
<glyph unicode="&#x4ad;" horiz-adv-x="505" d="M201 0v431h-180v85h458v-85h-180v-345h87v-208h-91v122h-94z" />
<glyph unicode="&#x4ae;" horiz-adv-x="591" d="M246 0v305l-242 415h114l133 -237l44 -90h2q21 49 44 90l132 237h115l-242 -415v-305h-100z" />
<glyph unicode="&#x4af;" horiz-adv-x="536" d="M219 23l-201 493h104l126 -320q5 -13 10 -30t7 -28l2 -10h2q8 38 20 68l125 320h104l-201 -493v-227h-98v227z" />
<glyph unicode="&#x4b0;" horiz-adv-x="591" d="M121 238v74h121l-238 408h114l133 -237l44 -90h2q21 49 44 90l132 237h115l-238 -408h122v-74h-126v-238h-100v238h-125z" />
<glyph unicode="&#x4b1;" horiz-adv-x="535" d="M101 0v72h98l-181 444h105l125 -320q5 -13 10 -30t7 -28l2 -10h2q8 38 20 68l123 320h104l-179 -444h100v-72h-120v-204h-98v204h-118z" />
<glyph unicode="&#x4b2;" horiz-adv-x="655" d="M16 0l227 371l-212 349h115l113 -195l46 -85h2q20 46 44 85l114 195h116l-214 -349l174 -283h101v-231h-92v143h-69l-131 221l-45 83h-2q-22 -43 -44 -83l-130 -221h-113z" />
<glyph unicode="&#x4b3;" horiz-adv-x="543" d="M17 0l177 265l-166 251h113l96 -157l16 -31h2q10 18 17 31l96 157h113l-166 -251l120 -179h87v-208h-91v122h-52l-108 172l-16 28h-2q-7 -15 -15 -28l-108 -172h-113z" />
<glyph unicode="&#x4b4;" horiz-adv-x="920" d="M234 0v632h-217v88h533v-88h-216v-544h360v632h100v-632h92v-231h-90v143h-562z" />
<glyph unicode="&#x4b5;" horiz-adv-x="746" d="M181 0v431h-159v85h418v-85h-161v-345h265v430h99v-430h76v-207h-91v121h-447z" />
<glyph unicode="&#x4b6;" horiz-adv-x="686" d="M269 276q-109 0 -163 54.5t-54 156.5v233h102v-212q0 -70 33 -105t104 -35q32 0 65.5 8.5t57 19t40.5 21.5v303h102v-632h99v-231h-91v143h-110v292l2 33h-2q-93 -49 -185 -49z" />
<glyph unicode="&#x4b7;" horiz-adv-x="570" d="M217 180q-83 0 -128 43t-45 125v168h97v-154q0 -44 22 -70.5t81 -26.5q63 0 114 37v214h99v-430h90v-208h-90v122h-99v187l1 30h-2q-26 -16 -64.5 -26.5t-75.5 -10.5z" />
<glyph unicode="&#x4b8;" horiz-adv-x="667" d="M276 171v108q-114 0 -170 54.5t-56 156.5v230h102v-212q0 -66 29.5 -100.5t94.5 -38.5v143h76v-139q70 13 117 44v303h102v-720h-102v295l2 33h-2q-52 -27 -117 -40v-117h-76z" />
<glyph unicode="&#x4b9;" horiz-adv-x="557" d="M225 182q-86 0 -133.5 42.5t-47.5 123.5v168h97v-154q0 -86 87 -96v125h73v-122q46 10 83 33v214h98v-516h-98v191l2 30h-2q-35 -19 -83 -30v-90h-73v81h-3z" />
<glyph unicode="&#x4ba;" horiz-adv-x="639" d="M95 0v720h101v-266l-2 -34h2q89 47 188 47q102 0 151.5 -56.5t49.5 -156.5v-254h-102v238q0 68 -30 103.5t-96 35.5q-47 0 -90.5 -14.5t-70.5 -32.5v-330h-101z" />
<glyph unicode="&#x4bb;" horiz-adv-x="615" d="M76 0v720h99v-267q0 -11 -1 -21.5t-2 -16.5l-1 -5h2q22 45 73 81.5t121 36.5q90 0 133.5 -49t43.5 -149v-330h-99v308q0 30 -4 51.5t-13.5 40t-29.5 28.5t-50 10q-49 0 -88.5 -25t-62 -69t-22.5 -99v-245h-99z" />
<glyph unicode="&#x4bc;" horiz-adv-x="893" d="M39 524q0 50 8 85l8 40h92l-8 -41q-8 -38 -8 -75q0 -44 19.5 -73.5t61.5 -29.5h4q14 90 59 158.5t114.5 106t153.5 37.5q90 0 157.5 -40.5t103.5 -116t36 -177.5l-3 -48h-521q2 -124 74.5 -196.5t175.5 -72.5q41 0 81.5 10.5t69.5 27t44.5 27.5t24.5 19l49 -77 q-112 -100 -279 -100q-147 0 -245 101.5t-100 261.5h-3q-79 0 -124 45t-45 128zM319 430h418q0 91 -49.5 152t-144.5 61q-92 0 -152 -62.5t-72 -150.5z" />
<glyph unicode="&#x4bd;" horiz-adv-x="693" d="M34 398q0 39 12 75h82q-13 -32 -13 -70q0 -83 58 -86q18 97 87.5 154t166.5 57q105 0 164 -68.5t59 -172.5l-3 -42h-377q4 -80 55 -126t124 -46q39 0 77 15.5t56 30.5l19 15l41 -73q-78 -73 -199 -73q-118 0 -194 72.5t-81 184.5q-134 0 -134 153zM273 316h277 q-2 64 -37.5 99t-88.5 35q-57 0 -98.5 -36t-52.5 -98z" />
<glyph unicode="&#x4be;" horiz-adv-x="894" d="M39 524q0 50 8 85l8 40h92l-8 -41q-8 -38 -8 -75q0 -44 19.5 -73.5t61.5 -29.5h4q14 90 59 158.5t114.5 106t153.5 37.5q90 0 157.5 -40.5t103.5 -116t36 -177.5l-3 -48h-521q2 -124 74.5 -196.5t175.5 -72.5q41 0 81.5 10.5t69.5 27t44.5 27.5t24.5 19l49 -77 q-99 -89 -245 -99v-132h-92v136q-126 19 -205.5 116.5t-81.5 241.5h-3q-79 0 -124 45t-45 128zM319 430h418q0 91 -49.5 152t-144.5 61q-92 0 -152 -62.5t-72 -150.5z" />
<glyph unicode="&#x4bf;" horiz-adv-x="693" d="M34 398q0 39 12 75h82q-13 -32 -13 -70q0 -83 58 -86q18 97 87.5 154t166.5 57q105 0 164 -68.5t59 -172.5l-3 -42h-377q4 -80 55 -126t124 -46q39 0 77 15.5t56 30.5l19 15l41 -73q-3 -2 -8.5 -6.5t-23.5 -16.5t-37 -21t-49 -17.5t-61 -10.5v-111h-89v118 q-90 20 -146 87.5t-60 161.5q-134 0 -134 153zM273 316h277q-2 64 -37.5 99t-88.5 35q-57 0 -98.5 -36t-52.5 -98z" />
<glyph unicode="&#x4c0;" horiz-adv-x="290" d="M95 0v720h100v-720h-100z" />
<glyph unicode="&#x4c1;" horiz-adv-x="909" d="M18 0l209 376v2l-194 342h110l168 -303h94v303h100v-303h95l167 303h110l-195 -342v-2l210 -376h-114l-178 329h-95v-329h-100v329h-94l-179 -329h-114zM457 754q-40 0 -74 14.5t-55.5 45t-21.5 70.5v16h80v-15q0 -31 21 -49t50 -18t50.5 18t21.5 50v14h79v-16 q0 -60 -44 -95t-107 -35z" />
<glyph unicode="&#x4c2;" d="M17 0l167 265v2l-152 249h105l126 -211h74v211h93v-211h74l127 211h104l-151 -249v-2l167 -265h-111l-135 220h-75v-220h-93v220h-74l-135 -220h-111zM382 575q-62 0 -106 35.5t-44 95.5v15h79v-14q0 -32 21 -49.5t50 -17.5q30 0 51.5 17.5t21.5 50.5v13h78v-15 q0 -40 -21 -70.5t-55 -45.5t-75 -15z" />
<glyph unicode="&#x4c3;" horiz-adv-x="648" d="M95 0v720h101v-303h107l183 303h111l-197 -321q68 -17 114 -61t65 -97.5t19 -115.5q0 -141 -68.5 -224t-183.5 -83v85q28 0 53 11t46.5 35t34.5 67.5t13 102.5q0 106 -60 159.5t-166 53.5h-71v-332h-101z" />
<glyph unicode="&#x4c4;" horiz-adv-x="538" d="M76 0v516h99v-209h72l142 209h112l-162 -231v-2q46 -14 79 -40.5t49 -59.5t22.5 -64t6.5 -65q0 -95 -45.5 -161.5t-110.5 -103.5l-47 71q46 24 76.5 72t30.5 122q0 81 -46 124t-131 43h-48v-221h-99z" />
<glyph unicode="&#x4c5;" horiz-adv-x="731" d="M12 85q45 6 77 37.5t51 91.5t27.5 141.5t8.5 194.5v170h421v-632h111v-58l-74 -173h-74l44 143h-108v632h-224v-83q0 -135 -12.5 -232.5t-42 -171t-80.5 -111.5t-125 -42v93z" />
<glyph unicode="&#x4c6;" horiz-adv-x="597" d="M20 -5v89q59 8 88 72.5t29 200.5v159h345v-431h91v-56l-64 -151h-69l36 122h-92v435h-152v-78q0 -179 -50 -267.5t-162 -94.5z" />
<glyph unicode="&#x4c7;" horiz-adv-x="765" d="M95 0v720h101v-316h374v316h100l1 -668q0 -59 -14 -104t-35 -69.5t-50.5 -39.5t-56 -19t-55.5 -3v86q110 0 110 146v267h-374v-316h-101z" />
<glyph unicode="&#x4c8;" horiz-adv-x="613" d="M76 0v516h99v-210h262v210h100v-467q0 -43 -8 -78.5t-21 -61.5t-33.5 -48.5t-41.5 -38.5t-49 -33l-52 72q52 28 78.5 70t26.5 117v173h-262v-221h-99z" />
<glyph unicode="&#x4c9;" horiz-adv-x="805" d="M95 0v720h101v-316h374v316h100v-632h112v-58l-74 -173h-74l43 143h-107v316h-374v-316h-101z" />
<glyph unicode="&#x4ca;" horiz-adv-x="650" d="M76 0v516h99v-210h262v210h99v-431h90v-56l-64 -151h-69l36 122h-92v221h-262v-221h-99z" />
<glyph unicode="&#x4cb;" horiz-adv-x="650" d="M269 276q-109 0 -163 54.5t-54 156.5v233h102v-212q0 -70 33 -105t104 -35q32 0 65.5 8.5t57 19t40.5 21.5v303h102v-720h-111v-143h-91v231h100v204l2 33h-2q-93 -49 -185 -49z" />
<glyph unicode="&#x4cc;" horiz-adv-x="536" d="M275 68h87v129l1 30h-1q-28 -15 -71.5 -26.5t-82.5 -11.5q-79 0 -122 42.5t-43 123.5v161h98v-148q0 -97 98 -97q68 0 123 38v207h99v-516h-95v-122h-91v190z" />
<glyph unicode="&#x4cd;" horiz-adv-x="911" d="M67 0l59 720h106l166 -390l34 -96h3q19 57 35 96l166 390h106l51 -632h111v-58l-74 -173h-73l43 143h-100l-35 454q-2 19 -2.5 45.5t0.5 43.5v17h-2q-23 -66 -39 -106l-144 -324h-89l-143 324q-5 11 -10.5 26t-10.5 29t-9 26t-7 20l-2 7h-2q2 -64 -2 -108l-35 -454h-101z " />
<glyph unicode="&#x4ce;" horiz-adv-x="788" d="M55 0l45 516h110l132 -292l28 -69h2q16 38 29 69l135 292h108l37 -431h94v-56l-64 -151h-70l36 122h-84l-23 307l1 89h-2q-13 -36 -32 -76l-123 -258h-85l-122 257l-33 77h-2q0 -1 0.5 -2.5t0.5 -5.5v-8.5t0.5 -10.5t0.5 -12v-13v-13.5v-12.5t-1 -11l-22 -307h-96z" />
<glyph unicode="&#x4cf;" horiz-adv-x="250" d="M76 0v720h99v-720h-99z" />
<glyph unicode="&#x4d0;" horiz-adv-x="653" d="M15 0l258 720h107l259 -720h-105l-72 207h-271l-73 -207h-103zM217 291h219l-80 227l-29 103h-2q-15 -65 -27 -103zM324 754q-62 0 -106.5 35t-44.5 95v16h80v-15q0 -21 10.5 -36.5t26.5 -23t34 -7.5q30 0 51.5 18t21.5 50v14h78v-16q0 -40 -21 -70.5t-55 -45t-75 -14.5z " />
<glyph unicode="&#x4d1;" horiz-adv-x="537" d="M34 141q0 39 14.5 69.5t41.5 49.5t57 32t67.5 19t66.5 8t61 2h26v11q0 113 -113 113q-74 0 -145 -50l-40 72q32 27 86 44t107 17q65 0 110.5 -23t69.5 -68.5t24 -110.5v-326h-93v52l3 41h-2q-23 -46 -68 -75.5t-101 -29.5q-71 0 -121.5 41.5t-50.5 111.5zM133 149 q0 -33 25.5 -58t71.5 -25q61 0 99.5 51t38.5 114v19h-25q-210 0 -210 -101zM276 575q-62 0 -106.5 35.5t-44.5 95.5v15h80v-14q0 -32 21 -49.5t50 -17.5q30 0 51.5 17.5t21.5 50.5v13h78v-15q0 -60 -44 -95.5t-107 -35.5z" />
<glyph unicode="&#x4d2;" horiz-adv-x="653" d="M15 0l258 720h107l259 -720h-105l-72 207h-271l-73 -207h-103zM217 291h219l-80 227l-29 103h-2q-15 -65 -27 -103zM371 797v103h81v-103h-81zM200 797v103h82v-103h-82z" />
<glyph unicode="&#x4d3;" horiz-adv-x="537" d="M34 141q0 39 14.5 69.5t41.5 49.5t57 32t67.5 19t66.5 8t61 2h26v11q0 113 -113 113q-74 0 -145 -50l-40 72q32 27 86 44t107 17q65 0 110.5 -23t69.5 -68.5t24 -110.5v-326h-93v52l3 41h-2q-23 -46 -68 -75.5t-101 -29.5q-71 0 -121.5 41.5t-50.5 111.5zM133 149 q0 -33 25.5 -58t71.5 -25q61 0 99.5 51t38.5 114v19h-25q-210 0 -210 -101zM311 618v103h81v-103h-81zM140 618v103h81v-103h-81z" />
<glyph unicode="&#x4d4;" horiz-adv-x="893" d="M8 0l298 720h527v-88h-318v-225h258v-88h-258v-231h335v-88h-435v320h-174l-128 -320h-105zM274 404h141v228h-48z" />
<glyph unicode="&#x4d5;" horiz-adv-x="880" d="M35 145q0 34 11.5 61.5t30 45.5t46.5 31t53.5 20t59 11t56 4.5t51.5 0.5h25v13q0 113 -116 113q-74 0 -143 -50l-40 72q33 28 85.5 44.5t103.5 16.5q130 0 172 -90h2q62 90 183 90q103 0 162 -68t59 -171q0 -14 -2 -42h-371q3 -56 27 -95.5t61 -59t84 -19.5 q41 0 81.5 16.5t71.5 43.5l41 -72q-36 -33 -91 -53t-109 -20q-76 0 -133.5 34t-87.5 94h-2q-4 -10 -11 -23t-23.5 -32.5t-37 -34.5t-53 -26t-70.5 -11q-75 0 -125.5 41.5t-50.5 114.5zM467 319h269q-1 31 -11.5 56.5t-27.5 41t-38 24t-45 8.5q-58 0 -97 -33.5t-50 -96.5z M135 150q0 -34 25.5 -58.5t72.5 -24.5q40 0 72 25.5t48 63t16 77.5v14h-49q-185 0 -185 -97z" />
<glyph unicode="&#x4d6;" horiz-adv-x="575" d="M95 0v720h419v-88h-318v-225h258v-88h-258v-231h335v-88h-436zM309 754q-62 0 -106.5 35t-44.5 95v16h80v-15q0 -31 21 -49t50 -18t50.5 18t21.5 50v14h79v-16q0 -60 -44 -95t-107 -35z" />
<glyph unicode="&#x4d7;" horiz-adv-x="568" d="M43 258q0 121 73.5 195.5t185.5 74.5q105 0 164 -68.5t59 -172.5q0 -14 -4 -42h-375q4 -81 54.5 -126.5t122.5 -45.5q85 0 152 61l42 -73q-37 -34 -91.5 -53.5t-108.5 -19.5q-120 0 -197 77t-77 193zM149 316h276q-2 64 -37 100t-88 36q-58 0 -99.5 -36t-51.5 -100z M297 575q-62 0 -106.5 35.5t-44.5 95.5v15h79v-14q0 -32 21.5 -49.5t50.5 -17.5q18 0 34.5 7t27 23t10.5 38v13h79v-15q0 -40 -21.5 -70.5t-55.5 -45.5t-74 -15z" />
<glyph unicode="&#x4d8;" horiz-adv-x="736" d="M52 346l3 51h523q-5 108 -71 176t-168 68q-55 0 -108.5 -18.5t-76 -33t-37.5 -27.5l-51 76q1 0 3 1q13 12 29 22t52.5 29t88.5 30.5t110 11.5q98 0 175 -48t118.5 -132t41.5 -189q0 -164 -89.5 -269.5t-236.5 -105.5q-142 0 -224 92.5t-82 265.5zM154 316 q0 -114 51.5 -175.5t157.5 -61.5q62 0 110.5 29t75.5 83t28 125h-423z" />
<glyph unicode="&#x4d9;" horiz-adv-x="568" d="M43 240l3 46h377q-3 48 -26 85t-59.5 56.5t-80.5 19.5q-42 0 -83 -14.5t-61 -29.5l-20 -14l-40 70q1 0 9 5.5t14.5 9.5t19.5 11t25 12.5t30 11.5t35 10t38.5 6.5t43.5 2.5q115 0 186 -75.5t71 -193.5q0 -124 -71 -197.5t-182 -73.5q-110 0 -169.5 69.5t-59.5 182.5z M146 214q2 -76 37.5 -112t90.5 -36q38 0 69.5 15.5t53 50t22.5 82.5h-273z" />
<glyph unicode="&#x4da;" horiz-adv-x="736" d="M406 797v103h81v-103h-81zM235 797v103h81v-103h-81zM52 346l3 51h523q-5 108 -71 176t-168 68q-55 0 -108.5 -18.5t-76 -33t-37.5 -27.5l-51 76q1 0 3 1q13 12 29 22t52.5 29t88.5 30.5t110 11.5q98 0 175 -48t118.5 -132t41.5 -189q0 -164 -89.5 -269.5t-236.5 -105.5 q-142 0 -224 92.5t-82 265.5zM154 316q0 -114 51.5 -175.5t157.5 -61.5q62 0 110.5 29t75.5 83t28 125h-423z" />
<glyph unicode="&#x4db;" horiz-adv-x="568" d="M315 618v103h81v-103h-81zM144 618v103h81v-103h-81zM43 240l3 46h377q-3 48 -26 85t-59.5 56.5t-80.5 19.5q-42 0 -83 -14.5t-61 -29.5l-20 -14l-40 70q1 0 9 5.5t14.5 9.5t19.5 11t25 12.5t30 11.5t35 10t38.5 6.5t43.5 2.5q115 0 186 -75.5t71 -193.5 q0 -124 -71 -197.5t-182 -73.5q-110 0 -169.5 69.5t-59.5 182.5zM146 214q2 -76 37.5 -112t90.5 -36q38 0 69.5 15.5t53 50t22.5 82.5h-273z" />
<glyph unicode="&#x4dc;" horiz-adv-x="909" d="M18 0l209 376v2l-194 342h110l168 -303h94v303h100v-303h95l167 303h110l-195 -342v-2l210 -376h-114l-178 329h-95v-329h-100v329h-94l-179 -329h-114zM503 797v103h80v-103h-80zM332 797v103h81v-103h-81z" />
<glyph unicode="&#x4dd;" d="M428 618v103h81v-103h-81zM257 618v103h82v-103h-82zM17 0l167 265v2l-152 249h105l126 -211h74v211h93v-211h74l127 211h104l-151 -249v-2l167 -265h-111l-135 220h-75v-220h-93v220h-74l-135 -220h-111z" />
<glyph unicode="&#x4de;" horiz-adv-x="556" d="M318 797v103h81v-103h-81zM147 797v103h81v-103h-81zM28 86l56 68q30 -33 75.5 -54t93.5 -21q67 0 108.5 35t41.5 95q0 56 -37.5 87.5t-97.5 31.5h-88v84h71q55 0 92 33t37 83t-32 83t-95 33q-89 0 -161 -62l-43 76q90 74 218 74q95 0 155.5 -51.5t60.5 -139.5 q0 -111 -104 -163v-2q29 -8 52 -23.5t40 -37t26 -50t9 -61.5q0 -98 -70 -157t-175 -59q-66 0 -129 26t-104 72z" />
<glyph unicode="&#x4df;" horiz-adv-x="456" d="M267 618v103h81v-103h-81zM96 618v103h81v-103h-81zM27 63l45 66q23 -24 58 -43t77 -19q47 0 77 22.5t30 62.5q0 79 -106 79h-63v71h54q30 0 51.5 7.5t34 24.5t12.5 42q0 36 -24.5 55.5t-67.5 19.5q-65 0 -125 -45l-37 66q75 56 179 56q77 0 126 -36.5t49 -102.5 q0 -86 -76 -118v-2q42 -13 67.5 -43.5t25.5 -77.5q0 -76 -57 -118t-141 -42q-56 0 -105.5 21t-83.5 54z" />
<glyph unicode="&#x4e0;" horiz-adv-x="537" d="M69 125q21 -14 48 -26t57 -19t58 -7q71 0 114.5 37t43.5 96q0 51 -27 79.5t-88 36.5q-19 2 -156 2v68l188 205q10 10 20.5 19.5t17.5 14.5l6 4v3q-28 -3 -62 -3h-238v85h416v-76l-200 -214l-29 -25v-2q64 -2 92 -8q158 -29 158 -185q0 -101 -71 -160.5t-181.5 -59.5 t-201.5 61z" />
<glyph unicode="&#x4e1;" horiz-adv-x="496" d="M45 -79q31 -22 76 -37t86 -15q47 0 83 17t55.5 47t19.5 69q0 51 -27 79.5t-87 36.5q-19 2 -156 2v68l188 205q9 10 20 19.5t17 14.5l6 4v3q-27 -3 -62 -3h-237v85h416v-76l-200 -214l-30 -25v-2q65 -2 93 -8q157 -29 157 -185q0 -101 -71 -160.5t-181 -59.5t-202 61z" />
<glyph unicode="&#x4e2;" d="M262 800v72h259v-72h-259zM95 0v720h101v-467q0 -18 -1.5 -44.5t-3.5 -43.5l-1 -17h2q36 67 61 106l319 466h99v-720h-100v467q0 18 1.5 44.5t3.5 43.5l1 17h-2q-34 -65 -60 -105l-321 -467h-99z" />
<glyph unicode="&#x4e3;" horiz-adv-x="609" d="M76 0v516h95v-308q0 -54 -3 -69h2q6 12 46 69l223 308h95v-516h-95v308q0 14 1.5 40t1.5 28h-2q-2 -4 -9 -14.5l-19 -28.5t-17 -25l-224 -308h-95zM180 621v73h259v-73h-259z" />
<glyph unicode="&#x4e4;" d="M429 797v103h81v-103h-81zM258 797v103h82v-103h-82zM95 0v720h101v-467q0 -18 -1.5 -44.5t-3.5 -43.5l-1 -17h2q36 67 61 106l319 466h99v-720h-100v467q0 18 1.5 44.5t3.5 43.5l1 17h-2q-34 -65 -60 -105l-321 -467h-99z" />
<glyph unicode="&#x4e5;" horiz-adv-x="609" d="M354 618v103h81v-103h-81zM183 618v103h81v-103h-81zM76 0v516h95v-308q0 -54 -3 -69h2q6 12 46 69l223 308h95v-516h-95v308q0 14 1.5 40t1.5 28h-2q-2 -4 -9 -14.5l-19 -28.5t-17 -25l-224 -308h-95z" />
<glyph unicode="&#x4e6;" horiz-adv-x="839" d="M463 797v103h81v-103h-81zM292 797v103h81v-103h-81zM50 365q0 77 28 145t76.5 117t117.5 77t148 28q105 0 190 -48t132 -132t47 -187q0 -105 -47 -191t-132 -136t-190 -50q-79 0 -148 29t-117.5 79.5t-76.5 120.5t-28 148zM154 365q0 -121 75.5 -202.5t190.5 -81.5 q75 0 136 37t95 102t34 145q0 118 -75 197t-190 79t-190.5 -79t-75.5 -197z" />
<glyph unicode="&#x4e7;" horiz-adv-x="641" d="M367 618v103h81v-103h-81zM196 618v103h81v-103h-81zM43 259q0 116 80.5 192.5t196.5 76.5q77 0 140.5 -34t101 -96t37.5 -139q0 -116 -81 -193.5t-197 -77.5t-197 77t-81 194zM144 259q0 -80 51.5 -133t125.5 -53q48 0 89 24t65 66.5t24 95.5q0 79 -52 131.5t-126 52.5 q-48 0 -88.5 -23.5t-64.5 -66t-24 -94.5z" />
<glyph unicode="&#x4e8;" horiz-adv-x="839" d="M50 365q0 102 48 186.5t133 132.5t189 48t189 -48t132.5 -132.5t47.5 -186.5q0 -105 -47.5 -191.5t-132.5 -136t-189 -49.5t-189 49.5t-133 136t-48 191.5zM420.5 78q103.5 0 177.5 69t87 176h-531q14 -107 88.5 -176t178 -69zM420 643q-104 0 -178.5 -67.5t-87.5 -171.5 h531q-13 104 -87 171.5t-178 67.5z" />
<glyph unicode="&#x4e9;" horiz-adv-x="641" d="M43 259q0 116 80.5 192.5t196.5 76.5q77 0 140.5 -34t101 -96t37.5 -139q0 -116 -81 -193.5t-197 -77.5t-197 77t-81 194zM321 64q70 0 122 46.5t62 119.5h-367q9 -73 60.5 -119.5t122.5 -46.5zM321 452q-70 0 -121.5 -44.5t-61.5 -114.5h366q-7 46 -33 82.5t-65 56.5 t-85 20z" />
<glyph unicode="&#x4ea;" horiz-adv-x="839" d="M50 365q0 102 48 186.5t133 132.5t189 48t189 -48t132.5 -132.5t47.5 -186.5q0 -105 -47.5 -191.5t-132.5 -136t-189 -49.5t-189 49.5t-133 136t-48 191.5zM420.5 78q103.5 0 177.5 69t87 176h-531q14 -107 88.5 -176t178 -69zM420 643q-104 0 -178.5 -67.5t-87.5 -171.5 h531q-13 104 -87 171.5t-178 67.5zM294 797v103h81v-103h-81zM465 797v103h81v-103h-81z" />
<glyph unicode="&#x4eb;" horiz-adv-x="641" d="M43 259q0 116 80.5 192.5t196.5 76.5q77 0 140.5 -34t101 -96t37.5 -139q0 -116 -81 -193.5t-197 -77.5t-197 77t-81 194zM321 64q70 0 122 46.5t62 119.5h-367q9 -73 60.5 -119.5t122.5 -46.5zM321 452q-70 0 -121.5 -44.5t-61.5 -114.5h366q-7 46 -33 82.5t-65 56.5 t-85 20zM193 618v103h81v-103h-81zM364 618v103h81v-103h-81z" />
<glyph unicode="&#x4ec;" horiz-adv-x="730" d="M377 797v103h81v-103h-81zM206 797v103h82v-103h-82zM34 98l53 70q38 -39 99 -63.5t125 -24.5q106 0 178 68t84 171h-376v84h377q-10 104 -82.5 171t-179.5 67q-120 0 -213 -81l-50 75q47 48 118 72.5t147 24.5q107 0 191.5 -48.5t129.5 -132t45 -186.5 q0 -105 -47 -191.5t-132 -136t-190 -49.5q-81 0 -153.5 29.5t-123.5 80.5z" />
<glyph unicode="&#x4ed;" horiz-adv-x="554" d="M304 618v103h81v-103h-81zM133 618v103h81v-103h-81zM31 65l38 71q65 -67 163 -67q71 0 121.5 42.5t60.5 110.5h-247v72h247q-6 46 -31.5 81t-64 54t-83.5 19q-86 0 -149 -60l-45 68q22 24 55 40.5t69 24t73 7.5q59 0 110 -20.5t87 -56.5t56 -86t20 -107 q0 -77 -34.5 -138.5t-98 -96.5t-142.5 -35q-58 0 -112 19.5t-93 57.5z" />
<glyph unicode="&#x4ee;" horiz-adv-x="610" d="M177 800v72h260v-72h-260zM76 35l46 76q47 -36 83 -36q20 0 35.5 10.5t25.5 27t21 43.5l-285 564h111l176 -362q6 -13 12.5 -27t11.5 -25.5t8.5 -21.5t5.5 -15l2 -6h3q15 50 30 94l134 363h106l-230 -587q-57 -145 -164 -145q-64 0 -132 47z" />
<glyph unicode="&#x4ef;" horiz-adv-x="545" d="M51 -107q29 -23 59 -23t54.5 20.5t39.5 56.5l26 59l-217 510h111l130 -338q3 -7 6 -16l5.5 -16.5t4 -14.5t2.5 -11l1 -4h2q9 35 18 61l125 339h107l-242 -609q-12 -30 -29.5 -53t-39 -38t-46.5 -22.5t-53 -7.5q-16 0 -32 3t-27.5 8t-20.5 9.5t-14 7.5l-5 3zM144 621v73 h259v-73h-259z" />
<glyph unicode="&#x4f0;" horiz-adv-x="610" d="M356 797v103h81v-103h-81zM185 797v103h81v-103h-81zM76 35l46 76q47 -36 83 -36q20 0 35.5 10.5t25.5 27t21 43.5l-285 564h111l176 -362q6 -13 12.5 -27t11.5 -25.5t8.5 -21.5t5.5 -15l2 -6h3q15 50 30 94l134 363h106l-230 -587q-57 -145 -164 -145q-64 0 -132 47z " />
<glyph unicode="&#x4f1;" horiz-adv-x="545" d="M51 -107q29 -23 59 -23t54.5 20.5t39.5 56.5l26 59l-217 510h111l130 -338q3 -7 6 -16l5.5 -16.5t4 -14.5t2.5 -11l1 -4h2q9 35 18 61l125 339h107l-242 -609q-12 -30 -29.5 -53t-39 -38t-46.5 -22.5t-53 -7.5q-16 0 -32 3t-27.5 8t-20.5 9.5t-14 7.5l-5 3zM318 618v103 h81v-103h-81zM147 618v103h81v-103h-81z" />
<glyph unicode="&#x4f2;" horiz-adv-x="610" d="M76 35l46 76q47 -36 83 -36q20 0 35.5 10.5t25.5 27t21 43.5l-285 564h111l176 -362q6 -13 12.5 -27t11.5 -25.5t8.5 -21.5t5.5 -15l2 -6h3q15 50 30 94l134 363h106l-230 -587q-57 -145 -164 -145q-64 0 -132 47zM343 770l74 130h103l-98 -130h-79zM186 770l69 130h90 l-73 -130h-86z" />
<glyph unicode="&#x4f3;" horiz-adv-x="545" d="M51 -107q29 -23 59 -23t54.5 20.5t39.5 56.5l26 59l-217 510h111l130 -338q3 -7 6 -16l5.5 -16.5t4 -14.5t2.5 -11l1 -4h2q9 35 18 61l125 339h107l-242 -609q-12 -30 -29.5 -53t-39 -38t-46.5 -22.5t-53 -7.5q-16 0 -32 3t-27.5 8t-20.5 9.5t-14 7.5l-5 3zM301 592 l74 129h103l-98 -129h-79zM144 592l69 129h90l-72 -129h-87z" />
<glyph unicode="&#x4f4;" horiz-adv-x="651" d="M269 276q-109 0 -163 54.5t-54 156.5v233h102v-212q0 -70 33 -105t104 -35q32 0 65.5 8.5t57 19t40.5 21.5v303h102v-720h-102v292l2 33h-2q-93 -49 -185 -49zM356 797v103h81v-103h-81zM185 797v103h81v-103h-81z" />
<glyph unicode="&#x4f5;" horiz-adv-x="533" d="M301 618v103h80v-103h-80zM130 618v103h81v-103h-81zM217 180q-83 0 -128 43t-45 125v168h97v-154q0 -44 22 -70.5t81 -26.5q63 0 114 37v214h99v-516h-99v187l1 30h-2q-26 -16 -64.5 -26.5t-75.5 -10.5z" />
<glyph unicode="&#x4f6;" horiz-adv-x="508" d="M95 0v720h397v-88h-296v-544h100v-231h-92v143h-109z" />
<glyph unicode="&#x4f7;" horiz-adv-x="424" d="M76 0v516h324v-85h-225v-345h86v-208h-90v122h-95z" />
<glyph unicode="&#x4f8;" horiz-adv-x="860" d="M475 797v103h81v-103h-81zM304 797v103h82v-103h-82zM665 0v720h100v-720h-100zM95 0v720h101v-271h148q97 0 158 -60.5t61 -166.5q0 -99 -59.5 -160.5t-154.5 -61.5h-254zM196 88h137q60 0 94 35.5t34 98.5q0 64 -35.5 101.5t-95.5 37.5h-134v-273z" />
<glyph unicode="&#x4f9;" horiz-adv-x="719" d="M403 618v103h80v-103h-80zM232 618v103h81v-103h-81zM544 0v516h99v-516h-99zM76 0v516h99v-187h101q42 0 75.5 -9.5t59 -29t39.5 -52t14 -75.5q0 -75 -47.5 -119t-141.5 -44h-199zM175 71h87q52 0 77 25.5t25 67.5q0 43 -25.5 68.5t-77.5 25.5h-86v-187z" />
<glyph unicode="&#x2000;" horiz-adv-x="455" />
<glyph unicode="&#x2001;" horiz-adv-x="910" />
<glyph unicode="&#x2002;" horiz-adv-x="455" />
<glyph unicode="&#x2003;" horiz-adv-x="910" />
<glyph unicode="&#x2004;" horiz-adv-x="303" />
<glyph unicode="&#x2005;" horiz-adv-x="227" />
<glyph unicode="&#x2006;" horiz-adv-x="151" />
<glyph unicode="&#x2007;" horiz-adv-x="151" />
<glyph unicode="&#x2008;" horiz-adv-x="113" />
<glyph unicode="&#x2009;" horiz-adv-x="182" />
<glyph unicode="&#x200a;" horiz-adv-x="50" />
<glyph unicode="&#x2010;" horiz-adv-x="440" d="M71 247v88h298v-88h-298z" />
<glyph unicode="&#x2011;" horiz-adv-x="440" d="M71 247v88h298v-88h-298z" />
<glyph unicode="&#x2012;" horiz-adv-x="440" d="M71 247v88h298v-88h-298z" />
<glyph unicode="&#x2013;" horiz-adv-x="682" d="M73 251v79h536v-79h-536z" />
<glyph unicode="&#x2014;" horiz-adv-x="886" d="M73 251v79h740v-79h-740z" />
<glyph unicode="&#x2018;" horiz-adv-x="255" d="M61 533l67 198h73l-44 -198h-96z" />
<glyph unicode="&#x2019;" horiz-adv-x="248" d="M65 533l43 198h97l-67 -198h-73z" />
<glyph unicode="&#x201a;" horiz-adv-x="263" d="M51 -91l44 198h93l-66 -198h-71z" />
<glyph unicode="&#x201c;" horiz-adv-x="398" d="M205 533l66 198h74l-44 -198h-96zM61 533l67 198h73l-44 -198h-96z" />
<glyph unicode="&#x201d;" horiz-adv-x="393" d="M209 533l43 198h97l-66 -198h-74zM65 533l43 198h97l-66 -198h-74z" />
<glyph unicode="&#x201e;" horiz-adv-x="403" d="M192 -91l44 198h93l-66 -198h-71zM51 -91l44 198h93l-66 -198h-71z" />
<glyph unicode="&#x2022;" horiz-adv-x="485" d="M243 139q-65 0 -111 46.5t-46 111.5t46 111.5t111 46.5t111.5 -46.5t46.5 -111.5q0 -43 -21 -79.5t-57.5 -57.5t-79.5 -21z" />
<glyph unicode="&#x2026;" horiz-adv-x="776" d="M601 0v107h104v-107h-104zM337 0v107h103v-107h-103zM71 0v107h103v-107h-103z" />
<glyph unicode="&#x202f;" horiz-adv-x="182" />
<glyph unicode="&#x2039;" horiz-adv-x="366" d="M213 79l-167 209l167 210h99l-167 -210l167 -209h-99z" />
<glyph unicode="&#x203a;" horiz-adv-x="366" d="M54 79l167 209l-167 210h99l167 -210l-167 -209h-99z" />
<glyph unicode="&#x205f;" horiz-adv-x="227" />
<glyph unicode="&#x20ac;" horiz-adv-x="588" d="M27 263v64h57q-5 29 -1 74h-56v65h68q32 118 126.5 192t219.5 74q51 0 102 -12l-24 -92q-33 11 -80 11q-85 0 -148.5 -47t-88.5 -126h287l-14 -65h-287q-6 -31 0 -74h274l-13 -64h-245q25 -81 89 -130t149 -49q50 0 92 13l20 -92q-47 -17 -113 -17q-130 0 -224 76 t-123 199h-67z" />
<glyph unicode="&#x2122;" horiz-adv-x="1011" d="M482 271l36 449h72l105 -234l14 -42h2q6 23 13 42l106 234h72l34 -449h-76l-22 269l1 30h-2l-95 -216h-63l-98 216h-2l1 -30l-21 -269h-77zM218 271v381h-156v68h388v-68h-155v-381h-77z" />
<glyph unicode="&#x25fc;" horiz-adv-x="515" d="M0 515h515v-515h-515v515z" />
</font>
</defs>
</svg>
